M48
; DRILL file {KiCad 9.0.2} date 2025-05-14T21:51:21+0200
; FORMAT={-:-/ absolute / metric / decimal}
; #@! TF.CreationDate,2025-05-14T21:51:21+02:00
; #@! TF.GenerationSoftware,Kicad,Pcbnew,9.0.2
; #@! TF.FileFunction,Plated,1,2,PTH
FMAT,2
METRIC
; #@! TA.AperFunction,Plated,PTH,ComponentDrill
T1C0.950
; #@! TA.AperFunction,Plated,PTH,ComponentDrill
T2C1.000
; #@! TA.AperFunction,Plated,PTH,ComponentDrill
T3C1.020
; #@! TA.AperFunction,Plated,PTH,ComponentDrill
T4C2.200
%
G90
G05
T1
X71.0Y-60.5
X71.0Y-68.5
X71.0Y-76.5
X71.0Y-84.5
X73.5Y-60.5
X73.5Y-68.5
X73.5Y-76.5
X73.5Y-84.5
X76.0Y-60.5
X76.0Y-68.5
X76.0Y-76.5
X76.0Y-84.5
X125.0Y-47.75
X125.0Y-50.25
X125.0Y-52.75
X125.0Y-55.25
X125.0Y-71.25
X125.0Y-73.75
X125.0Y-76.25
X125.0Y-78.75
T2
X72.0Y-43.5
X72.0Y-51.5
X74.5Y-43.5
X74.5Y-51.5
X110.5Y-91.0
X113.0Y-91.0
T3
X84.395Y-49.6
X84.395Y-52.14
X84.395Y-54.68
X84.395Y-57.22
X84.395Y-59.76
X84.395Y-62.3
X84.395Y-64.84
X84.395Y-67.38
X84.395Y-69.92
X84.395Y-72.46
X84.395Y-75.0
X84.395Y-77.54
X84.395Y-80.08
X84.395Y-82.62
X84.395Y-85.16
X99.635Y-49.6
X99.635Y-52.14
X99.635Y-54.68
X99.635Y-57.22
X99.635Y-59.76
X99.635Y-62.3
X99.635Y-64.84
X99.635Y-67.38
X99.635Y-69.92
X99.635Y-72.46
X99.635Y-75.0
X99.635Y-77.54
X99.635Y-80.08
X99.635Y-82.62
X99.635Y-85.16
X105.65Y-42.61
X105.65Y-45.15
X105.65Y-47.69
X105.65Y-50.23
X105.65Y-52.77
X105.65Y-55.31
X105.65Y-57.85
X105.65Y-60.39
X105.65Y-66.11
X105.65Y-68.65
X105.65Y-71.19
X105.65Y-73.73
X105.65Y-76.27
X105.65Y-78.81
X105.65Y-81.35
X105.65Y-83.89
X118.35Y-42.61
X118.35Y-45.15
X118.35Y-47.69
X118.35Y-50.23
X118.35Y-52.77
X118.35Y-55.31
X118.35Y-57.85
X118.35Y-60.39
X118.35Y-66.11
X118.35Y-68.65
X118.35Y-71.19
X118.35Y-73.73
X118.35Y-76.27
X118.35Y-78.81
X118.35Y-81.35
X118.35Y-83.89
T4
X64.0Y-39.3
X64.0Y-91.0
X133.0Y-91.0
X134.0Y-39.3
M30
