%TF.GenerationSoftware,KiCad,Pcbnew,9.0.2*%
%TF.CreationDate,2025-05-14T21:51:20+02:00*%
%TF.ProjectId,carte_actionneur,63617274-655f-4616-9374-696f6e6e6575,rev?*%
%TF.SameCoordinates,Original*%
%TF.FileFunction,Soldermask,Top*%
%TF.FilePolarity,Negative*%
%FSLAX46Y46*%
G04 Gerber Fmt 4.6, Leading zero omitted, Abs format (unit mm)*
G04 Created by KiCad (PCBNEW 9.0.2) date 2025-05-14 21:51:20*
%MOMM*%
%LPD*%
G01*
G04 APERTURE LIST*
G04 Aperture macros list*
%AMRoundRect*
0 Rectangle with rounded corners*
0 $1 Rounding radius*
0 $2 $3 $4 $5 $6 $7 $8 $9 X,Y pos of 4 corners*
0 Add a 4 corners polygon primitive as box body*
4,1,4,$2,$3,$4,$5,$6,$7,$8,$9,$2,$3,0*
0 Add four circle primitives for the rounded corners*
1,1,$1+$1,$2,$3*
1,1,$1+$1,$4,$5*
1,1,$1+$1,$6,$7*
1,1,$1+$1,$8,$9*
0 Add four rect primitives between the rounded corners*
20,1,$1+$1,$2,$3,$4,$5,0*
20,1,$1+$1,$4,$5,$6,$7,0*
20,1,$1+$1,$6,$7,$8,$9,0*
20,1,$1+$1,$8,$9,$2,$3,0*%
G04 Aperture macros list end*
%ADD10C,2.600000*%
%ADD11C,3.800000*%
%ADD12O,1.700000X2.000000*%
%ADD13RoundRect,0.250000X-0.600000X-0.750000X0.600000X-0.750000X0.600000X0.750000X-0.600000X0.750000X0*%
%ADD14RoundRect,0.250000X-0.600000X-0.725000X0.600000X-0.725000X0.600000X0.725000X-0.600000X0.725000X0*%
%ADD15O,1.700000X1.950000*%
%ADD16RoundRect,0.102000X-0.765000X-0.765000X0.765000X-0.765000X0.765000X0.765000X-0.765000X0.765000X0*%
%ADD17C,1.734000*%
%ADD18RoundRect,0.250000X0.600000X0.750000X-0.600000X0.750000X-0.600000X-0.750000X0.600000X-0.750000X0*%
%ADD19RoundRect,0.250000X0.725000X-0.600000X0.725000X0.600000X-0.725000X0.600000X-0.725000X-0.600000X0*%
%ADD20O,1.950000X1.700000*%
G04 APERTURE END LIST*
D10*
%TO.C,REF\u002A\u002A*%
X64000000Y-91000000D03*
D11*
X64000000Y-91000000D03*
%TD*%
D10*
%TO.C,REF\u002A\u002A*%
X64000000Y-39300000D03*
D11*
X64000000Y-39300000D03*
%TD*%
D10*
%TO.C,REF\u002A\u002A*%
X133000000Y-91000000D03*
D11*
X133000000Y-91000000D03*
%TD*%
D10*
%TO.C,REF\u002A\u002A*%
X134000000Y-39300000D03*
D11*
X134000000Y-39300000D03*
%TD*%
D12*
%TO.C,J1*%
X74500000Y-51500000D03*
D13*
X72000000Y-51500000D03*
%TD*%
D12*
%TO.C,J2*%
X74500000Y-43500000D03*
D13*
X72000000Y-43500000D03*
%TD*%
D14*
%TO.C,J9*%
X71000000Y-84500000D03*
D15*
X73500000Y-84500000D03*
X76000000Y-84500000D03*
%TD*%
D16*
%TO.C,U1*%
X84395000Y-49600000D03*
D17*
X84395000Y-52140000D03*
X84395000Y-54680000D03*
X84395000Y-57220000D03*
X84395000Y-59760000D03*
X84395000Y-62300000D03*
X84395000Y-64840000D03*
X84395000Y-67380000D03*
X84395000Y-69920000D03*
X84395000Y-72460000D03*
X84395000Y-75000000D03*
X84395000Y-77540000D03*
X84395000Y-80080000D03*
X84395000Y-82620000D03*
X84395000Y-85160000D03*
D16*
X99635000Y-49600000D03*
D17*
X99635000Y-52140000D03*
X99635000Y-54680000D03*
X99635000Y-57220000D03*
X99635000Y-59760000D03*
X99635000Y-62300000D03*
X99635000Y-64840000D03*
X99635000Y-67380000D03*
X99635000Y-69920000D03*
X99635000Y-72460000D03*
X99635000Y-75000000D03*
X99635000Y-77540000D03*
X99635000Y-80080000D03*
X99635000Y-82620000D03*
X99635000Y-85160000D03*
%TD*%
D16*
%TO.C,U3*%
X105650000Y-66110000D03*
D17*
X105650000Y-68650000D03*
X105650000Y-71190000D03*
X105650000Y-73730000D03*
X105650000Y-76270000D03*
X105650000Y-78810000D03*
X105650000Y-81350000D03*
X105650000Y-83890000D03*
X118350000Y-83890000D03*
X118350000Y-81350000D03*
X118350000Y-78810000D03*
X118350000Y-76270000D03*
X118350000Y-73730000D03*
X118350000Y-71190000D03*
X118350000Y-68650000D03*
X118350000Y-66110000D03*
%TD*%
D18*
%TO.C,J5*%
X113000000Y-91000000D03*
D12*
X110500000Y-91000000D03*
%TD*%
D14*
%TO.C,J7*%
X71000000Y-60500000D03*
D15*
X73500000Y-60500000D03*
X76000000Y-60500000D03*
%TD*%
%TO.C,J6*%
X76000000Y-76500000D03*
X73500000Y-76500000D03*
D14*
X71000000Y-76500000D03*
%TD*%
D19*
%TO.C,J3*%
X125000000Y-55250000D03*
D20*
X125000000Y-52750000D03*
X125000000Y-50250000D03*
X125000000Y-47750000D03*
%TD*%
D19*
%TO.C,J4*%
X125000000Y-78750000D03*
D20*
X125000000Y-76250000D03*
X125000000Y-73750000D03*
X125000000Y-71250000D03*
%TD*%
D14*
%TO.C,J8*%
X71000000Y-68500000D03*
D15*
X73500000Y-68500000D03*
X76000000Y-68500000D03*
%TD*%
D16*
%TO.C,U2*%
X105650000Y-42610000D03*
D17*
X105650000Y-45150000D03*
X105650000Y-47690000D03*
X105650000Y-50230000D03*
X105650000Y-52770000D03*
X105650000Y-55310000D03*
X105650000Y-57850000D03*
X105650000Y-60390000D03*
X118350000Y-60390000D03*
X118350000Y-57850000D03*
X118350000Y-55310000D03*
X118350000Y-52770000D03*
X118350000Y-50230000D03*
X118350000Y-47690000D03*
X118350000Y-45150000D03*
X118350000Y-42610000D03*
%TD*%
M02*
