%TF.GenerationSoftware,KiCad,Pcbnew,9.0.2*%
%TF.CreationDate,2025-05-14T21:51:20+02:00*%
%TF.ProjectId,carte_actionneur,63617274-655f-4616-9374-696f6e6e6575,rev?*%
%TF.SameCoordinates,Original*%
%TF.FileFunction,Copper,L1,Top*%
%TF.FilePolarity,Positive*%
%FSLAX46Y46*%
G04 Gerber Fmt 4.6, Leading zero omitted, Abs format (unit mm)*
G04 Created by KiCad (PCBNEW 9.0.2) date 2025-05-14 21:51:20*
%MOMM*%
%LPD*%
G01*
G04 APERTURE LIST*
G04 Aperture macros list*
%AMRoundRect*
0 Rectangle with rounded corners*
0 $1 Rounding radius*
0 $2 $3 $4 $5 $6 $7 $8 $9 X,Y pos of 4 corners*
0 Add a 4 corners polygon primitive as box body*
4,1,4,$2,$3,$4,$5,$6,$7,$8,$9,$2,$3,0*
0 Add four circle primitives for the rounded corners*
1,1,$1+$1,$2,$3*
1,1,$1+$1,$4,$5*
1,1,$1+$1,$6,$7*
1,1,$1+$1,$8,$9*
0 Add four rect primitives between the rounded corners*
20,1,$1+$1,$2,$3,$4,$5,0*
20,1,$1+$1,$4,$5,$6,$7,0*
20,1,$1+$1,$6,$7,$8,$9,0*
20,1,$1+$1,$8,$9,$2,$3,0*%
G04 Aperture macros list end*
%ADD10C,0.300000*%
%TA.AperFunction,NonConductor*%
%ADD11C,0.300000*%
%TD*%
%TA.AperFunction,ComponentPad*%
%ADD12C,2.600000*%
%TD*%
%TA.AperFunction,ConnectorPad*%
%ADD13C,3.800000*%
%TD*%
%TA.AperFunction,ComponentPad*%
%ADD14O,1.700000X2.000000*%
%TD*%
%TA.AperFunction,ComponentPad*%
%ADD15RoundRect,0.250000X-0.600000X-0.750000X0.600000X-0.750000X0.600000X0.750000X-0.600000X0.750000X0*%
%TD*%
%TA.AperFunction,ComponentPad*%
%ADD16RoundRect,0.250000X-0.600000X-0.725000X0.600000X-0.725000X0.600000X0.725000X-0.600000X0.725000X0*%
%TD*%
%TA.AperFunction,ComponentPad*%
%ADD17O,1.700000X1.950000*%
%TD*%
%TA.AperFunction,ComponentPad*%
%ADD18R,1.530000X1.530000*%
%TD*%
%TA.AperFunction,ComponentPad*%
%ADD19C,1.530000*%
%TD*%
%TA.AperFunction,ComponentPad*%
%ADD20RoundRect,0.250000X0.600000X0.750000X-0.600000X0.750000X-0.600000X-0.750000X0.600000X-0.750000X0*%
%TD*%
%TA.AperFunction,ComponentPad*%
%ADD21RoundRect,0.250000X0.725000X-0.600000X0.725000X0.600000X-0.725000X0.600000X-0.725000X-0.600000X0*%
%TD*%
%TA.AperFunction,ComponentPad*%
%ADD22O,1.950000X1.700000*%
%TD*%
%TA.AperFunction,Conductor*%
%ADD23C,0.750000*%
%TD*%
%TA.AperFunction,Conductor*%
%ADD24C,0.500000*%
%TD*%
G04 APERTURE END LIST*
D10*
D11*
X61464286Y-84064484D02*
X61678572Y-84135912D01*
X61678572Y-84135912D02*
X62035714Y-84135912D01*
X62035714Y-84135912D02*
X62178572Y-84064484D01*
X62178572Y-84064484D02*
X62250000Y-83993055D01*
X62250000Y-83993055D02*
X62321429Y-83850198D01*
X62321429Y-83850198D02*
X62321429Y-83707341D01*
X62321429Y-83707341D02*
X62250000Y-83564484D01*
X62250000Y-83564484D02*
X62178572Y-83493055D01*
X62178572Y-83493055D02*
X62035714Y-83421626D01*
X62035714Y-83421626D02*
X61750000Y-83350198D01*
X61750000Y-83350198D02*
X61607143Y-83278769D01*
X61607143Y-83278769D02*
X61535714Y-83207341D01*
X61535714Y-83207341D02*
X61464286Y-83064484D01*
X61464286Y-83064484D02*
X61464286Y-82921626D01*
X61464286Y-82921626D02*
X61535714Y-82778769D01*
X61535714Y-82778769D02*
X61607143Y-82707341D01*
X61607143Y-82707341D02*
X61750000Y-82635912D01*
X61750000Y-82635912D02*
X62107143Y-82635912D01*
X62107143Y-82635912D02*
X62321429Y-82707341D01*
X63535714Y-84064484D02*
X63392857Y-84135912D01*
X63392857Y-84135912D02*
X63107143Y-84135912D01*
X63107143Y-84135912D02*
X62964285Y-84064484D01*
X62964285Y-84064484D02*
X62892857Y-83921626D01*
X62892857Y-83921626D02*
X62892857Y-83350198D01*
X62892857Y-83350198D02*
X62964285Y-83207341D01*
X62964285Y-83207341D02*
X63107143Y-83135912D01*
X63107143Y-83135912D02*
X63392857Y-83135912D01*
X63392857Y-83135912D02*
X63535714Y-83207341D01*
X63535714Y-83207341D02*
X63607143Y-83350198D01*
X63607143Y-83350198D02*
X63607143Y-83493055D01*
X63607143Y-83493055D02*
X62892857Y-83635912D01*
X64249999Y-84135912D02*
X64249999Y-83135912D01*
X64249999Y-83421626D02*
X64321428Y-83278769D01*
X64321428Y-83278769D02*
X64392857Y-83207341D01*
X64392857Y-83207341D02*
X64535714Y-83135912D01*
X64535714Y-83135912D02*
X64678571Y-83135912D01*
X65035713Y-83135912D02*
X65392856Y-84135912D01*
X65392856Y-84135912D02*
X65749999Y-83135912D01*
X66535713Y-84135912D02*
X66392856Y-84064484D01*
X66392856Y-84064484D02*
X66321427Y-83993055D01*
X66321427Y-83993055D02*
X66249999Y-83850198D01*
X66249999Y-83850198D02*
X66249999Y-83421626D01*
X66249999Y-83421626D02*
X66321427Y-83278769D01*
X66321427Y-83278769D02*
X66392856Y-83207341D01*
X66392856Y-83207341D02*
X66535713Y-83135912D01*
X66535713Y-83135912D02*
X66749999Y-83135912D01*
X66749999Y-83135912D02*
X66892856Y-83207341D01*
X66892856Y-83207341D02*
X66964285Y-83278769D01*
X66964285Y-83278769D02*
X67035713Y-83421626D01*
X67035713Y-83421626D02*
X67035713Y-83850198D01*
X67035713Y-83850198D02*
X66964285Y-83993055D01*
X66964285Y-83993055D02*
X66892856Y-84064484D01*
X66892856Y-84064484D02*
X66749999Y-84135912D01*
X66749999Y-84135912D02*
X66535713Y-84135912D01*
X64535715Y-85550828D02*
X64535715Y-86550828D01*
X64178572Y-84979400D02*
X63821429Y-86050828D01*
X63821429Y-86050828D02*
X64750000Y-86050828D01*
D10*
D11*
X61464286Y-76064484D02*
X61678572Y-76135912D01*
X61678572Y-76135912D02*
X62035714Y-76135912D01*
X62035714Y-76135912D02*
X62178572Y-76064484D01*
X62178572Y-76064484D02*
X62250000Y-75993055D01*
X62250000Y-75993055D02*
X62321429Y-75850198D01*
X62321429Y-75850198D02*
X62321429Y-75707341D01*
X62321429Y-75707341D02*
X62250000Y-75564484D01*
X62250000Y-75564484D02*
X62178572Y-75493055D01*
X62178572Y-75493055D02*
X62035714Y-75421626D01*
X62035714Y-75421626D02*
X61750000Y-75350198D01*
X61750000Y-75350198D02*
X61607143Y-75278769D01*
X61607143Y-75278769D02*
X61535714Y-75207341D01*
X61535714Y-75207341D02*
X61464286Y-75064484D01*
X61464286Y-75064484D02*
X61464286Y-74921626D01*
X61464286Y-74921626D02*
X61535714Y-74778769D01*
X61535714Y-74778769D02*
X61607143Y-74707341D01*
X61607143Y-74707341D02*
X61750000Y-74635912D01*
X61750000Y-74635912D02*
X62107143Y-74635912D01*
X62107143Y-74635912D02*
X62321429Y-74707341D01*
X63535714Y-76064484D02*
X63392857Y-76135912D01*
X63392857Y-76135912D02*
X63107143Y-76135912D01*
X63107143Y-76135912D02*
X62964285Y-76064484D01*
X62964285Y-76064484D02*
X62892857Y-75921626D01*
X62892857Y-75921626D02*
X62892857Y-75350198D01*
X62892857Y-75350198D02*
X62964285Y-75207341D01*
X62964285Y-75207341D02*
X63107143Y-75135912D01*
X63107143Y-75135912D02*
X63392857Y-75135912D01*
X63392857Y-75135912D02*
X63535714Y-75207341D01*
X63535714Y-75207341D02*
X63607143Y-75350198D01*
X63607143Y-75350198D02*
X63607143Y-75493055D01*
X63607143Y-75493055D02*
X62892857Y-75635912D01*
X64249999Y-76135912D02*
X64249999Y-75135912D01*
X64249999Y-75421626D02*
X64321428Y-75278769D01*
X64321428Y-75278769D02*
X64392857Y-75207341D01*
X64392857Y-75207341D02*
X64535714Y-75135912D01*
X64535714Y-75135912D02*
X64678571Y-75135912D01*
X65035713Y-75135912D02*
X65392856Y-76135912D01*
X65392856Y-76135912D02*
X65749999Y-75135912D01*
X66535713Y-76135912D02*
X66392856Y-76064484D01*
X66392856Y-76064484D02*
X66321427Y-75993055D01*
X66321427Y-75993055D02*
X66249999Y-75850198D01*
X66249999Y-75850198D02*
X66249999Y-75421626D01*
X66249999Y-75421626D02*
X66321427Y-75278769D01*
X66321427Y-75278769D02*
X66392856Y-75207341D01*
X66392856Y-75207341D02*
X66535713Y-75135912D01*
X66535713Y-75135912D02*
X66749999Y-75135912D01*
X66749999Y-75135912D02*
X66892856Y-75207341D01*
X66892856Y-75207341D02*
X66964285Y-75278769D01*
X66964285Y-75278769D02*
X67035713Y-75421626D01*
X67035713Y-75421626D02*
X67035713Y-75850198D01*
X67035713Y-75850198D02*
X66964285Y-75993055D01*
X66964285Y-75993055D02*
X66892856Y-76064484D01*
X66892856Y-76064484D02*
X66749999Y-76135912D01*
X66749999Y-76135912D02*
X66535713Y-76135912D01*
X64678572Y-78550828D02*
X63821429Y-78550828D01*
X64250000Y-78550828D02*
X64250000Y-77050828D01*
X64250000Y-77050828D02*
X64107143Y-77265114D01*
X64107143Y-77265114D02*
X63964286Y-77407971D01*
X63964286Y-77407971D02*
X63821429Y-77479400D01*
D10*
D11*
X61464286Y-68314484D02*
X61678572Y-68385912D01*
X61678572Y-68385912D02*
X62035714Y-68385912D01*
X62035714Y-68385912D02*
X62178572Y-68314484D01*
X62178572Y-68314484D02*
X62250000Y-68243055D01*
X62250000Y-68243055D02*
X62321429Y-68100198D01*
X62321429Y-68100198D02*
X62321429Y-67957341D01*
X62321429Y-67957341D02*
X62250000Y-67814484D01*
X62250000Y-67814484D02*
X62178572Y-67743055D01*
X62178572Y-67743055D02*
X62035714Y-67671626D01*
X62035714Y-67671626D02*
X61750000Y-67600198D01*
X61750000Y-67600198D02*
X61607143Y-67528769D01*
X61607143Y-67528769D02*
X61535714Y-67457341D01*
X61535714Y-67457341D02*
X61464286Y-67314484D01*
X61464286Y-67314484D02*
X61464286Y-67171626D01*
X61464286Y-67171626D02*
X61535714Y-67028769D01*
X61535714Y-67028769D02*
X61607143Y-66957341D01*
X61607143Y-66957341D02*
X61750000Y-66885912D01*
X61750000Y-66885912D02*
X62107143Y-66885912D01*
X62107143Y-66885912D02*
X62321429Y-66957341D01*
X63535714Y-68314484D02*
X63392857Y-68385912D01*
X63392857Y-68385912D02*
X63107143Y-68385912D01*
X63107143Y-68385912D02*
X62964285Y-68314484D01*
X62964285Y-68314484D02*
X62892857Y-68171626D01*
X62892857Y-68171626D02*
X62892857Y-67600198D01*
X62892857Y-67600198D02*
X62964285Y-67457341D01*
X62964285Y-67457341D02*
X63107143Y-67385912D01*
X63107143Y-67385912D02*
X63392857Y-67385912D01*
X63392857Y-67385912D02*
X63535714Y-67457341D01*
X63535714Y-67457341D02*
X63607143Y-67600198D01*
X63607143Y-67600198D02*
X63607143Y-67743055D01*
X63607143Y-67743055D02*
X62892857Y-67885912D01*
X64249999Y-68385912D02*
X64249999Y-67385912D01*
X64249999Y-67671626D02*
X64321428Y-67528769D01*
X64321428Y-67528769D02*
X64392857Y-67457341D01*
X64392857Y-67457341D02*
X64535714Y-67385912D01*
X64535714Y-67385912D02*
X64678571Y-67385912D01*
X65035713Y-67385912D02*
X65392856Y-68385912D01*
X65392856Y-68385912D02*
X65749999Y-67385912D01*
X66535713Y-68385912D02*
X66392856Y-68314484D01*
X66392856Y-68314484D02*
X66321427Y-68243055D01*
X66321427Y-68243055D02*
X66249999Y-68100198D01*
X66249999Y-68100198D02*
X66249999Y-67671626D01*
X66249999Y-67671626D02*
X66321427Y-67528769D01*
X66321427Y-67528769D02*
X66392856Y-67457341D01*
X66392856Y-67457341D02*
X66535713Y-67385912D01*
X66535713Y-67385912D02*
X66749999Y-67385912D01*
X66749999Y-67385912D02*
X66892856Y-67457341D01*
X66892856Y-67457341D02*
X66964285Y-67528769D01*
X66964285Y-67528769D02*
X67035713Y-67671626D01*
X67035713Y-67671626D02*
X67035713Y-68100198D01*
X67035713Y-68100198D02*
X66964285Y-68243055D01*
X66964285Y-68243055D02*
X66892856Y-68314484D01*
X66892856Y-68314484D02*
X66749999Y-68385912D01*
X66749999Y-68385912D02*
X66535713Y-68385912D01*
X63750000Y-69300828D02*
X64678572Y-69300828D01*
X64678572Y-69300828D02*
X64178572Y-69872257D01*
X64178572Y-69872257D02*
X64392857Y-69872257D01*
X64392857Y-69872257D02*
X64535715Y-69943685D01*
X64535715Y-69943685D02*
X64607143Y-70015114D01*
X64607143Y-70015114D02*
X64678572Y-70157971D01*
X64678572Y-70157971D02*
X64678572Y-70515114D01*
X64678572Y-70515114D02*
X64607143Y-70657971D01*
X64607143Y-70657971D02*
X64535715Y-70729400D01*
X64535715Y-70729400D02*
X64392857Y-70800828D01*
X64392857Y-70800828D02*
X63964286Y-70800828D01*
X63964286Y-70800828D02*
X63821429Y-70729400D01*
X63821429Y-70729400D02*
X63750000Y-70657971D01*
D10*
D11*
X61464286Y-60314484D02*
X61678572Y-60385912D01*
X61678572Y-60385912D02*
X62035714Y-60385912D01*
X62035714Y-60385912D02*
X62178572Y-60314484D01*
X62178572Y-60314484D02*
X62250000Y-60243055D01*
X62250000Y-60243055D02*
X62321429Y-60100198D01*
X62321429Y-60100198D02*
X62321429Y-59957341D01*
X62321429Y-59957341D02*
X62250000Y-59814484D01*
X62250000Y-59814484D02*
X62178572Y-59743055D01*
X62178572Y-59743055D02*
X62035714Y-59671626D01*
X62035714Y-59671626D02*
X61750000Y-59600198D01*
X61750000Y-59600198D02*
X61607143Y-59528769D01*
X61607143Y-59528769D02*
X61535714Y-59457341D01*
X61535714Y-59457341D02*
X61464286Y-59314484D01*
X61464286Y-59314484D02*
X61464286Y-59171626D01*
X61464286Y-59171626D02*
X61535714Y-59028769D01*
X61535714Y-59028769D02*
X61607143Y-58957341D01*
X61607143Y-58957341D02*
X61750000Y-58885912D01*
X61750000Y-58885912D02*
X62107143Y-58885912D01*
X62107143Y-58885912D02*
X62321429Y-58957341D01*
X63535714Y-60314484D02*
X63392857Y-60385912D01*
X63392857Y-60385912D02*
X63107143Y-60385912D01*
X63107143Y-60385912D02*
X62964285Y-60314484D01*
X62964285Y-60314484D02*
X62892857Y-60171626D01*
X62892857Y-60171626D02*
X62892857Y-59600198D01*
X62892857Y-59600198D02*
X62964285Y-59457341D01*
X62964285Y-59457341D02*
X63107143Y-59385912D01*
X63107143Y-59385912D02*
X63392857Y-59385912D01*
X63392857Y-59385912D02*
X63535714Y-59457341D01*
X63535714Y-59457341D02*
X63607143Y-59600198D01*
X63607143Y-59600198D02*
X63607143Y-59743055D01*
X63607143Y-59743055D02*
X62892857Y-59885912D01*
X64249999Y-60385912D02*
X64249999Y-59385912D01*
X64249999Y-59671626D02*
X64321428Y-59528769D01*
X64321428Y-59528769D02*
X64392857Y-59457341D01*
X64392857Y-59457341D02*
X64535714Y-59385912D01*
X64535714Y-59385912D02*
X64678571Y-59385912D01*
X65035713Y-59385912D02*
X65392856Y-60385912D01*
X65392856Y-60385912D02*
X65749999Y-59385912D01*
X66535713Y-60385912D02*
X66392856Y-60314484D01*
X66392856Y-60314484D02*
X66321427Y-60243055D01*
X66321427Y-60243055D02*
X66249999Y-60100198D01*
X66249999Y-60100198D02*
X66249999Y-59671626D01*
X66249999Y-59671626D02*
X66321427Y-59528769D01*
X66321427Y-59528769D02*
X66392856Y-59457341D01*
X66392856Y-59457341D02*
X66535713Y-59385912D01*
X66535713Y-59385912D02*
X66749999Y-59385912D01*
X66749999Y-59385912D02*
X66892856Y-59457341D01*
X66892856Y-59457341D02*
X66964285Y-59528769D01*
X66964285Y-59528769D02*
X67035713Y-59671626D01*
X67035713Y-59671626D02*
X67035713Y-60100198D01*
X67035713Y-60100198D02*
X66964285Y-60243055D01*
X66964285Y-60243055D02*
X66892856Y-60314484D01*
X66892856Y-60314484D02*
X66749999Y-60385912D01*
X66749999Y-60385912D02*
X66535713Y-60385912D01*
X63821429Y-61443685D02*
X63892857Y-61372257D01*
X63892857Y-61372257D02*
X64035715Y-61300828D01*
X64035715Y-61300828D02*
X64392857Y-61300828D01*
X64392857Y-61300828D02*
X64535715Y-61372257D01*
X64535715Y-61372257D02*
X64607143Y-61443685D01*
X64607143Y-61443685D02*
X64678572Y-61586542D01*
X64678572Y-61586542D02*
X64678572Y-61729400D01*
X64678572Y-61729400D02*
X64607143Y-61943685D01*
X64607143Y-61943685D02*
X63750000Y-62800828D01*
X63750000Y-62800828D02*
X64678572Y-62800828D01*
D10*
D11*
X116554510Y-89800828D02*
X116554510Y-91015114D01*
X116554510Y-91015114D02*
X116625939Y-91157971D01*
X116625939Y-91157971D02*
X116697368Y-91229400D01*
X116697368Y-91229400D02*
X116840225Y-91300828D01*
X116840225Y-91300828D02*
X117125939Y-91300828D01*
X117125939Y-91300828D02*
X117268796Y-91229400D01*
X117268796Y-91229400D02*
X117340225Y-91157971D01*
X117340225Y-91157971D02*
X117411653Y-91015114D01*
X117411653Y-91015114D02*
X117411653Y-89800828D01*
X118054511Y-90872257D02*
X118768797Y-90872257D01*
X117911654Y-91300828D02*
X118411654Y-89800828D01*
X118411654Y-89800828D02*
X118911654Y-91300828D01*
X120268796Y-91300828D02*
X119768796Y-90586542D01*
X119411653Y-91300828D02*
X119411653Y-89800828D01*
X119411653Y-89800828D02*
X119983082Y-89800828D01*
X119983082Y-89800828D02*
X120125939Y-89872257D01*
X120125939Y-89872257D02*
X120197368Y-89943685D01*
X120197368Y-89943685D02*
X120268796Y-90086542D01*
X120268796Y-90086542D02*
X120268796Y-90300828D01*
X120268796Y-90300828D02*
X120197368Y-90443685D01*
X120197368Y-90443685D02*
X120125939Y-90515114D01*
X120125939Y-90515114D02*
X119983082Y-90586542D01*
X119983082Y-90586542D02*
X119411653Y-90586542D01*
X120697368Y-89800828D02*
X121554511Y-89800828D01*
X121125939Y-91300828D02*
X121125939Y-89800828D01*
X123197367Y-91300828D02*
X123197367Y-89800828D01*
X123197367Y-89800828D02*
X123768796Y-89800828D01*
X123768796Y-89800828D02*
X123911653Y-89872257D01*
X123911653Y-89872257D02*
X123983082Y-89943685D01*
X123983082Y-89943685D02*
X124054510Y-90086542D01*
X124054510Y-90086542D02*
X124054510Y-90300828D01*
X124054510Y-90300828D02*
X123983082Y-90443685D01*
X123983082Y-90443685D02*
X123911653Y-90515114D01*
X123911653Y-90515114D02*
X123768796Y-90586542D01*
X123768796Y-90586542D02*
X123197367Y-90586542D01*
X124911653Y-91300828D02*
X124768796Y-91229400D01*
X124768796Y-91229400D02*
X124697367Y-91157971D01*
X124697367Y-91157971D02*
X124625939Y-91015114D01*
X124625939Y-91015114D02*
X124625939Y-90586542D01*
X124625939Y-90586542D02*
X124697367Y-90443685D01*
X124697367Y-90443685D02*
X124768796Y-90372257D01*
X124768796Y-90372257D02*
X124911653Y-90300828D01*
X124911653Y-90300828D02*
X125125939Y-90300828D01*
X125125939Y-90300828D02*
X125268796Y-90372257D01*
X125268796Y-90372257D02*
X125340225Y-90443685D01*
X125340225Y-90443685D02*
X125411653Y-90586542D01*
X125411653Y-90586542D02*
X125411653Y-91015114D01*
X125411653Y-91015114D02*
X125340225Y-91157971D01*
X125340225Y-91157971D02*
X125268796Y-91229400D01*
X125268796Y-91229400D02*
X125125939Y-91300828D01*
X125125939Y-91300828D02*
X124911653Y-91300828D01*
X126054510Y-91300828D02*
X126054510Y-90300828D01*
X126054510Y-90586542D02*
X126125939Y-90443685D01*
X126125939Y-90443685D02*
X126197368Y-90372257D01*
X126197368Y-90372257D02*
X126340225Y-90300828D01*
X126340225Y-90300828D02*
X126483082Y-90300828D01*
X126768796Y-90300828D02*
X127340224Y-90300828D01*
X126983081Y-89800828D02*
X126983081Y-91086542D01*
X126983081Y-91086542D02*
X127054510Y-91229400D01*
X127054510Y-91229400D02*
X127197367Y-91300828D01*
X127197367Y-91300828D02*
X127340224Y-91300828D01*
D10*
D11*
X111957341Y-78214284D02*
X111957341Y-77499999D01*
X112385912Y-78357141D02*
X110885912Y-77857141D01*
X110885912Y-77857141D02*
X112385912Y-77357141D01*
X111385912Y-76214285D02*
X112385912Y-76214285D01*
X110814484Y-76571427D02*
X111885912Y-76928570D01*
X111885912Y-76928570D02*
X111885912Y-75999999D01*
X112385912Y-75357142D02*
X112385912Y-75071428D01*
X112385912Y-75071428D02*
X112314484Y-74928571D01*
X112314484Y-74928571D02*
X112243055Y-74857142D01*
X112243055Y-74857142D02*
X112028769Y-74714285D01*
X112028769Y-74714285D02*
X111743055Y-74642856D01*
X111743055Y-74642856D02*
X111171626Y-74642856D01*
X111171626Y-74642856D02*
X111028769Y-74714285D01*
X111028769Y-74714285D02*
X110957341Y-74785714D01*
X110957341Y-74785714D02*
X110885912Y-74928571D01*
X110885912Y-74928571D02*
X110885912Y-75214285D01*
X110885912Y-75214285D02*
X110957341Y-75357142D01*
X110957341Y-75357142D02*
X111028769Y-75428571D01*
X111028769Y-75428571D02*
X111171626Y-75499999D01*
X111171626Y-75499999D02*
X111528769Y-75499999D01*
X111528769Y-75499999D02*
X111671626Y-75428571D01*
X111671626Y-75428571D02*
X111743055Y-75357142D01*
X111743055Y-75357142D02*
X111814484Y-75214285D01*
X111814484Y-75214285D02*
X111814484Y-74928571D01*
X111814484Y-74928571D02*
X111743055Y-74785714D01*
X111743055Y-74785714D02*
X111671626Y-74714285D01*
X111671626Y-74714285D02*
X111528769Y-74642856D01*
X111528769Y-73785714D02*
X111457341Y-73928571D01*
X111457341Y-73928571D02*
X111385912Y-74000000D01*
X111385912Y-74000000D02*
X111243055Y-74071428D01*
X111243055Y-74071428D02*
X111171626Y-74071428D01*
X111171626Y-74071428D02*
X111028769Y-74000000D01*
X111028769Y-74000000D02*
X110957341Y-73928571D01*
X110957341Y-73928571D02*
X110885912Y-73785714D01*
X110885912Y-73785714D02*
X110885912Y-73500000D01*
X110885912Y-73500000D02*
X110957341Y-73357143D01*
X110957341Y-73357143D02*
X111028769Y-73285714D01*
X111028769Y-73285714D02*
X111171626Y-73214285D01*
X111171626Y-73214285D02*
X111243055Y-73214285D01*
X111243055Y-73214285D02*
X111385912Y-73285714D01*
X111385912Y-73285714D02*
X111457341Y-73357143D01*
X111457341Y-73357143D02*
X111528769Y-73500000D01*
X111528769Y-73500000D02*
X111528769Y-73785714D01*
X111528769Y-73785714D02*
X111600198Y-73928571D01*
X111600198Y-73928571D02*
X111671626Y-74000000D01*
X111671626Y-74000000D02*
X111814484Y-74071428D01*
X111814484Y-74071428D02*
X112100198Y-74071428D01*
X112100198Y-74071428D02*
X112243055Y-74000000D01*
X112243055Y-74000000D02*
X112314484Y-73928571D01*
X112314484Y-73928571D02*
X112385912Y-73785714D01*
X112385912Y-73785714D02*
X112385912Y-73500000D01*
X112385912Y-73500000D02*
X112314484Y-73357143D01*
X112314484Y-73357143D02*
X112243055Y-73285714D01*
X112243055Y-73285714D02*
X112100198Y-73214285D01*
X112100198Y-73214285D02*
X111814484Y-73214285D01*
X111814484Y-73214285D02*
X111671626Y-73285714D01*
X111671626Y-73285714D02*
X111600198Y-73357143D01*
X111600198Y-73357143D02*
X111528769Y-73500000D01*
X111528769Y-72357143D02*
X111457341Y-72500000D01*
X111457341Y-72500000D02*
X111385912Y-72571429D01*
X111385912Y-72571429D02*
X111243055Y-72642857D01*
X111243055Y-72642857D02*
X111171626Y-72642857D01*
X111171626Y-72642857D02*
X111028769Y-72571429D01*
X111028769Y-72571429D02*
X110957341Y-72500000D01*
X110957341Y-72500000D02*
X110885912Y-72357143D01*
X110885912Y-72357143D02*
X110885912Y-72071429D01*
X110885912Y-72071429D02*
X110957341Y-71928572D01*
X110957341Y-71928572D02*
X111028769Y-71857143D01*
X111028769Y-71857143D02*
X111171626Y-71785714D01*
X111171626Y-71785714D02*
X111243055Y-71785714D01*
X111243055Y-71785714D02*
X111385912Y-71857143D01*
X111385912Y-71857143D02*
X111457341Y-71928572D01*
X111457341Y-71928572D02*
X111528769Y-72071429D01*
X111528769Y-72071429D02*
X111528769Y-72357143D01*
X111528769Y-72357143D02*
X111600198Y-72500000D01*
X111600198Y-72500000D02*
X111671626Y-72571429D01*
X111671626Y-72571429D02*
X111814484Y-72642857D01*
X111814484Y-72642857D02*
X112100198Y-72642857D01*
X112100198Y-72642857D02*
X112243055Y-72571429D01*
X112243055Y-72571429D02*
X112314484Y-72500000D01*
X112314484Y-72500000D02*
X112385912Y-72357143D01*
X112385912Y-72357143D02*
X112385912Y-72071429D01*
X112385912Y-72071429D02*
X112314484Y-71928572D01*
X112314484Y-71928572D02*
X112243055Y-71857143D01*
X112243055Y-71857143D02*
X112100198Y-71785714D01*
X112100198Y-71785714D02*
X111814484Y-71785714D01*
X111814484Y-71785714D02*
X111671626Y-71857143D01*
X111671626Y-71857143D02*
X111600198Y-71928572D01*
X111600198Y-71928572D02*
X111528769Y-72071429D01*
X113443685Y-75428570D02*
X113372257Y-75357142D01*
X113372257Y-75357142D02*
X113300828Y-75214285D01*
X113300828Y-75214285D02*
X113300828Y-74857142D01*
X113300828Y-74857142D02*
X113372257Y-74714285D01*
X113372257Y-74714285D02*
X113443685Y-74642856D01*
X113443685Y-74642856D02*
X113586542Y-74571427D01*
X113586542Y-74571427D02*
X113729400Y-74571427D01*
X113729400Y-74571427D02*
X113943685Y-74642856D01*
X113943685Y-74642856D02*
X114800828Y-75499999D01*
X114800828Y-75499999D02*
X114800828Y-74571427D01*
D10*
D11*
X110457341Y-54714284D02*
X110457341Y-53999999D01*
X110885912Y-54857141D02*
X109385912Y-54357141D01*
X109385912Y-54357141D02*
X110885912Y-53857141D01*
X109885912Y-52714285D02*
X110885912Y-52714285D01*
X109314484Y-53071427D02*
X110385912Y-53428570D01*
X110385912Y-53428570D02*
X110385912Y-52499999D01*
X110885912Y-51857142D02*
X110885912Y-51571428D01*
X110885912Y-51571428D02*
X110814484Y-51428571D01*
X110814484Y-51428571D02*
X110743055Y-51357142D01*
X110743055Y-51357142D02*
X110528769Y-51214285D01*
X110528769Y-51214285D02*
X110243055Y-51142856D01*
X110243055Y-51142856D02*
X109671626Y-51142856D01*
X109671626Y-51142856D02*
X109528769Y-51214285D01*
X109528769Y-51214285D02*
X109457341Y-51285714D01*
X109457341Y-51285714D02*
X109385912Y-51428571D01*
X109385912Y-51428571D02*
X109385912Y-51714285D01*
X109385912Y-51714285D02*
X109457341Y-51857142D01*
X109457341Y-51857142D02*
X109528769Y-51928571D01*
X109528769Y-51928571D02*
X109671626Y-51999999D01*
X109671626Y-51999999D02*
X110028769Y-51999999D01*
X110028769Y-51999999D02*
X110171626Y-51928571D01*
X110171626Y-51928571D02*
X110243055Y-51857142D01*
X110243055Y-51857142D02*
X110314484Y-51714285D01*
X110314484Y-51714285D02*
X110314484Y-51428571D01*
X110314484Y-51428571D02*
X110243055Y-51285714D01*
X110243055Y-51285714D02*
X110171626Y-51214285D01*
X110171626Y-51214285D02*
X110028769Y-51142856D01*
X110028769Y-50285714D02*
X109957341Y-50428571D01*
X109957341Y-50428571D02*
X109885912Y-50500000D01*
X109885912Y-50500000D02*
X109743055Y-50571428D01*
X109743055Y-50571428D02*
X109671626Y-50571428D01*
X109671626Y-50571428D02*
X109528769Y-50500000D01*
X109528769Y-50500000D02*
X109457341Y-50428571D01*
X109457341Y-50428571D02*
X109385912Y-50285714D01*
X109385912Y-50285714D02*
X109385912Y-50000000D01*
X109385912Y-50000000D02*
X109457341Y-49857143D01*
X109457341Y-49857143D02*
X109528769Y-49785714D01*
X109528769Y-49785714D02*
X109671626Y-49714285D01*
X109671626Y-49714285D02*
X109743055Y-49714285D01*
X109743055Y-49714285D02*
X109885912Y-49785714D01*
X109885912Y-49785714D02*
X109957341Y-49857143D01*
X109957341Y-49857143D02*
X110028769Y-50000000D01*
X110028769Y-50000000D02*
X110028769Y-50285714D01*
X110028769Y-50285714D02*
X110100198Y-50428571D01*
X110100198Y-50428571D02*
X110171626Y-50500000D01*
X110171626Y-50500000D02*
X110314484Y-50571428D01*
X110314484Y-50571428D02*
X110600198Y-50571428D01*
X110600198Y-50571428D02*
X110743055Y-50500000D01*
X110743055Y-50500000D02*
X110814484Y-50428571D01*
X110814484Y-50428571D02*
X110885912Y-50285714D01*
X110885912Y-50285714D02*
X110885912Y-50000000D01*
X110885912Y-50000000D02*
X110814484Y-49857143D01*
X110814484Y-49857143D02*
X110743055Y-49785714D01*
X110743055Y-49785714D02*
X110600198Y-49714285D01*
X110600198Y-49714285D02*
X110314484Y-49714285D01*
X110314484Y-49714285D02*
X110171626Y-49785714D01*
X110171626Y-49785714D02*
X110100198Y-49857143D01*
X110100198Y-49857143D02*
X110028769Y-50000000D01*
X110028769Y-48857143D02*
X109957341Y-49000000D01*
X109957341Y-49000000D02*
X109885912Y-49071429D01*
X109885912Y-49071429D02*
X109743055Y-49142857D01*
X109743055Y-49142857D02*
X109671626Y-49142857D01*
X109671626Y-49142857D02*
X109528769Y-49071429D01*
X109528769Y-49071429D02*
X109457341Y-49000000D01*
X109457341Y-49000000D02*
X109385912Y-48857143D01*
X109385912Y-48857143D02*
X109385912Y-48571429D01*
X109385912Y-48571429D02*
X109457341Y-48428572D01*
X109457341Y-48428572D02*
X109528769Y-48357143D01*
X109528769Y-48357143D02*
X109671626Y-48285714D01*
X109671626Y-48285714D02*
X109743055Y-48285714D01*
X109743055Y-48285714D02*
X109885912Y-48357143D01*
X109885912Y-48357143D02*
X109957341Y-48428572D01*
X109957341Y-48428572D02*
X110028769Y-48571429D01*
X110028769Y-48571429D02*
X110028769Y-48857143D01*
X110028769Y-48857143D02*
X110100198Y-49000000D01*
X110100198Y-49000000D02*
X110171626Y-49071429D01*
X110171626Y-49071429D02*
X110314484Y-49142857D01*
X110314484Y-49142857D02*
X110600198Y-49142857D01*
X110600198Y-49142857D02*
X110743055Y-49071429D01*
X110743055Y-49071429D02*
X110814484Y-49000000D01*
X110814484Y-49000000D02*
X110885912Y-48857143D01*
X110885912Y-48857143D02*
X110885912Y-48571429D01*
X110885912Y-48571429D02*
X110814484Y-48428572D01*
X110814484Y-48428572D02*
X110743055Y-48357143D01*
X110743055Y-48357143D02*
X110600198Y-48285714D01*
X110600198Y-48285714D02*
X110314484Y-48285714D01*
X110314484Y-48285714D02*
X110171626Y-48357143D01*
X110171626Y-48357143D02*
X110100198Y-48428572D01*
X110100198Y-48428572D02*
X110028769Y-48571429D01*
X113300828Y-51071427D02*
X113300828Y-51928570D01*
X113300828Y-51499999D02*
X111800828Y-51499999D01*
X111800828Y-51499999D02*
X112015114Y-51642856D01*
X112015114Y-51642856D02*
X112157971Y-51785713D01*
X112157971Y-51785713D02*
X112229400Y-51928570D01*
D10*
D11*
X131229400Y-84016917D02*
X131300828Y-83802632D01*
X131300828Y-83802632D02*
X131300828Y-83445489D01*
X131300828Y-83445489D02*
X131229400Y-83302632D01*
X131229400Y-83302632D02*
X131157971Y-83231203D01*
X131157971Y-83231203D02*
X131015114Y-83159774D01*
X131015114Y-83159774D02*
X130872257Y-83159774D01*
X130872257Y-83159774D02*
X130729400Y-83231203D01*
X130729400Y-83231203D02*
X130657971Y-83302632D01*
X130657971Y-83302632D02*
X130586542Y-83445489D01*
X130586542Y-83445489D02*
X130515114Y-83731203D01*
X130515114Y-83731203D02*
X130443685Y-83874060D01*
X130443685Y-83874060D02*
X130372257Y-83945489D01*
X130372257Y-83945489D02*
X130229400Y-84016917D01*
X130229400Y-84016917D02*
X130086542Y-84016917D01*
X130086542Y-84016917D02*
X129943685Y-83945489D01*
X129943685Y-83945489D02*
X129872257Y-83874060D01*
X129872257Y-83874060D02*
X129800828Y-83731203D01*
X129800828Y-83731203D02*
X129800828Y-83374060D01*
X129800828Y-83374060D02*
X129872257Y-83159774D01*
X130300828Y-82731203D02*
X130300828Y-82159775D01*
X129800828Y-82516918D02*
X131086542Y-82516918D01*
X131086542Y-82516918D02*
X131229400Y-82445489D01*
X131229400Y-82445489D02*
X131300828Y-82302632D01*
X131300828Y-82302632D02*
X131300828Y-82159775D01*
X131229400Y-81088346D02*
X131300828Y-81231203D01*
X131300828Y-81231203D02*
X131300828Y-81516918D01*
X131300828Y-81516918D02*
X131229400Y-81659775D01*
X131229400Y-81659775D02*
X131086542Y-81731203D01*
X131086542Y-81731203D02*
X130515114Y-81731203D01*
X130515114Y-81731203D02*
X130372257Y-81659775D01*
X130372257Y-81659775D02*
X130300828Y-81516918D01*
X130300828Y-81516918D02*
X130300828Y-81231203D01*
X130300828Y-81231203D02*
X130372257Y-81088346D01*
X130372257Y-81088346D02*
X130515114Y-81016918D01*
X130515114Y-81016918D02*
X130657971Y-81016918D01*
X130657971Y-81016918D02*
X130800828Y-81731203D01*
X130300828Y-80374061D02*
X131800828Y-80374061D01*
X130372257Y-80374061D02*
X130300828Y-80231204D01*
X130300828Y-80231204D02*
X130300828Y-79945489D01*
X130300828Y-79945489D02*
X130372257Y-79802632D01*
X130372257Y-79802632D02*
X130443685Y-79731204D01*
X130443685Y-79731204D02*
X130586542Y-79659775D01*
X130586542Y-79659775D02*
X131015114Y-79659775D01*
X131015114Y-79659775D02*
X131157971Y-79731204D01*
X131157971Y-79731204D02*
X131229400Y-79802632D01*
X131229400Y-79802632D02*
X131300828Y-79945489D01*
X131300828Y-79945489D02*
X131300828Y-80231204D01*
X131300828Y-80231204D02*
X131229400Y-80374061D01*
X130300828Y-79016918D02*
X131800828Y-79016918D01*
X130372257Y-79016918D02*
X130300828Y-78874061D01*
X130300828Y-78874061D02*
X130300828Y-78588346D01*
X130300828Y-78588346D02*
X130372257Y-78445489D01*
X130372257Y-78445489D02*
X130443685Y-78374061D01*
X130443685Y-78374061D02*
X130586542Y-78302632D01*
X130586542Y-78302632D02*
X131015114Y-78302632D01*
X131015114Y-78302632D02*
X131157971Y-78374061D01*
X131157971Y-78374061D02*
X131229400Y-78445489D01*
X131229400Y-78445489D02*
X131300828Y-78588346D01*
X131300828Y-78588346D02*
X131300828Y-78874061D01*
X131300828Y-78874061D02*
X131229400Y-79016918D01*
X131229400Y-77088346D02*
X131300828Y-77231203D01*
X131300828Y-77231203D02*
X131300828Y-77516918D01*
X131300828Y-77516918D02*
X131229400Y-77659775D01*
X131229400Y-77659775D02*
X131086542Y-77731203D01*
X131086542Y-77731203D02*
X130515114Y-77731203D01*
X130515114Y-77731203D02*
X130372257Y-77659775D01*
X130372257Y-77659775D02*
X130300828Y-77516918D01*
X130300828Y-77516918D02*
X130300828Y-77231203D01*
X130300828Y-77231203D02*
X130372257Y-77088346D01*
X130372257Y-77088346D02*
X130515114Y-77016918D01*
X130515114Y-77016918D02*
X130657971Y-77016918D01*
X130657971Y-77016918D02*
X130800828Y-77731203D01*
X131300828Y-76374061D02*
X130300828Y-76374061D01*
X130586542Y-76374061D02*
X130443685Y-76302632D01*
X130443685Y-76302632D02*
X130372257Y-76231204D01*
X130372257Y-76231204D02*
X130300828Y-76088346D01*
X130300828Y-76088346D02*
X130300828Y-75945489D01*
X131300828Y-74302633D02*
X129800828Y-74302633D01*
X129800828Y-74302633D02*
X130872257Y-73802633D01*
X130872257Y-73802633D02*
X129800828Y-73302633D01*
X129800828Y-73302633D02*
X131300828Y-73302633D01*
X131300828Y-72374061D02*
X131229400Y-72516918D01*
X131229400Y-72516918D02*
X131157971Y-72588347D01*
X131157971Y-72588347D02*
X131015114Y-72659775D01*
X131015114Y-72659775D02*
X130586542Y-72659775D01*
X130586542Y-72659775D02*
X130443685Y-72588347D01*
X130443685Y-72588347D02*
X130372257Y-72516918D01*
X130372257Y-72516918D02*
X130300828Y-72374061D01*
X130300828Y-72374061D02*
X130300828Y-72159775D01*
X130300828Y-72159775D02*
X130372257Y-72016918D01*
X130372257Y-72016918D02*
X130443685Y-71945490D01*
X130443685Y-71945490D02*
X130586542Y-71874061D01*
X130586542Y-71874061D02*
X131015114Y-71874061D01*
X131015114Y-71874061D02*
X131157971Y-71945490D01*
X131157971Y-71945490D02*
X131229400Y-72016918D01*
X131229400Y-72016918D02*
X131300828Y-72159775D01*
X131300828Y-72159775D02*
X131300828Y-72374061D01*
X130300828Y-71445489D02*
X130300828Y-70874061D01*
X129800828Y-71231204D02*
X131086542Y-71231204D01*
X131086542Y-71231204D02*
X131229400Y-71159775D01*
X131229400Y-71159775D02*
X131300828Y-71016918D01*
X131300828Y-71016918D02*
X131300828Y-70874061D01*
X131300828Y-70159775D02*
X131229400Y-70302632D01*
X131229400Y-70302632D02*
X131157971Y-70374061D01*
X131157971Y-70374061D02*
X131015114Y-70445489D01*
X131015114Y-70445489D02*
X130586542Y-70445489D01*
X130586542Y-70445489D02*
X130443685Y-70374061D01*
X130443685Y-70374061D02*
X130372257Y-70302632D01*
X130372257Y-70302632D02*
X130300828Y-70159775D01*
X130300828Y-70159775D02*
X130300828Y-69945489D01*
X130300828Y-69945489D02*
X130372257Y-69802632D01*
X130372257Y-69802632D02*
X130443685Y-69731204D01*
X130443685Y-69731204D02*
X130586542Y-69659775D01*
X130586542Y-69659775D02*
X131015114Y-69659775D01*
X131015114Y-69659775D02*
X131157971Y-69731204D01*
X131157971Y-69731204D02*
X131229400Y-69802632D01*
X131229400Y-69802632D02*
X131300828Y-69945489D01*
X131300828Y-69945489D02*
X131300828Y-70159775D01*
X131300828Y-69016918D02*
X130300828Y-69016918D01*
X130586542Y-69016918D02*
X130443685Y-68945489D01*
X130443685Y-68945489D02*
X130372257Y-68874061D01*
X130372257Y-68874061D02*
X130300828Y-68731203D01*
X130300828Y-68731203D02*
X130300828Y-68588346D01*
X129943685Y-67016918D02*
X129872257Y-66945490D01*
X129872257Y-66945490D02*
X129800828Y-66802633D01*
X129800828Y-66802633D02*
X129800828Y-66445490D01*
X129800828Y-66445490D02*
X129872257Y-66302633D01*
X129872257Y-66302633D02*
X129943685Y-66231204D01*
X129943685Y-66231204D02*
X130086542Y-66159775D01*
X130086542Y-66159775D02*
X130229400Y-66159775D01*
X130229400Y-66159775D02*
X130443685Y-66231204D01*
X130443685Y-66231204D02*
X131300828Y-67088347D01*
X131300828Y-67088347D02*
X131300828Y-66159775D01*
D10*
D11*
X131229400Y-60016917D02*
X131300828Y-59802632D01*
X131300828Y-59802632D02*
X131300828Y-59445489D01*
X131300828Y-59445489D02*
X131229400Y-59302632D01*
X131229400Y-59302632D02*
X131157971Y-59231203D01*
X131157971Y-59231203D02*
X131015114Y-59159774D01*
X131015114Y-59159774D02*
X130872257Y-59159774D01*
X130872257Y-59159774D02*
X130729400Y-59231203D01*
X130729400Y-59231203D02*
X130657971Y-59302632D01*
X130657971Y-59302632D02*
X130586542Y-59445489D01*
X130586542Y-59445489D02*
X130515114Y-59731203D01*
X130515114Y-59731203D02*
X130443685Y-59874060D01*
X130443685Y-59874060D02*
X130372257Y-59945489D01*
X130372257Y-59945489D02*
X130229400Y-60016917D01*
X130229400Y-60016917D02*
X130086542Y-60016917D01*
X130086542Y-60016917D02*
X129943685Y-59945489D01*
X129943685Y-59945489D02*
X129872257Y-59874060D01*
X129872257Y-59874060D02*
X129800828Y-59731203D01*
X129800828Y-59731203D02*
X129800828Y-59374060D01*
X129800828Y-59374060D02*
X129872257Y-59159774D01*
X130300828Y-58731203D02*
X130300828Y-58159775D01*
X129800828Y-58516918D02*
X131086542Y-58516918D01*
X131086542Y-58516918D02*
X131229400Y-58445489D01*
X131229400Y-58445489D02*
X131300828Y-58302632D01*
X131300828Y-58302632D02*
X131300828Y-58159775D01*
X131229400Y-57088346D02*
X131300828Y-57231203D01*
X131300828Y-57231203D02*
X131300828Y-57516918D01*
X131300828Y-57516918D02*
X131229400Y-57659775D01*
X131229400Y-57659775D02*
X131086542Y-57731203D01*
X131086542Y-57731203D02*
X130515114Y-57731203D01*
X130515114Y-57731203D02*
X130372257Y-57659775D01*
X130372257Y-57659775D02*
X130300828Y-57516918D01*
X130300828Y-57516918D02*
X130300828Y-57231203D01*
X130300828Y-57231203D02*
X130372257Y-57088346D01*
X130372257Y-57088346D02*
X130515114Y-57016918D01*
X130515114Y-57016918D02*
X130657971Y-57016918D01*
X130657971Y-57016918D02*
X130800828Y-57731203D01*
X130300828Y-56374061D02*
X131800828Y-56374061D01*
X130372257Y-56374061D02*
X130300828Y-56231204D01*
X130300828Y-56231204D02*
X130300828Y-55945489D01*
X130300828Y-55945489D02*
X130372257Y-55802632D01*
X130372257Y-55802632D02*
X130443685Y-55731204D01*
X130443685Y-55731204D02*
X130586542Y-55659775D01*
X130586542Y-55659775D02*
X131015114Y-55659775D01*
X131015114Y-55659775D02*
X131157971Y-55731204D01*
X131157971Y-55731204D02*
X131229400Y-55802632D01*
X131229400Y-55802632D02*
X131300828Y-55945489D01*
X131300828Y-55945489D02*
X131300828Y-56231204D01*
X131300828Y-56231204D02*
X131229400Y-56374061D01*
X130300828Y-55016918D02*
X131800828Y-55016918D01*
X130372257Y-55016918D02*
X130300828Y-54874061D01*
X130300828Y-54874061D02*
X130300828Y-54588346D01*
X130300828Y-54588346D02*
X130372257Y-54445489D01*
X130372257Y-54445489D02*
X130443685Y-54374061D01*
X130443685Y-54374061D02*
X130586542Y-54302632D01*
X130586542Y-54302632D02*
X131015114Y-54302632D01*
X131015114Y-54302632D02*
X131157971Y-54374061D01*
X131157971Y-54374061D02*
X131229400Y-54445489D01*
X131229400Y-54445489D02*
X131300828Y-54588346D01*
X131300828Y-54588346D02*
X131300828Y-54874061D01*
X131300828Y-54874061D02*
X131229400Y-55016918D01*
X131229400Y-53088346D02*
X131300828Y-53231203D01*
X131300828Y-53231203D02*
X131300828Y-53516918D01*
X131300828Y-53516918D02*
X131229400Y-53659775D01*
X131229400Y-53659775D02*
X131086542Y-53731203D01*
X131086542Y-53731203D02*
X130515114Y-53731203D01*
X130515114Y-53731203D02*
X130372257Y-53659775D01*
X130372257Y-53659775D02*
X130300828Y-53516918D01*
X130300828Y-53516918D02*
X130300828Y-53231203D01*
X130300828Y-53231203D02*
X130372257Y-53088346D01*
X130372257Y-53088346D02*
X130515114Y-53016918D01*
X130515114Y-53016918D02*
X130657971Y-53016918D01*
X130657971Y-53016918D02*
X130800828Y-53731203D01*
X131300828Y-52374061D02*
X130300828Y-52374061D01*
X130586542Y-52374061D02*
X130443685Y-52302632D01*
X130443685Y-52302632D02*
X130372257Y-52231204D01*
X130372257Y-52231204D02*
X130300828Y-52088346D01*
X130300828Y-52088346D02*
X130300828Y-51945489D01*
X131300828Y-50302633D02*
X129800828Y-50302633D01*
X129800828Y-50302633D02*
X130872257Y-49802633D01*
X130872257Y-49802633D02*
X129800828Y-49302633D01*
X129800828Y-49302633D02*
X131300828Y-49302633D01*
X131300828Y-48374061D02*
X131229400Y-48516918D01*
X131229400Y-48516918D02*
X131157971Y-48588347D01*
X131157971Y-48588347D02*
X131015114Y-48659775D01*
X131015114Y-48659775D02*
X130586542Y-48659775D01*
X130586542Y-48659775D02*
X130443685Y-48588347D01*
X130443685Y-48588347D02*
X130372257Y-48516918D01*
X130372257Y-48516918D02*
X130300828Y-48374061D01*
X130300828Y-48374061D02*
X130300828Y-48159775D01*
X130300828Y-48159775D02*
X130372257Y-48016918D01*
X130372257Y-48016918D02*
X130443685Y-47945490D01*
X130443685Y-47945490D02*
X130586542Y-47874061D01*
X130586542Y-47874061D02*
X131015114Y-47874061D01*
X131015114Y-47874061D02*
X131157971Y-47945490D01*
X131157971Y-47945490D02*
X131229400Y-48016918D01*
X131229400Y-48016918D02*
X131300828Y-48159775D01*
X131300828Y-48159775D02*
X131300828Y-48374061D01*
X130300828Y-47445489D02*
X130300828Y-46874061D01*
X129800828Y-47231204D02*
X131086542Y-47231204D01*
X131086542Y-47231204D02*
X131229400Y-47159775D01*
X131229400Y-47159775D02*
X131300828Y-47016918D01*
X131300828Y-47016918D02*
X131300828Y-46874061D01*
X131300828Y-46159775D02*
X131229400Y-46302632D01*
X131229400Y-46302632D02*
X131157971Y-46374061D01*
X131157971Y-46374061D02*
X131015114Y-46445489D01*
X131015114Y-46445489D02*
X130586542Y-46445489D01*
X130586542Y-46445489D02*
X130443685Y-46374061D01*
X130443685Y-46374061D02*
X130372257Y-46302632D01*
X130372257Y-46302632D02*
X130300828Y-46159775D01*
X130300828Y-46159775D02*
X130300828Y-45945489D01*
X130300828Y-45945489D02*
X130372257Y-45802632D01*
X130372257Y-45802632D02*
X130443685Y-45731204D01*
X130443685Y-45731204D02*
X130586542Y-45659775D01*
X130586542Y-45659775D02*
X131015114Y-45659775D01*
X131015114Y-45659775D02*
X131157971Y-45731204D01*
X131157971Y-45731204D02*
X131229400Y-45802632D01*
X131229400Y-45802632D02*
X131300828Y-45945489D01*
X131300828Y-45945489D02*
X131300828Y-46159775D01*
X131300828Y-45016918D02*
X130300828Y-45016918D01*
X130586542Y-45016918D02*
X130443685Y-44945489D01*
X130443685Y-44945489D02*
X130372257Y-44874061D01*
X130372257Y-44874061D02*
X130300828Y-44731203D01*
X130300828Y-44731203D02*
X130300828Y-44588346D01*
X131300828Y-42159775D02*
X131300828Y-43016918D01*
X131300828Y-42588347D02*
X129800828Y-42588347D01*
X129800828Y-42588347D02*
X130015114Y-42731204D01*
X130015114Y-42731204D02*
X130157971Y-42874061D01*
X130157971Y-42874061D02*
X130229400Y-43016918D01*
D10*
D11*
X89229400Y-77516917D02*
X89300828Y-77302632D01*
X89300828Y-77302632D02*
X89300828Y-76945489D01*
X89300828Y-76945489D02*
X89229400Y-76802632D01*
X89229400Y-76802632D02*
X89157971Y-76731203D01*
X89157971Y-76731203D02*
X89015114Y-76659774D01*
X89015114Y-76659774D02*
X88872257Y-76659774D01*
X88872257Y-76659774D02*
X88729400Y-76731203D01*
X88729400Y-76731203D02*
X88657971Y-76802632D01*
X88657971Y-76802632D02*
X88586542Y-76945489D01*
X88586542Y-76945489D02*
X88515114Y-77231203D01*
X88515114Y-77231203D02*
X88443685Y-77374060D01*
X88443685Y-77374060D02*
X88372257Y-77445489D01*
X88372257Y-77445489D02*
X88229400Y-77516917D01*
X88229400Y-77516917D02*
X88086542Y-77516917D01*
X88086542Y-77516917D02*
X87943685Y-77445489D01*
X87943685Y-77445489D02*
X87872257Y-77374060D01*
X87872257Y-77374060D02*
X87800828Y-77231203D01*
X87800828Y-77231203D02*
X87800828Y-76874060D01*
X87800828Y-76874060D02*
X87872257Y-76659774D01*
X87800828Y-76231203D02*
X87800828Y-75374061D01*
X89300828Y-75802632D02*
X87800828Y-75802632D01*
X89300828Y-74874061D02*
X87800828Y-74874061D01*
X87800828Y-74874061D02*
X88872257Y-74374061D01*
X88872257Y-74374061D02*
X87800828Y-73874061D01*
X87800828Y-73874061D02*
X89300828Y-73874061D01*
X87800828Y-73302632D02*
X87800828Y-72374060D01*
X87800828Y-72374060D02*
X88372257Y-72874060D01*
X88372257Y-72874060D02*
X88372257Y-72659775D01*
X88372257Y-72659775D02*
X88443685Y-72516918D01*
X88443685Y-72516918D02*
X88515114Y-72445489D01*
X88515114Y-72445489D02*
X88657971Y-72374060D01*
X88657971Y-72374060D02*
X89015114Y-72374060D01*
X89015114Y-72374060D02*
X89157971Y-72445489D01*
X89157971Y-72445489D02*
X89229400Y-72516918D01*
X89229400Y-72516918D02*
X89300828Y-72659775D01*
X89300828Y-72659775D02*
X89300828Y-73088346D01*
X89300828Y-73088346D02*
X89229400Y-73231203D01*
X89229400Y-73231203D02*
X89157971Y-73302632D01*
X87943685Y-71802632D02*
X87872257Y-71731204D01*
X87872257Y-71731204D02*
X87800828Y-71588347D01*
X87800828Y-71588347D02*
X87800828Y-71231204D01*
X87800828Y-71231204D02*
X87872257Y-71088347D01*
X87872257Y-71088347D02*
X87943685Y-71016918D01*
X87943685Y-71016918D02*
X88086542Y-70945489D01*
X88086542Y-70945489D02*
X88229400Y-70945489D01*
X88229400Y-70945489D02*
X88443685Y-71016918D01*
X88443685Y-71016918D02*
X89300828Y-71874061D01*
X89300828Y-71874061D02*
X89300828Y-70945489D01*
X89300828Y-69588347D02*
X89300828Y-70302633D01*
X89300828Y-70302633D02*
X87800828Y-70302633D01*
X88300828Y-68445490D02*
X89300828Y-68445490D01*
X87729400Y-68802632D02*
X88800828Y-69159775D01*
X88800828Y-69159775D02*
X88800828Y-68231204D01*
X87800828Y-67802633D02*
X87800828Y-66874061D01*
X87800828Y-66874061D02*
X88372257Y-67374061D01*
X88372257Y-67374061D02*
X88372257Y-67159776D01*
X88372257Y-67159776D02*
X88443685Y-67016919D01*
X88443685Y-67016919D02*
X88515114Y-66945490D01*
X88515114Y-66945490D02*
X88657971Y-66874061D01*
X88657971Y-66874061D02*
X89015114Y-66874061D01*
X89015114Y-66874061D02*
X89157971Y-66945490D01*
X89157971Y-66945490D02*
X89229400Y-67016919D01*
X89229400Y-67016919D02*
X89300828Y-67159776D01*
X89300828Y-67159776D02*
X89300828Y-67588347D01*
X89300828Y-67588347D02*
X89229400Y-67731204D01*
X89229400Y-67731204D02*
X89157971Y-67802633D01*
X87943685Y-66302633D02*
X87872257Y-66231205D01*
X87872257Y-66231205D02*
X87800828Y-66088348D01*
X87800828Y-66088348D02*
X87800828Y-65731205D01*
X87800828Y-65731205D02*
X87872257Y-65588348D01*
X87872257Y-65588348D02*
X87943685Y-65516919D01*
X87943685Y-65516919D02*
X88086542Y-65445490D01*
X88086542Y-65445490D02*
X88229400Y-65445490D01*
X88229400Y-65445490D02*
X88443685Y-65516919D01*
X88443685Y-65516919D02*
X89300828Y-66374062D01*
X89300828Y-66374062D02*
X89300828Y-65445490D01*
X89300828Y-64802634D02*
X87800828Y-64802634D01*
X89300828Y-63945491D02*
X88443685Y-64588348D01*
X87800828Y-63945491D02*
X88657971Y-64802634D01*
X89157971Y-62445491D02*
X89229400Y-62516919D01*
X89229400Y-62516919D02*
X89300828Y-62731205D01*
X89300828Y-62731205D02*
X89300828Y-62874062D01*
X89300828Y-62874062D02*
X89229400Y-63088348D01*
X89229400Y-63088348D02*
X89086542Y-63231205D01*
X89086542Y-63231205D02*
X88943685Y-63302634D01*
X88943685Y-63302634D02*
X88657971Y-63374062D01*
X88657971Y-63374062D02*
X88443685Y-63374062D01*
X88443685Y-63374062D02*
X88157971Y-63302634D01*
X88157971Y-63302634D02*
X88015114Y-63231205D01*
X88015114Y-63231205D02*
X87872257Y-63088348D01*
X87872257Y-63088348D02*
X87800828Y-62874062D01*
X87800828Y-62874062D02*
X87800828Y-62731205D01*
X87800828Y-62731205D02*
X87872257Y-62516919D01*
X87872257Y-62516919D02*
X87943685Y-62445491D01*
D10*
D11*
X62554510Y-52229400D02*
X63697368Y-52229400D01*
X63125939Y-52800828D02*
X63125939Y-51657971D01*
X65125939Y-51300828D02*
X64411653Y-51300828D01*
X64411653Y-51300828D02*
X64340225Y-52015114D01*
X64340225Y-52015114D02*
X64411653Y-51943685D01*
X64411653Y-51943685D02*
X64554511Y-51872257D01*
X64554511Y-51872257D02*
X64911653Y-51872257D01*
X64911653Y-51872257D02*
X65054511Y-51943685D01*
X65054511Y-51943685D02*
X65125939Y-52015114D01*
X65125939Y-52015114D02*
X65197368Y-52157971D01*
X65197368Y-52157971D02*
X65197368Y-52515114D01*
X65197368Y-52515114D02*
X65125939Y-52657971D01*
X65125939Y-52657971D02*
X65054511Y-52729400D01*
X65054511Y-52729400D02*
X64911653Y-52800828D01*
X64911653Y-52800828D02*
X64554511Y-52800828D01*
X64554511Y-52800828D02*
X64411653Y-52729400D01*
X64411653Y-52729400D02*
X64340225Y-52657971D01*
X65625939Y-51300828D02*
X66125939Y-52800828D01*
X66125939Y-52800828D02*
X66625939Y-51300828D01*
D10*
D11*
X62554510Y-44729400D02*
X63697368Y-44729400D01*
X63125939Y-45300828D02*
X63125939Y-44157971D01*
X64340225Y-43943685D02*
X64411653Y-43872257D01*
X64411653Y-43872257D02*
X64554511Y-43800828D01*
X64554511Y-43800828D02*
X64911653Y-43800828D01*
X64911653Y-43800828D02*
X65054511Y-43872257D01*
X65054511Y-43872257D02*
X65125939Y-43943685D01*
X65125939Y-43943685D02*
X65197368Y-44086542D01*
X65197368Y-44086542D02*
X65197368Y-44229400D01*
X65197368Y-44229400D02*
X65125939Y-44443685D01*
X65125939Y-44443685D02*
X64268796Y-45300828D01*
X64268796Y-45300828D02*
X65197368Y-45300828D01*
X66483082Y-44300828D02*
X66483082Y-45300828D01*
X66125939Y-43729400D02*
X65768796Y-44800828D01*
X65768796Y-44800828D02*
X66697367Y-44800828D01*
X67054510Y-43800828D02*
X67554510Y-45300828D01*
X67554510Y-45300828D02*
X68054510Y-43800828D01*
D12*
%TO.P,REF\u002A\u002A,1*%
%TO.N,N/C*%
X64000000Y-91000000D03*
D13*
X64000000Y-91000000D03*
%TD*%
D12*
%TO.P,REF\u002A\u002A,1*%
%TO.N,N/C*%
X64000000Y-39300000D03*
D13*
X64000000Y-39300000D03*
%TD*%
D12*
%TO.P,REF\u002A\u002A,1*%
%TO.N,N/C*%
X133000000Y-91000000D03*
D13*
X133000000Y-91000000D03*
%TD*%
D12*
%TO.P,REF\u002A\u002A,1*%
%TO.N,N/C*%
X134000000Y-39300000D03*
D13*
X134000000Y-39300000D03*
%TD*%
D14*
%TO.P,J1,2,Pin_2*%
%TO.N,GND*%
X74500000Y-51500000D03*
D15*
%TO.P,J1,1,Pin_1*%
%TO.N,+5V*%
X72000000Y-51500000D03*
%TD*%
D14*
%TO.P,J2,2,Pin_2*%
%TO.N,GND*%
X74500000Y-43500000D03*
D15*
%TO.P,J2,1,Pin_1*%
%TO.N,+24V*%
X72000000Y-43500000D03*
%TD*%
D16*
%TO.P,J9,1,Pin_1*%
%TO.N,+5V*%
X71000000Y-84500000D03*
D17*
%TO.P,J9,2,Pin_2*%
%TO.N,PWM_SERVO_4*%
X73500000Y-84500000D03*
%TO.P,J9,3,Pin_3*%
%TO.N,GND*%
X76000000Y-84500000D03*
%TD*%
D18*
%TO.P,U1,CN3_1,PA9*%
%TO.N,PWM_SERVO_2*%
X84395000Y-49600000D03*
D19*
%TO.P,U1,CN3_2,PA10*%
%TO.N,PWM_SERVO_3*%
X84395000Y-52140000D03*
%TO.P,U1,CN3_3,NRST_CN3*%
%TO.N,unconnected-(U1A-NRST_CN3-PadCN3_3)*%
X84395000Y-54680000D03*
%TO.P,U1,CN3_4,GND_CN3*%
%TO.N,GND*%
X84395000Y-57220000D03*
%TO.P,U1,CN3_5,PA12*%
%TO.N,unconnected-(U1A-PA12-PadCN3_5)*%
X84395000Y-59760000D03*
%TO.P,U1,CN3_6,PB0*%
%TO.N,ENABLEB_STEPPER1*%
X84395000Y-62300000D03*
%TO.P,U1,CN3_7,PB7*%
%TO.N,ENABLEB_STEPPER2*%
X84395000Y-64840000D03*
%TO.P,U1,CN3_8,PB6*%
%TO.N,STEP_STEPPER_1*%
X84395000Y-67380000D03*
%TO.P,U1,CN3_9,PB1*%
%TO.N,unconnected-(U1A-PB1-PadCN3_9)*%
X84395000Y-69920000D03*
%TO.P,U1,CN3_10,PC14*%
%TO.N,unconnected-(U1A-PC14-PadCN3_10)*%
X84395000Y-72460000D03*
%TO.P,U1,CN3_11,PC15*%
%TO.N,unconnected-(U1A-PC15-PadCN3_11)*%
X84395000Y-75000000D03*
%TO.P,U1,CN3_12,PA8*%
%TO.N,PWM_SERVO_1*%
X84395000Y-77540000D03*
%TO.P,U1,CN3_13,PA11*%
%TO.N,PWM_SERVO_4*%
X84395000Y-80080000D03*
%TO.P,U1,CN3_14,PB5*%
%TO.N,DIR_STEPPER_1*%
X84395000Y-82620000D03*
%TO.P,U1,CN3_15,PB4*%
%TO.N,unconnected-(U1A-PB4-PadCN3_15)*%
X84395000Y-85160000D03*
D18*
%TO.P,U1,CN4_1,VIN*%
%TO.N,+5V*%
X99635000Y-49600000D03*
D19*
%TO.P,U1,CN4_2,GND_CN4*%
%TO.N,GND*%
X99635000Y-52140000D03*
%TO.P,U1,CN4_3,NRST_CN4*%
%TO.N,unconnected-(U1B-NRST_CN4-PadCN4_3)*%
X99635000Y-54680000D03*
%TO.P,U1,CN4_4,+5V*%
%TO.N,unconnected-(U1B-+5V-PadCN4_4)*%
X99635000Y-57220000D03*
%TO.P,U1,CN4_5,PA2*%
%TO.N,UART_TX*%
X99635000Y-59760000D03*
%TO.P,U1,CN4_6,PA7*%
%TO.N,unconnected-(U1B-PA7-PadCN4_6)*%
X99635000Y-62300000D03*
%TO.P,U1,CN4_7,PA6*%
%TO.N,unconnected-(U1B-PA6-PadCN4_7)*%
X99635000Y-64840000D03*
%TO.P,U1,CN4_8,PA5*%
%TO.N,unconnected-(U1B-PA5-PadCN4_8)*%
X99635000Y-67380000D03*
%TO.P,U1,CN4_9,PA4*%
%TO.N,DIR_STEPPER_2*%
X99635000Y-69920000D03*
%TO.P,U1,CN4_10,PA3*%
%TO.N,UART_RX*%
X99635000Y-72460000D03*
%TO.P,U1,CN4_11,PA1*%
%TO.N,STEP_STEPPER_2*%
X99635000Y-75000000D03*
%TO.P,U1,CN4_12,PA0*%
%TO.N,unconnected-(U1B-PA0-PadCN4_12)*%
X99635000Y-77540000D03*
%TO.P,U1,CN4_13,AREF*%
%TO.N,unconnected-(U1B-AREF-PadCN4_13)*%
X99635000Y-80080000D03*
%TO.P,U1,CN4_14,+3V3*%
%TO.N,unconnected-(U1B-+3V3-PadCN4_14)*%
X99635000Y-82620000D03*
%TO.P,U1,CN4_15,PB3*%
%TO.N,unconnected-(U1B-PB3-PadCN4_15)*%
X99635000Y-85160000D03*
%TD*%
D18*
%TO.P,U3,1,~{ENABLE}*%
%TO.N,ENABLEB_STEPPER2*%
X105650000Y-66110000D03*
D19*
%TO.P,U3,2,MS1*%
%TO.N,unconnected-(U3-MS1-Pad2)*%
X105650000Y-68650000D03*
%TO.P,U3,3,MS2*%
%TO.N,unconnected-(U3-MS2-Pad3)*%
X105650000Y-71190000D03*
%TO.P,U3,4,MS3*%
%TO.N,unconnected-(U3-MS3-Pad4)*%
X105650000Y-73730000D03*
%TO.P,U3,5,~{RESET}*%
%TO.N,Net-(U3-~{RESET})*%
X105650000Y-76270000D03*
%TO.P,U3,6,~{SLEEP}*%
X105650000Y-78810000D03*
%TO.P,U3,7,STEP*%
%TO.N,STEP_STEPPER_2*%
X105650000Y-81350000D03*
%TO.P,U3,8,DIR*%
%TO.N,DIR_STEPPER_2*%
X105650000Y-83890000D03*
%TO.P,U3,9,GND*%
%TO.N,GND*%
X118350000Y-83890000D03*
%TO.P,U3,10,VDD*%
%TO.N,+5V*%
X118350000Y-81350000D03*
%TO.P,U3,11,1B*%
%TO.N,STEPPER2_1B*%
X118350000Y-78810000D03*
%TO.P,U3,12,1A*%
%TO.N,STEPPER2_1A*%
X118350000Y-76270000D03*
%TO.P,U3,13,2A*%
%TO.N,STEPPER2_2A*%
X118350000Y-73730000D03*
%TO.P,U3,14,2B*%
%TO.N,STEPPER2_2B*%
X118350000Y-71190000D03*
%TO.P,U3,15,GND*%
%TO.N,GND*%
X118350000Y-68650000D03*
%TO.P,U3,16,VMOT*%
%TO.N,+24V*%
X118350000Y-66110000D03*
%TD*%
D20*
%TO.P,J5,1,Pin_1*%
%TO.N,UART_TX*%
X113000000Y-91000000D03*
D14*
%TO.P,J5,2,Pin_2*%
%TO.N,UART_RX*%
X110500000Y-91000000D03*
%TD*%
D16*
%TO.P,J7,1,Pin_1*%
%TO.N,+5V*%
X71000000Y-60500000D03*
D17*
%TO.P,J7,2,Pin_2*%
%TO.N,PWM_SERVO_2*%
X73500000Y-60500000D03*
%TO.P,J7,3,Pin_3*%
%TO.N,GND*%
X76000000Y-60500000D03*
%TD*%
%TO.P,J6,3,Pin_3*%
%TO.N,GND*%
X76000000Y-76500000D03*
%TO.P,J6,2,Pin_2*%
%TO.N,PWM_SERVO_1*%
X73500000Y-76500000D03*
D16*
%TO.P,J6,1,Pin_1*%
%TO.N,+5V*%
X71000000Y-76500000D03*
%TD*%
D21*
%TO.P,J3,1,Pin_1*%
%TO.N,STEPPER1_1B*%
X125000000Y-55250000D03*
D22*
%TO.P,J3,2,Pin_2*%
%TO.N,STEPPER1_1A*%
X125000000Y-52750000D03*
%TO.P,J3,3,Pin_3*%
%TO.N,STEPPER1_2A*%
X125000000Y-50250000D03*
%TO.P,J3,4,Pin_4*%
%TO.N,STEPPER1_2B*%
X125000000Y-47750000D03*
%TD*%
D21*
%TO.P,J4,1,Pin_1*%
%TO.N,STEPPER2_1B*%
X125000000Y-78750000D03*
D22*
%TO.P,J4,2,Pin_2*%
%TO.N,STEPPER2_1A*%
X125000000Y-76250000D03*
%TO.P,J4,3,Pin_3*%
%TO.N,STEPPER2_2A*%
X125000000Y-73750000D03*
%TO.P,J4,4,Pin_4*%
%TO.N,STEPPER2_2B*%
X125000000Y-71250000D03*
%TD*%
D16*
%TO.P,J8,1,Pin_1*%
%TO.N,+5V*%
X71000000Y-68500000D03*
D17*
%TO.P,J8,2,Pin_2*%
%TO.N,PWM_SERVO_3*%
X73500000Y-68500000D03*
%TO.P,J8,3,Pin_3*%
%TO.N,GND*%
X76000000Y-68500000D03*
%TD*%
D18*
%TO.P,U2,1,~{ENABLE}*%
%TO.N,ENABLEB_STEPPER1*%
X105650000Y-42610000D03*
D19*
%TO.P,U2,2,MS1*%
%TO.N,unconnected-(U2-MS1-Pad2)*%
X105650000Y-45150000D03*
%TO.P,U2,3,MS2*%
%TO.N,unconnected-(U2-MS2-Pad3)*%
X105650000Y-47690000D03*
%TO.P,U2,4,MS3*%
%TO.N,unconnected-(U2-MS3-Pad4)*%
X105650000Y-50230000D03*
%TO.P,U2,5,~{RESET}*%
%TO.N,Net-(U2-~{RESET})*%
X105650000Y-52770000D03*
%TO.P,U2,6,~{SLEEP}*%
X105650000Y-55310000D03*
%TO.P,U2,7,STEP*%
%TO.N,STEP_STEPPER_1*%
X105650000Y-57850000D03*
%TO.P,U2,8,DIR*%
%TO.N,DIR_STEPPER_1*%
X105650000Y-60390000D03*
%TO.P,U2,9,GND*%
%TO.N,GND*%
X118350000Y-60390000D03*
%TO.P,U2,10,VDD*%
%TO.N,+5V*%
X118350000Y-57850000D03*
%TO.P,U2,11,1B*%
%TO.N,STEPPER1_1B*%
X118350000Y-55310000D03*
%TO.P,U2,12,1A*%
%TO.N,STEPPER1_1A*%
X118350000Y-52770000D03*
%TO.P,U2,13,2A*%
%TO.N,STEPPER1_2A*%
X118350000Y-50230000D03*
%TO.P,U2,14,2B*%
%TO.N,STEPPER1_2B*%
X118350000Y-47690000D03*
%TO.P,U2,15,GND*%
%TO.N,GND*%
X118350000Y-45150000D03*
%TO.P,U2,16,VMOT*%
%TO.N,+24V*%
X118350000Y-42610000D03*
%TD*%
D23*
%TO.N,+5V*%
X111500000Y-40000000D02*
X83500000Y-40000000D01*
X83500000Y-40000000D02*
X72000000Y-51500000D01*
X115500000Y-44000000D02*
X111500000Y-40000000D01*
X115500000Y-55000000D02*
X115500000Y-44000000D01*
X118350000Y-57850000D02*
X115500000Y-55000000D01*
D24*
%TO.N,UART_TX*%
X109000000Y-65500000D02*
X109000000Y-85000000D01*
X107000000Y-63500000D02*
X109000000Y-65500000D01*
X103375000Y-63500000D02*
X107000000Y-63500000D01*
X109000000Y-85000000D02*
X113000000Y-89000000D01*
X113000000Y-89000000D02*
X113000000Y-91000000D01*
X99635000Y-59760000D02*
X103375000Y-63500000D01*
D23*
%TO.N,+24V*%
X112240000Y-36500000D02*
X118350000Y-42610000D01*
X76000000Y-36500000D02*
X112240000Y-36500000D01*
X72000000Y-40500000D02*
X76000000Y-36500000D01*
X72000000Y-43500000D02*
X72000000Y-40500000D01*
%TO.N,+5V*%
X93500000Y-55735000D02*
X99635000Y-49600000D01*
X93500000Y-82500000D02*
X93500000Y-55735000D01*
X87000000Y-89000000D02*
X93500000Y-82500000D01*
X75500000Y-89000000D02*
X87000000Y-89000000D01*
X71000000Y-84500000D02*
X75500000Y-89000000D01*
D24*
%TO.N,STEP_STEPPER_2*%
X99635000Y-75335000D02*
X99635000Y-75000000D01*
X105650000Y-81350000D02*
X99635000Y-75335000D01*
%TO.N,UART_RX*%
X102500000Y-91000000D02*
X110500000Y-91000000D01*
X97500000Y-86000000D02*
X102500000Y-91000000D01*
X97500000Y-74595000D02*
X97500000Y-86000000D01*
X99635000Y-72460000D02*
X97500000Y-74595000D01*
%TO.N,ENABLEB_STEPPER1*%
X91000000Y-55695000D02*
X84395000Y-62300000D01*
X91000000Y-52500000D02*
X91000000Y-55695000D01*
X100890000Y-42610000D02*
X91000000Y-52500000D01*
X105650000Y-42610000D02*
X100890000Y-42610000D01*
%TO.N,PWM_SERVO_3*%
X77500000Y-64500000D02*
X73500000Y-68500000D01*
X80500000Y-63000000D02*
X79000000Y-64500000D01*
X79000000Y-64500000D02*
X77500000Y-64500000D01*
X84395000Y-52140000D02*
X80500000Y-56035000D01*
X80500000Y-56035000D02*
X80500000Y-63000000D01*
%TO.N,PWM_SERVO_2*%
X81900000Y-49600000D02*
X84395000Y-49600000D01*
X73500000Y-58000000D02*
X81900000Y-49600000D01*
X73500000Y-60500000D02*
X73500000Y-58000000D01*
%TO.N,PWM_SERVO_4*%
X83630000Y-80845000D02*
X84395000Y-80080000D01*
X77155000Y-80845000D02*
X83630000Y-80845000D01*
X73500000Y-84500000D02*
X77155000Y-80845000D01*
%TO.N,PWM_SERVO_1*%
X82435000Y-79500000D02*
X84395000Y-77540000D01*
X73500000Y-76500000D02*
X76500000Y-79500000D01*
X76500000Y-79500000D02*
X82435000Y-79500000D01*
D23*
%TO.N,+5V*%
X71000000Y-76500000D02*
X71000000Y-84500000D01*
X71000000Y-68500000D02*
X71000000Y-76500000D01*
X71000000Y-60500000D02*
X71000000Y-68500000D01*
X71000000Y-56000000D02*
X71000000Y-60500000D01*
X72000000Y-55000000D02*
X71000000Y-56000000D01*
X72000000Y-51500000D02*
X72000000Y-55000000D01*
D24*
%TO.N,STEPPER1_2B*%
X118540000Y-47500000D02*
X118350000Y-47690000D01*
X118410000Y-47750000D02*
X118350000Y-47690000D01*
X118350000Y-47690000D02*
X124940000Y-47690000D01*
X124940000Y-47690000D02*
X125000000Y-47750000D01*
%TO.N,STEPPER1_2A*%
X118350000Y-50230000D02*
X124980000Y-50230000D01*
X124980000Y-50230000D02*
X125000000Y-50250000D01*
X118370000Y-50250000D02*
X118350000Y-50230000D01*
X118580000Y-50000000D02*
X118350000Y-50230000D01*
%TO.N,STEPPER1_1B*%
X124750000Y-55250000D02*
X124690000Y-55310000D01*
X125000000Y-55250000D02*
X124750000Y-55250000D01*
X124690000Y-55310000D02*
X118350000Y-55310000D01*
X118660000Y-55000000D02*
X118350000Y-55310000D01*
%TO.N,STEPPER1_1A*%
X124980000Y-52770000D02*
X125000000Y-52750000D01*
X118370000Y-52750000D02*
X118350000Y-52770000D01*
X118620000Y-52500000D02*
X118350000Y-52770000D01*
X125000000Y-52750000D02*
X118370000Y-52750000D01*
%TO.N,STEPPER2_1B*%
X124940000Y-78810000D02*
X125000000Y-78750000D01*
X118350000Y-78810000D02*
X124940000Y-78810000D01*
%TO.N,STEPPER2_2B*%
X125000000Y-71250000D02*
X118410000Y-71250000D01*
X118410000Y-71250000D02*
X118350000Y-71190000D01*
X124940000Y-71190000D02*
X125000000Y-71250000D01*
%TO.N,STEPPER2_2A*%
X118350000Y-73730000D02*
X124980000Y-73730000D01*
X124980000Y-73730000D02*
X125000000Y-73750000D01*
%TO.N,STEPPER2_1A*%
X125000000Y-76250000D02*
X118370000Y-76250000D01*
X118370000Y-76250000D02*
X118350000Y-76270000D01*
X124980000Y-76270000D02*
X125000000Y-76250000D01*
%TD*%
%TA.AperFunction,Conductor*%
%TO.N,GND*%
G36*
X75578264Y-35520185D02*
G01*
X75624019Y-35572989D01*
X75633963Y-35642147D01*
X75604938Y-35705703D01*
X75580116Y-35727602D01*
X75441901Y-35819954D01*
X75441897Y-35819957D01*
X72364588Y-38897268D01*
X71441901Y-39819955D01*
X71380927Y-39880929D01*
X71319953Y-39941902D01*
X71224145Y-40085288D01*
X71224138Y-40085301D01*
X71158146Y-40244621D01*
X71158143Y-40244633D01*
X71124500Y-40413766D01*
X71124500Y-41968942D01*
X71104815Y-42035981D01*
X71065598Y-42074479D01*
X71026002Y-42098903D01*
X70931342Y-42157289D01*
X70807289Y-42281342D01*
X70715187Y-42430663D01*
X70715185Y-42430668D01*
X70710180Y-42445772D01*
X70660001Y-42597203D01*
X70660001Y-42597204D01*
X70660000Y-42597204D01*
X70649500Y-42699983D01*
X70649500Y-44300001D01*
X70649501Y-44300018D01*
X70660000Y-44402796D01*
X70660001Y-44402799D01*
X70687815Y-44486734D01*
X70715186Y-44569334D01*
X70807288Y-44718656D01*
X70931344Y-44842712D01*
X71080666Y-44934814D01*
X71247203Y-44989999D01*
X71349991Y-45000500D01*
X72650008Y-45000499D01*
X72752797Y-44989999D01*
X72919334Y-44934814D01*
X73068656Y-44842712D01*
X73192712Y-44718656D01*
X73284814Y-44569334D01*
X73284814Y-44569331D01*
X73288448Y-44563441D01*
X73340395Y-44516716D01*
X73409358Y-44505493D01*
X73473440Y-44533336D01*
X73481668Y-44540856D01*
X73620535Y-44679723D01*
X73620540Y-44679727D01*
X73792442Y-44804620D01*
X73981782Y-44901095D01*
X74183871Y-44966757D01*
X74250000Y-44977231D01*
X74250000Y-43933012D01*
X74307007Y-43965925D01*
X74434174Y-44000000D01*
X74565826Y-44000000D01*
X74692993Y-43965925D01*
X74750000Y-43933012D01*
X74750000Y-44977230D01*
X74816126Y-44966757D01*
X74816129Y-44966757D01*
X75018217Y-44901095D01*
X75207557Y-44804620D01*
X75379459Y-44679727D01*
X75379464Y-44679723D01*
X75529723Y-44529464D01*
X75529727Y-44529459D01*
X75654620Y-44357557D01*
X75751095Y-44168217D01*
X75816757Y-43966130D01*
X75816757Y-43966127D01*
X75850000Y-43756246D01*
X75850000Y-43750000D01*
X74933012Y-43750000D01*
X74965925Y-43692993D01*
X75000000Y-43565826D01*
X75000000Y-43434174D01*
X74965925Y-43307007D01*
X74933012Y-43250000D01*
X75850000Y-43250000D01*
X75850000Y-43243753D01*
X75816757Y-43033872D01*
X75816757Y-43033869D01*
X75751095Y-42831782D01*
X75654620Y-42642442D01*
X75529727Y-42470540D01*
X75529723Y-42470535D01*
X75379464Y-42320276D01*
X75379459Y-42320272D01*
X75207557Y-42195379D01*
X75018215Y-42098903D01*
X74816124Y-42033241D01*
X74750000Y-42022768D01*
X74750000Y-43066988D01*
X74692993Y-43034075D01*
X74565826Y-43000000D01*
X74434174Y-43000000D01*
X74307007Y-43034075D01*
X74250000Y-43066988D01*
X74250000Y-42022768D01*
X74249999Y-42022768D01*
X74183875Y-42033241D01*
X73981784Y-42098903D01*
X73792442Y-42195379D01*
X73620541Y-42320271D01*
X73481668Y-42459144D01*
X73420345Y-42492628D01*
X73350653Y-42487644D01*
X73294720Y-42445772D01*
X73288448Y-42436558D01*
X73192712Y-42281344D01*
X73068657Y-42157289D01*
X73068656Y-42157288D01*
X72934402Y-42074480D01*
X72887679Y-42022533D01*
X72875500Y-41968942D01*
X72875500Y-40914006D01*
X72895185Y-40846967D01*
X72911819Y-40826325D01*
X76326325Y-37411819D01*
X76387648Y-37378334D01*
X76414006Y-37375500D01*
X111825994Y-37375500D01*
X111893033Y-37395185D01*
X111913675Y-37411819D01*
X117048181Y-42546325D01*
X117081666Y-42607648D01*
X117084500Y-42634006D01*
X117084500Y-42709596D01*
X117115661Y-42906340D01*
X117115661Y-42906343D01*
X117177213Y-43095780D01*
X117177215Y-43095783D01*
X117267647Y-43273266D01*
X117384731Y-43434418D01*
X117525582Y-43575269D01*
X117686734Y-43692353D01*
X117765613Y-43732544D01*
X117838722Y-43769795D01*
X117889518Y-43817770D01*
X117906313Y-43885591D01*
X117883776Y-43951726D01*
X117838723Y-43990764D01*
X117686993Y-44068075D01*
X117649135Y-44095580D01*
X117649135Y-44095581D01*
X118212425Y-44658871D01*
X118153147Y-44674755D01*
X118036853Y-44741898D01*
X117941898Y-44836853D01*
X117874755Y-44953147D01*
X117858871Y-45012425D01*
X117295581Y-44449135D01*
X117295580Y-44449135D01*
X117268077Y-44486990D01*
X117177679Y-44664405D01*
X117116147Y-44853777D01*
X117085000Y-45050436D01*
X117085000Y-45249563D01*
X117116147Y-45446222D01*
X117177679Y-45635594D01*
X117268077Y-45813008D01*
X117295580Y-45850863D01*
X117295581Y-45850864D01*
X117858871Y-45287574D01*
X117874755Y-45346853D01*
X117941898Y-45463147D01*
X118036853Y-45558102D01*
X118153147Y-45625245D01*
X118212425Y-45641128D01*
X117649134Y-46204417D01*
X117686994Y-46231924D01*
X117838722Y-46309234D01*
X117889518Y-46357209D01*
X117906313Y-46425030D01*
X117883776Y-46491165D01*
X117838723Y-46530203D01*
X117686735Y-46607645D01*
X117573997Y-46689555D01*
X117525582Y-46724731D01*
X117525580Y-46724733D01*
X117525579Y-46724733D01*
X117384733Y-46865579D01*
X117384733Y-46865580D01*
X117384731Y-46865582D01*
X117345328Y-46919815D01*
X117267647Y-47026733D01*
X117177213Y-47204219D01*
X117115661Y-47393656D01*
X117115661Y-47393659D01*
X117084500Y-47590403D01*
X117084500Y-47789596D01*
X117115661Y-47986340D01*
X117115661Y-47986343D01*
X117177213Y-48175780D01*
X117177215Y-48175783D01*
X117267647Y-48353266D01*
X117384731Y-48514418D01*
X117525582Y-48655269D01*
X117686734Y-48772353D01*
X117747479Y-48803304D01*
X117838172Y-48849515D01*
X117888968Y-48897490D01*
X117905763Y-48965311D01*
X117883225Y-49031446D01*
X117838172Y-49070485D01*
X117686733Y-49147647D01*
X117594790Y-49214447D01*
X117525582Y-49264731D01*
X117525580Y-49264733D01*
X117525579Y-49264733D01*
X117384733Y-49405579D01*
X117384733Y-49405580D01*
X117384731Y-49405582D01*
X117345328Y-49459815D01*
X117267647Y-49566733D01*
X117177213Y-49744219D01*
X117115661Y-49933656D01*
X117115661Y-49933659D01*
X117094829Y-50065186D01*
X117084500Y-50130403D01*
X117084500Y-50329597D01*
X117090929Y-50370185D01*
X117115661Y-50526340D01*
X117115661Y-50526343D01*
X117177213Y-50715780D01*
X117255141Y-50868721D01*
X117267647Y-50893266D01*
X117384731Y-51054418D01*
X117525582Y-51195269D01*
X117686734Y-51312353D01*
X117756453Y-51347877D01*
X117838172Y-51389515D01*
X117888968Y-51437490D01*
X117905763Y-51505311D01*
X117883225Y-51571446D01*
X117838172Y-51610485D01*
X117686733Y-51687647D01*
X117600913Y-51750000D01*
X117525582Y-51804731D01*
X117525580Y-51804733D01*
X117525579Y-51804733D01*
X117384733Y-51945579D01*
X117384733Y-51945580D01*
X117384731Y-51945582D01*
X117369802Y-51966130D01*
X117267647Y-52106733D01*
X117177213Y-52284219D01*
X117115661Y-52473656D01*
X117115661Y-52473659D01*
X117084500Y-52670403D01*
X117084500Y-52869596D01*
X117115661Y-53066340D01*
X117115661Y-53066343D01*
X117177213Y-53255780D01*
X117258085Y-53414500D01*
X117267647Y-53433266D01*
X117384731Y-53594418D01*
X117525582Y-53735269D01*
X117686734Y-53852353D01*
X117756453Y-53887877D01*
X117838172Y-53929515D01*
X117888968Y-53977490D01*
X117905763Y-54045311D01*
X117883225Y-54111446D01*
X117838172Y-54150485D01*
X117686733Y-54227647D01*
X117594790Y-54294447D01*
X117525582Y-54344731D01*
X117525580Y-54344733D01*
X117525579Y-54344733D01*
X117384733Y-54485579D01*
X117384733Y-54485580D01*
X117384731Y-54485582D01*
X117345328Y-54539815D01*
X117267647Y-54646733D01*
X117177213Y-54824219D01*
X117115661Y-55013656D01*
X117115661Y-55013657D01*
X117103981Y-55087401D01*
X117074051Y-55150535D01*
X117014739Y-55187466D01*
X116944877Y-55186468D01*
X116893827Y-55155683D01*
X116411819Y-54673675D01*
X116378334Y-54612352D01*
X116375500Y-54585994D01*
X116375500Y-43913768D01*
X116375499Y-43913766D01*
X116367782Y-43874969D01*
X116341855Y-43744626D01*
X116336851Y-43732546D01*
X116275861Y-43585301D01*
X116275854Y-43585288D01*
X116180046Y-43441902D01*
X116134963Y-43396819D01*
X116058099Y-43319955D01*
X114062959Y-41324815D01*
X112058102Y-39319957D01*
X112058098Y-39319954D01*
X111914711Y-39224145D01*
X111914698Y-39224138D01*
X111755378Y-39158146D01*
X111755366Y-39158143D01*
X111586232Y-39124500D01*
X111586229Y-39124500D01*
X83586229Y-39124500D01*
X83413771Y-39124500D01*
X83413768Y-39124500D01*
X83244633Y-39158143D01*
X83244621Y-39158146D01*
X83085301Y-39224138D01*
X83085288Y-39224145D01*
X82941901Y-39319954D01*
X82941897Y-39319957D01*
X72298673Y-49963181D01*
X72237350Y-49996666D01*
X72210992Y-49999500D01*
X71349998Y-49999500D01*
X71349980Y-49999501D01*
X71247203Y-50010000D01*
X71247200Y-50010001D01*
X71080668Y-50065185D01*
X71080663Y-50065187D01*
X70931342Y-50157289D01*
X70807289Y-50281342D01*
X70715187Y-50430663D01*
X70715185Y-50430668D01*
X70701329Y-50472483D01*
X70660001Y-50597203D01*
X70660001Y-50597204D01*
X70660000Y-50597204D01*
X70649500Y-50699983D01*
X70649500Y-52300001D01*
X70649501Y-52300018D01*
X70660000Y-52402796D01*
X70660001Y-52402799D01*
X70671116Y-52436340D01*
X70715186Y-52569334D01*
X70807288Y-52718656D01*
X70931344Y-52842712D01*
X71065597Y-52925519D01*
X71112321Y-52977465D01*
X71124500Y-53031057D01*
X71124500Y-54585994D01*
X71104815Y-54653033D01*
X71088181Y-54673675D01*
X70441901Y-55319955D01*
X70380927Y-55380929D01*
X70319953Y-55441902D01*
X70224145Y-55585288D01*
X70224138Y-55585301D01*
X70158146Y-55744621D01*
X70158143Y-55744633D01*
X70124500Y-55913766D01*
X70124500Y-58993942D01*
X70104815Y-59060981D01*
X70065598Y-59099479D01*
X70026002Y-59123903D01*
X69931342Y-59182289D01*
X69807289Y-59306342D01*
X69715187Y-59455663D01*
X69715185Y-59455668D01*
X69710325Y-59470334D01*
X69660001Y-59622203D01*
X69660001Y-59622204D01*
X69660000Y-59622204D01*
X69649500Y-59724983D01*
X69649500Y-61275001D01*
X69649501Y-61275018D01*
X69660000Y-61377796D01*
X69660001Y-61377799D01*
X69715185Y-61544331D01*
X69715187Y-61544336D01*
X69726567Y-61562786D01*
X69807288Y-61693656D01*
X69931344Y-61817712D01*
X70065597Y-61900519D01*
X70112321Y-61952465D01*
X70124500Y-62006057D01*
X70124500Y-66993942D01*
X70104815Y-67060981D01*
X70065598Y-67099479D01*
X70026746Y-67123444D01*
X69931342Y-67182289D01*
X69807289Y-67306342D01*
X69715187Y-67455663D01*
X69715185Y-67455668D01*
X69694799Y-67517190D01*
X69660001Y-67622203D01*
X69660001Y-67622204D01*
X69660000Y-67622204D01*
X69649500Y-67724983D01*
X69649500Y-69275001D01*
X69649501Y-69275018D01*
X69660000Y-69377796D01*
X69660001Y-69377799D01*
X69705894Y-69516294D01*
X69715186Y-69544334D01*
X69807288Y-69693656D01*
X69931344Y-69817712D01*
X70065597Y-69900519D01*
X70112321Y-69952465D01*
X70124500Y-70006057D01*
X70124500Y-74993942D01*
X70104815Y-75060981D01*
X70065598Y-75099479D01*
X70026746Y-75123444D01*
X69931342Y-75182289D01*
X69807289Y-75306342D01*
X69715187Y-75455663D01*
X69715185Y-75455668D01*
X69702832Y-75492948D01*
X69660001Y-75622203D01*
X69660001Y-75622204D01*
X69660000Y-75622204D01*
X69649500Y-75724983D01*
X69649500Y-77275001D01*
X69649501Y-77275018D01*
X69660000Y-77377796D01*
X69660001Y-77377799D01*
X69715185Y-77544331D01*
X69715187Y-77544336D01*
X69750069Y-77600888D01*
X69807288Y-77693656D01*
X69931344Y-77817712D01*
X70065597Y-77900519D01*
X70112321Y-77952465D01*
X70124500Y-78006057D01*
X70124500Y-82993942D01*
X70104815Y-83060981D01*
X70065598Y-83099479D01*
X70026746Y-83123444D01*
X69931342Y-83182289D01*
X69807289Y-83306342D01*
X69715187Y-83455663D01*
X69715185Y-83455668D01*
X69705894Y-83483706D01*
X69660001Y-83622203D01*
X69660001Y-83622204D01*
X69660000Y-83622204D01*
X69649500Y-83724983D01*
X69649500Y-85275001D01*
X69649501Y-85275018D01*
X69660000Y-85377796D01*
X69660001Y-85377799D01*
X69701973Y-85504459D01*
X69715186Y-85544334D01*
X69807288Y-85693656D01*
X69931344Y-85817712D01*
X70080666Y-85909814D01*
X70247203Y-85964999D01*
X70349991Y-85975500D01*
X71185993Y-85975499D01*
X71253032Y-85995183D01*
X71273674Y-86011818D01*
X74941897Y-89680042D01*
X74941901Y-89680045D01*
X75085288Y-89775854D01*
X75085301Y-89775861D01*
X75191612Y-89819896D01*
X75244626Y-89841855D01*
X75413766Y-89875499D01*
X75413769Y-89875500D01*
X75413771Y-89875500D01*
X87086231Y-89875500D01*
X87086232Y-89875499D01*
X87255374Y-89841855D01*
X87401461Y-89781344D01*
X87414698Y-89775861D01*
X87414698Y-89775860D01*
X87414705Y-89775858D01*
X87558099Y-89680045D01*
X94180045Y-83058099D01*
X94275858Y-82914705D01*
X94341855Y-82755374D01*
X94375500Y-82586229D01*
X94375500Y-82413771D01*
X94375500Y-56149005D01*
X94395185Y-56081966D01*
X94411814Y-56061329D01*
X98179265Y-52293877D01*
X98240586Y-52260394D01*
X98310278Y-52265378D01*
X98366211Y-52307250D01*
X98389417Y-52362161D01*
X98401148Y-52436223D01*
X98462679Y-52625594D01*
X98553077Y-52803008D01*
X98580580Y-52840863D01*
X98580581Y-52840864D01*
X99143871Y-52277574D01*
X99159755Y-52336853D01*
X99226898Y-52453147D01*
X99321853Y-52548102D01*
X99438147Y-52615245D01*
X99497425Y-52631128D01*
X98934134Y-53194417D01*
X98971994Y-53221924D01*
X99123722Y-53299234D01*
X99174518Y-53347209D01*
X99191313Y-53415030D01*
X99168776Y-53481165D01*
X99123723Y-53520203D01*
X98971735Y-53597645D01*
X98858997Y-53679555D01*
X98810582Y-53714731D01*
X98810580Y-53714733D01*
X98810579Y-53714733D01*
X98669733Y-53855579D01*
X98669733Y-53855580D01*
X98669731Y-53855582D01*
X98633790Y-53905051D01*
X98552647Y-54016733D01*
X98462213Y-54194219D01*
X98400661Y-54383656D01*
X98400661Y-54383659D01*
X98372926Y-54558772D01*
X98369500Y-54580403D01*
X98369500Y-54779597D01*
X98385080Y-54877968D01*
X98400661Y-54976340D01*
X98400661Y-54976343D01*
X98462213Y-55165780D01*
X98552647Y-55343266D01*
X98669731Y-55504418D01*
X98810582Y-55645269D01*
X98971734Y-55762353D01*
X98984619Y-55768918D01*
X99123172Y-55839515D01*
X99173968Y-55887490D01*
X99190763Y-55955311D01*
X99168225Y-56021446D01*
X99123172Y-56060485D01*
X98971733Y-56137647D01*
X98879790Y-56204447D01*
X98810582Y-56254731D01*
X98810580Y-56254733D01*
X98810579Y-56254733D01*
X98669733Y-56395579D01*
X98669733Y-56395580D01*
X98669731Y-56395582D01*
X98635489Y-56442712D01*
X98552647Y-56556733D01*
X98462213Y-56734219D01*
X98400661Y-56923656D01*
X98400661Y-56923659D01*
X98384518Y-57025582D01*
X98369500Y-57120403D01*
X98369500Y-57319597D01*
X98384904Y-57416853D01*
X98400661Y-57516340D01*
X98400661Y-57516343D01*
X98462213Y-57705780D01*
X98534499Y-57847648D01*
X98552647Y-57883266D01*
X98669731Y-58044418D01*
X98810582Y-58185269D01*
X98971734Y-58302353D01*
X98988446Y-58310868D01*
X99123172Y-58379515D01*
X99173968Y-58427490D01*
X99190763Y-58495311D01*
X99168225Y-58561446D01*
X99123172Y-58600485D01*
X98971733Y-58677647D01*
X98879790Y-58744447D01*
X98810582Y-58794731D01*
X98810580Y-58794733D01*
X98810579Y-58794733D01*
X98669733Y-58935579D01*
X98669733Y-58935580D01*
X98669731Y-58935582D01*
X98627330Y-58993942D01*
X98552647Y-59096733D01*
X98462213Y-59274219D01*
X98400661Y-59463656D01*
X98400661Y-59463659D01*
X98384518Y-59565582D01*
X98369500Y-59660403D01*
X98369500Y-59859597D01*
X98376597Y-59904405D01*
X98400661Y-60056340D01*
X98400661Y-60056343D01*
X98462213Y-60245780D01*
X98498327Y-60316657D01*
X98552647Y-60423266D01*
X98669731Y-60584418D01*
X98810582Y-60725269D01*
X98971734Y-60842353D01*
X99016662Y-60865245D01*
X99123172Y-60919515D01*
X99173968Y-60967490D01*
X99190763Y-61035311D01*
X99168225Y-61101446D01*
X99123172Y-61140485D01*
X98971733Y-61217647D01*
X98892770Y-61275018D01*
X98810582Y-61334731D01*
X98810580Y-61334733D01*
X98810579Y-61334733D01*
X98669733Y-61475579D01*
X98669733Y-61475580D01*
X98669731Y-61475582D01*
X98665845Y-61480931D01*
X98552647Y-61636733D01*
X98462213Y-61814219D01*
X98400661Y-62003656D01*
X98400661Y-62003659D01*
X98369500Y-62200403D01*
X98369500Y-62399596D01*
X98400661Y-62596340D01*
X98400661Y-62596343D01*
X98462213Y-62785780D01*
X98462215Y-62785783D01*
X98552647Y-62963266D01*
X98669731Y-63124418D01*
X98810582Y-63265269D01*
X98971734Y-63382353D01*
X99041453Y-63417877D01*
X99123172Y-63459515D01*
X99173968Y-63507490D01*
X99190763Y-63575311D01*
X99168225Y-63641446D01*
X99123172Y-63680485D01*
X98971733Y-63757647D01*
X98943248Y-63778343D01*
X98810582Y-63874731D01*
X98810580Y-63874733D01*
X98810579Y-63874733D01*
X98669733Y-64015579D01*
X98669733Y-64015580D01*
X98669731Y-64015582D01*
X98620784Y-64082952D01*
X98552647Y-64176733D01*
X98462213Y-64354219D01*
X98400661Y-64543656D01*
X98400661Y-64543659D01*
X98369500Y-64740403D01*
X98369500Y-64939596D01*
X98400661Y-65136340D01*
X98400661Y-65136343D01*
X98462213Y-65325780D01*
X98552282Y-65502550D01*
X98552647Y-65503266D01*
X98669731Y-65664418D01*
X98810582Y-65805269D01*
X98971734Y-65922353D01*
X99041453Y-65957877D01*
X99123172Y-65999515D01*
X99173968Y-66047490D01*
X99190763Y-66115311D01*
X99168225Y-66181446D01*
X99123172Y-66220485D01*
X98971733Y-66297647D01*
X98879790Y-66364447D01*
X98810582Y-66414731D01*
X98810580Y-66414733D01*
X98810579Y-66414733D01*
X98669733Y-66555579D01*
X98669733Y-66555580D01*
X98669731Y-66555582D01*
X98640523Y-66595783D01*
X98552647Y-66716733D01*
X98462213Y-66894219D01*
X98400661Y-67083656D01*
X98400661Y-67083659D01*
X98369500Y-67280403D01*
X98369500Y-67479596D01*
X98400661Y-67676340D01*
X98400661Y-67676343D01*
X98462213Y-67865780D01*
X98523973Y-67986990D01*
X98552647Y-68043266D01*
X98669731Y-68204418D01*
X98810582Y-68345269D01*
X98971734Y-68462353D01*
X99041453Y-68497877D01*
X99123172Y-68539515D01*
X99173968Y-68587490D01*
X99190763Y-68655311D01*
X99168225Y-68721446D01*
X99123172Y-68760485D01*
X98971733Y-68837647D01*
X98913309Y-68880095D01*
X98810582Y-68954731D01*
X98810580Y-68954733D01*
X98810579Y-68954733D01*
X98669733Y-69095579D01*
X98669733Y-69095580D01*
X98669731Y-69095582D01*
X98619447Y-69164790D01*
X98552647Y-69256733D01*
X98462213Y-69434219D01*
X98400661Y-69623656D01*
X98400661Y-69623659D01*
X98387870Y-69704417D01*
X98369500Y-69820403D01*
X98369500Y-70019597D01*
X98383446Y-70107647D01*
X98400661Y-70216340D01*
X98400661Y-70216343D01*
X98462213Y-70405780D01*
X98531712Y-70542179D01*
X98552647Y-70583266D01*
X98669731Y-70744418D01*
X98810582Y-70885269D01*
X98971734Y-71002353D01*
X99041453Y-71037877D01*
X99123172Y-71079515D01*
X99173968Y-71127490D01*
X99190763Y-71195311D01*
X99168225Y-71261446D01*
X99123172Y-71300485D01*
X98971733Y-71377647D01*
X98879790Y-71444447D01*
X98810582Y-71494731D01*
X98810580Y-71494733D01*
X98810579Y-71494733D01*
X98669733Y-71635579D01*
X98669733Y-71635580D01*
X98669731Y-71635582D01*
X98640523Y-71675783D01*
X98552647Y-71796733D01*
X98462213Y-71974219D01*
X98400661Y-72163656D01*
X98400661Y-72163659D01*
X98369500Y-72360403D01*
X98369500Y-72559597D01*
X98373909Y-72587437D01*
X98364953Y-72656730D01*
X98339116Y-72694514D01*
X96917048Y-74116583D01*
X96897272Y-74146180D01*
X96877628Y-74175582D01*
X96834919Y-74239499D01*
X96834912Y-74239511D01*
X96778343Y-74376082D01*
X96778340Y-74376092D01*
X96749500Y-74521079D01*
X96749500Y-74521082D01*
X96749500Y-86073918D01*
X96749500Y-86073920D01*
X96749499Y-86073920D01*
X96778340Y-86218907D01*
X96778343Y-86218917D01*
X96834913Y-86355490D01*
X96834914Y-86355492D01*
X96860871Y-86394339D01*
X96860872Y-86394341D01*
X96917043Y-86478410D01*
X96917047Y-86478415D01*
X102021584Y-91582952D01*
X102021589Y-91582956D01*
X102068615Y-91614377D01*
X102068617Y-91614378D01*
X102068619Y-91614379D01*
X102144505Y-91665084D01*
X102144506Y-91665084D01*
X102144507Y-91665085D01*
X102281082Y-91721656D01*
X102281087Y-91721658D01*
X102281091Y-91721658D01*
X102281092Y-91721659D01*
X102426079Y-91750500D01*
X102426082Y-91750500D01*
X102426083Y-91750500D01*
X102573918Y-91750500D01*
X109214281Y-91750500D01*
X109281320Y-91770185D01*
X109324765Y-91818205D01*
X109344947Y-91857814D01*
X109344948Y-91857815D01*
X109469890Y-92029786D01*
X109620213Y-92180109D01*
X109792179Y-92305048D01*
X109792181Y-92305049D01*
X109792184Y-92305051D01*
X109981588Y-92401557D01*
X110183757Y-92467246D01*
X110393713Y-92500500D01*
X110393714Y-92500500D01*
X110606286Y-92500500D01*
X110606287Y-92500500D01*
X110816243Y-92467246D01*
X111018412Y-92401557D01*
X111207816Y-92305051D01*
X111379792Y-92180104D01*
X111518604Y-92041291D01*
X111579923Y-92007809D01*
X111649615Y-92012793D01*
X111705549Y-92054664D01*
X111711821Y-92063878D01*
X111715185Y-92069333D01*
X111715186Y-92069334D01*
X111807288Y-92218656D01*
X111931344Y-92342712D01*
X112080666Y-92434814D01*
X112247203Y-92489999D01*
X112349991Y-92500500D01*
X113650008Y-92500499D01*
X113752797Y-92489999D01*
X113919334Y-92434814D01*
X114068656Y-92342712D01*
X114192712Y-92218656D01*
X114284814Y-92069334D01*
X114321324Y-91959155D01*
X115897285Y-91959155D01*
X127995724Y-91959155D01*
X127995724Y-90865186D01*
X130599500Y-90865186D01*
X130599500Y-91134813D01*
X130629686Y-91402719D01*
X130629688Y-91402731D01*
X130689684Y-91665594D01*
X130689687Y-91665602D01*
X130778734Y-91920082D01*
X130895714Y-92162994D01*
X130895716Y-92162997D01*
X131039162Y-92391289D01*
X131207266Y-92602085D01*
X131397915Y-92792734D01*
X131608711Y-92960838D01*
X131837003Y-93104284D01*
X132079921Y-93221267D01*
X132271049Y-93288145D01*
X132334397Y-93310312D01*
X132334405Y-93310315D01*
X132334408Y-93310315D01*
X132334409Y-93310316D01*
X132597268Y-93370312D01*
X132865187Y-93400499D01*
X132865188Y-93400500D01*
X132865191Y-93400500D01*
X133134812Y-93400500D01*
X133134812Y-93400499D01*
X133402732Y-93370312D01*
X133665591Y-93310316D01*
X133920079Y-93221267D01*
X134162997Y-93104284D01*
X134391289Y-92960838D01*
X134602085Y-92792734D01*
X134792734Y-92602085D01*
X134960838Y-92391289D01*
X135104284Y-92162997D01*
X135221267Y-91920079D01*
X135310316Y-91665591D01*
X135370312Y-91402732D01*
X135400500Y-91134809D01*
X135400500Y-90865191D01*
X135370312Y-90597268D01*
X135310316Y-90334409D01*
X135221267Y-90079921D01*
X135104284Y-89837003D01*
X134960838Y-89608711D01*
X134792734Y-89397915D01*
X134602085Y-89207266D01*
X134391289Y-89039162D01*
X134162997Y-88895716D01*
X134162994Y-88895714D01*
X133920082Y-88778734D01*
X133665602Y-88689687D01*
X133665594Y-88689684D01*
X133467619Y-88644498D01*
X133402732Y-88629688D01*
X133402728Y-88629687D01*
X133402719Y-88629686D01*
X133134813Y-88599500D01*
X133134809Y-88599500D01*
X132865191Y-88599500D01*
X132865186Y-88599500D01*
X132597280Y-88629686D01*
X132597268Y-88629688D01*
X132334405Y-88689684D01*
X132334397Y-88689687D01*
X132079917Y-88778734D01*
X131837005Y-88895714D01*
X131608712Y-89039161D01*
X131397915Y-89207265D01*
X131207265Y-89397915D01*
X131039161Y-89608712D01*
X130895714Y-89837005D01*
X130778734Y-90079917D01*
X130689687Y-90334397D01*
X130689684Y-90334405D01*
X130629688Y-90597268D01*
X130629686Y-90597280D01*
X130599500Y-90865186D01*
X127995724Y-90865186D01*
X127995724Y-89143603D01*
X115897285Y-89143603D01*
X115897285Y-91959155D01*
X114321324Y-91959155D01*
X114339999Y-91902797D01*
X114350500Y-91800009D01*
X114350499Y-90199992D01*
X114339999Y-90097203D01*
X114284814Y-89930666D01*
X114192712Y-89781344D01*
X114068656Y-89657288D01*
X113919334Y-89565186D01*
X113835495Y-89537404D01*
X113778051Y-89497632D01*
X113751228Y-89433116D01*
X113750500Y-89419699D01*
X113750500Y-88926079D01*
X113721659Y-88781092D01*
X113721658Y-88781091D01*
X113721658Y-88781087D01*
X113683798Y-88689684D01*
X113665087Y-88644511D01*
X113665080Y-88644498D01*
X113582952Y-88521585D01*
X113582951Y-88521584D01*
X113478416Y-88417049D01*
X112267695Y-87206328D01*
X110046207Y-84984839D01*
X109786819Y-84725451D01*
X109753334Y-84664128D01*
X109750500Y-84637770D01*
X109750500Y-79014366D01*
X110157259Y-79014366D01*
X115456328Y-79014366D01*
X115456328Y-71128489D01*
X110157259Y-71128489D01*
X110157259Y-79014366D01*
X109750500Y-79014366D01*
X109750500Y-66010403D01*
X117084500Y-66010403D01*
X117084500Y-66209597D01*
X117087524Y-66228687D01*
X117115661Y-66406340D01*
X117115661Y-66406343D01*
X117177213Y-66595780D01*
X117267647Y-66773266D01*
X117384731Y-66934418D01*
X117525582Y-67075269D01*
X117686734Y-67192353D01*
X117765613Y-67232544D01*
X117838722Y-67269795D01*
X117889518Y-67317770D01*
X117906313Y-67385591D01*
X117883776Y-67451726D01*
X117838723Y-67490764D01*
X117686993Y-67568075D01*
X117649135Y-67595580D01*
X117649135Y-67595581D01*
X118212425Y-68158871D01*
X118153147Y-68174755D01*
X118036853Y-68241898D01*
X117941898Y-68336853D01*
X117874755Y-68453147D01*
X117858871Y-68512425D01*
X117295581Y-67949135D01*
X117295580Y-67949135D01*
X117268077Y-67986990D01*
X117177679Y-68164405D01*
X117116147Y-68353777D01*
X117085000Y-68550436D01*
X117085000Y-68749563D01*
X117116147Y-68946222D01*
X117177679Y-69135594D01*
X117268077Y-69313008D01*
X117295580Y-69350863D01*
X117295581Y-69350864D01*
X117858871Y-68787574D01*
X117874755Y-68846853D01*
X117941898Y-68963147D01*
X118036853Y-69058102D01*
X118153147Y-69125245D01*
X118212425Y-69141128D01*
X117649134Y-69704417D01*
X117686994Y-69731924D01*
X117838722Y-69809234D01*
X117889518Y-69857209D01*
X117906313Y-69925030D01*
X117883776Y-69991165D01*
X117838723Y-70030203D01*
X117686735Y-70107645D01*
X117573997Y-70189555D01*
X117525582Y-70224731D01*
X117525580Y-70224733D01*
X117525579Y-70224733D01*
X117384733Y-70365579D01*
X117384733Y-70365580D01*
X117384731Y-70365582D01*
X117355523Y-70405783D01*
X117267647Y-70526733D01*
X117177213Y-70704219D01*
X117115661Y-70893656D01*
X117115661Y-70893659D01*
X117115661Y-70893661D01*
X117084500Y-71090403D01*
X117084500Y-71289597D01*
X117095063Y-71356286D01*
X117115661Y-71486340D01*
X117115661Y-71486343D01*
X117177213Y-71675780D01*
X117267647Y-71853266D01*
X117384731Y-72014418D01*
X117525582Y-72155269D01*
X117686734Y-72272353D01*
X117756453Y-72307877D01*
X117838172Y-72349515D01*
X117888968Y-72397490D01*
X117905763Y-72465311D01*
X117883225Y-72531446D01*
X117838172Y-72570485D01*
X117686733Y-72647647D01*
X117622227Y-72694514D01*
X117525582Y-72764731D01*
X117525580Y-72764733D01*
X117525579Y-72764733D01*
X117384733Y-72905579D01*
X117384733Y-72905580D01*
X117384731Y-72905582D01*
X117355523Y-72945783D01*
X117267647Y-73066733D01*
X117177213Y-73244219D01*
X117115661Y-73433656D01*
X117115661Y-73433659D01*
X117115645Y-73433760D01*
X117084500Y-73630403D01*
X117084500Y-73829597D01*
X117088727Y-73856286D01*
X117115661Y-74026340D01*
X117115661Y-74026343D01*
X117177213Y-74215780D01*
X117258891Y-74376082D01*
X117267647Y-74393266D01*
X117384731Y-74554418D01*
X117525582Y-74695269D01*
X117686734Y-74812353D01*
X117756453Y-74847877D01*
X117838172Y-74889515D01*
X117888968Y-74937490D01*
X117905763Y-75005311D01*
X117883225Y-75071446D01*
X117838172Y-75110485D01*
X117686733Y-75187647D01*
X117642347Y-75219896D01*
X117525582Y-75304731D01*
X117525580Y-75304733D01*
X117525579Y-75304733D01*
X117384733Y-75445579D01*
X117384733Y-75445580D01*
X117384731Y-75445582D01*
X117355523Y-75485783D01*
X117267647Y-75606733D01*
X117177213Y-75784219D01*
X117115661Y-75973656D01*
X117115661Y-75973659D01*
X117102403Y-76057370D01*
X117084500Y-76170403D01*
X117084500Y-76369597D01*
X117093673Y-76427511D01*
X117115661Y-76566340D01*
X117115661Y-76566343D01*
X117177213Y-76755780D01*
X117240555Y-76880095D01*
X117267647Y-76933266D01*
X117384731Y-77094418D01*
X117525582Y-77235269D01*
X117686734Y-77352353D01*
X117736669Y-77377796D01*
X117838172Y-77429515D01*
X117888968Y-77477490D01*
X117905763Y-77545311D01*
X117883225Y-77611446D01*
X117838172Y-77650485D01*
X117686733Y-77727647D01*
X117622227Y-77774514D01*
X117525582Y-77844731D01*
X117525580Y-77844733D01*
X117525579Y-77844733D01*
X117384733Y-77985579D01*
X117384733Y-77985580D01*
X117384731Y-77985582D01*
X117350241Y-78033053D01*
X117267647Y-78146733D01*
X117177213Y-78324219D01*
X117115661Y-78513656D01*
X117115661Y-78513659D01*
X117115661Y-78513661D01*
X117084500Y-78710403D01*
X117084500Y-78909597D01*
X117098446Y-78997647D01*
X117115661Y-79106340D01*
X117115661Y-79106343D01*
X117177213Y-79295780D01*
X117267647Y-79473266D01*
X117384731Y-79634418D01*
X117525582Y-79775269D01*
X117686734Y-79892353D01*
X117756453Y-79927877D01*
X117838172Y-79969515D01*
X117888968Y-80017490D01*
X117905763Y-80085311D01*
X117883225Y-80151446D01*
X117838172Y-80190485D01*
X117686733Y-80267647D01*
X117633439Y-80306368D01*
X117525582Y-80384731D01*
X117525580Y-80384733D01*
X117525579Y-80384733D01*
X117384733Y-80525579D01*
X117384733Y-80525580D01*
X117384731Y-80525582D01*
X117355523Y-80565783D01*
X117267647Y-80686733D01*
X117177213Y-80864219D01*
X117115661Y-81053656D01*
X117115661Y-81053659D01*
X117115661Y-81053661D01*
X117084500Y-81250403D01*
X117084500Y-81449597D01*
X117098446Y-81537647D01*
X117115661Y-81646340D01*
X117115661Y-81646343D01*
X117177213Y-81835780D01*
X117250028Y-81978687D01*
X117267647Y-82013266D01*
X117384731Y-82174418D01*
X117525582Y-82315269D01*
X117686734Y-82432353D01*
X117776909Y-82478299D01*
X117838722Y-82509795D01*
X117889518Y-82557770D01*
X117906313Y-82625591D01*
X117883776Y-82691726D01*
X117838723Y-82730764D01*
X117686993Y-82808075D01*
X117649135Y-82835580D01*
X117649135Y-82835581D01*
X118212425Y-83398871D01*
X118153147Y-83414755D01*
X118036853Y-83481898D01*
X117941898Y-83576853D01*
X117874755Y-83693147D01*
X117858871Y-83752425D01*
X117295581Y-83189135D01*
X117295580Y-83189135D01*
X117268077Y-83226990D01*
X117177679Y-83404405D01*
X117116147Y-83593777D01*
X117085000Y-83790436D01*
X117085000Y-83989563D01*
X117116147Y-84186222D01*
X117177679Y-84375594D01*
X117268077Y-84553008D01*
X117295580Y-84590863D01*
X117295581Y-84590864D01*
X117858871Y-84027574D01*
X117874755Y-84086853D01*
X117941898Y-84203147D01*
X118036853Y-84298102D01*
X118153147Y-84365245D01*
X118212425Y-84381128D01*
X117649134Y-84944417D01*
X117686994Y-84971924D01*
X117864405Y-85062320D01*
X118053777Y-85123852D01*
X118250437Y-85155000D01*
X118449563Y-85155000D01*
X118646222Y-85123852D01*
X118835594Y-85062320D01*
X119013005Y-84971924D01*
X119050863Y-84944418D01*
X119050863Y-84944417D01*
X118780588Y-84674142D01*
X129143603Y-84674142D01*
X132456328Y-84674142D01*
X132456328Y-65502550D01*
X129143603Y-65502550D01*
X129143603Y-84674142D01*
X118780588Y-84674142D01*
X118487574Y-84381128D01*
X118546853Y-84365245D01*
X118663147Y-84298102D01*
X118758102Y-84203147D01*
X118825245Y-84086853D01*
X118841128Y-84027574D01*
X119404417Y-84590863D01*
X119404418Y-84590863D01*
X119431924Y-84553005D01*
X119522320Y-84375594D01*
X119583852Y-84186222D01*
X119615000Y-83989563D01*
X119615000Y-83790436D01*
X119583852Y-83593777D01*
X119522320Y-83404405D01*
X119431924Y-83226994D01*
X119404417Y-83189135D01*
X119404417Y-83189134D01*
X118841128Y-83752424D01*
X118825245Y-83693147D01*
X118758102Y-83576853D01*
X118663147Y-83481898D01*
X118546853Y-83414755D01*
X118487574Y-83398871D01*
X119050864Y-82835581D01*
X119050863Y-82835580D01*
X119013008Y-82808077D01*
X118861277Y-82730765D01*
X118810481Y-82682790D01*
X118793686Y-82614969D01*
X118816224Y-82548834D01*
X118861277Y-82509795D01*
X118861827Y-82509515D01*
X119013266Y-82432353D01*
X119174418Y-82315269D01*
X119315269Y-82174418D01*
X119432353Y-82013266D01*
X119522785Y-81835783D01*
X119554834Y-81737147D01*
X119584338Y-81646343D01*
X119584338Y-81646342D01*
X119584339Y-81646339D01*
X119615500Y-81449597D01*
X119615500Y-81250403D01*
X119584339Y-81053661D01*
X119584338Y-81053657D01*
X119584338Y-81053656D01*
X119522786Y-80864219D01*
X119432352Y-80686733D01*
X119408854Y-80654391D01*
X119315269Y-80525582D01*
X119174418Y-80384731D01*
X119013266Y-80267647D01*
X118861827Y-80190485D01*
X118811031Y-80142510D01*
X118794236Y-80074689D01*
X118816773Y-80008554D01*
X118861827Y-79969515D01*
X118871116Y-79964781D01*
X119013266Y-79892353D01*
X119174418Y-79775269D01*
X119315269Y-79634418D01*
X119331838Y-79611613D01*
X119387169Y-79568948D01*
X119432155Y-79560500D01*
X123464581Y-79560500D01*
X123531620Y-79580185D01*
X123577375Y-79632989D01*
X123582284Y-79645487D01*
X123590186Y-79669334D01*
X123682288Y-79818656D01*
X123806344Y-79942712D01*
X123955666Y-80034814D01*
X124122203Y-80089999D01*
X124224991Y-80100500D01*
X125775008Y-80100499D01*
X125877797Y-80089999D01*
X126044334Y-80034814D01*
X126193656Y-79942712D01*
X126317712Y-79818656D01*
X126409814Y-79669334D01*
X126464999Y-79502797D01*
X126475500Y-79400009D01*
X126475499Y-78099992D01*
X126467918Y-78025783D01*
X126464999Y-77997203D01*
X126464998Y-77997200D01*
X126461148Y-77985582D01*
X126409814Y-77830666D01*
X126317712Y-77681344D01*
X126193656Y-77557288D01*
X126044334Y-77465186D01*
X126044333Y-77465185D01*
X126038878Y-77461821D01*
X125992154Y-77409873D01*
X125980931Y-77340910D01*
X126008775Y-77276828D01*
X126016272Y-77268623D01*
X126155104Y-77129792D01*
X126280051Y-76957816D01*
X126376557Y-76768412D01*
X126442246Y-76566243D01*
X126475500Y-76356287D01*
X126475500Y-76143713D01*
X126442246Y-75933757D01*
X126376557Y-75731588D01*
X126280051Y-75542184D01*
X126280049Y-75542181D01*
X126280048Y-75542179D01*
X126155109Y-75370213D01*
X126004792Y-75219896D01*
X126004784Y-75219890D01*
X125840204Y-75100316D01*
X125797540Y-75044989D01*
X125791561Y-74975376D01*
X125824166Y-74913580D01*
X125840199Y-74899686D01*
X126004792Y-74780104D01*
X126155104Y-74629792D01*
X126155106Y-74629788D01*
X126155109Y-74629786D01*
X126280048Y-74457820D01*
X126280047Y-74457820D01*
X126280051Y-74457816D01*
X126376557Y-74268412D01*
X126442246Y-74066243D01*
X126475500Y-73856287D01*
X126475500Y-73643713D01*
X126442246Y-73433757D01*
X126376557Y-73231588D01*
X126280051Y-73042184D01*
X126280049Y-73042181D01*
X126280048Y-73042179D01*
X126155109Y-72870213D01*
X126004792Y-72719896D01*
X125969856Y-72694514D01*
X125840204Y-72600316D01*
X125797540Y-72544989D01*
X125791561Y-72475376D01*
X125824166Y-72413580D01*
X125840199Y-72399686D01*
X126004792Y-72280104D01*
X126155104Y-72129792D01*
X126155106Y-72129788D01*
X126155109Y-72129786D01*
X126280048Y-71957820D01*
X126280047Y-71957820D01*
X126280051Y-71957816D01*
X126376557Y-71768412D01*
X126442246Y-71566243D01*
X126475500Y-71356287D01*
X126475500Y-71143713D01*
X126442246Y-70933757D01*
X126376557Y-70731588D01*
X126280051Y-70542184D01*
X126280049Y-70542181D01*
X126280048Y-70542179D01*
X126155109Y-70370213D01*
X126004786Y-70219890D01*
X125832820Y-70094951D01*
X125643414Y-69998444D01*
X125643413Y-69998443D01*
X125643412Y-69998443D01*
X125441243Y-69932754D01*
X125441241Y-69932753D01*
X125441240Y-69932753D01*
X125279957Y-69907208D01*
X125231287Y-69899500D01*
X124768713Y-69899500D01*
X124720042Y-69907208D01*
X124558760Y-69932753D01*
X124558757Y-69932754D01*
X124378123Y-69991446D01*
X124356585Y-69998444D01*
X124167179Y-70094951D01*
X123995213Y-70219890D01*
X123844892Y-70370211D01*
X123788097Y-70448385D01*
X123732767Y-70491051D01*
X123687779Y-70499500D01*
X119475747Y-70499500D01*
X119408708Y-70479815D01*
X119375429Y-70448385D01*
X119344475Y-70405780D01*
X119315269Y-70365582D01*
X119174418Y-70224731D01*
X119013266Y-70107647D01*
X118988345Y-70094949D01*
X118861277Y-70030204D01*
X118810481Y-69982229D01*
X118793686Y-69914408D01*
X118816224Y-69848273D01*
X118861277Y-69809234D01*
X119013005Y-69731924D01*
X119050863Y-69704418D01*
X119050863Y-69704417D01*
X118487574Y-69141128D01*
X118546853Y-69125245D01*
X118663147Y-69058102D01*
X118758102Y-68963147D01*
X118825245Y-68846853D01*
X118841128Y-68787574D01*
X119404417Y-69350863D01*
X119404418Y-69350863D01*
X119431924Y-69313005D01*
X119522320Y-69135594D01*
X119583852Y-68946222D01*
X119615000Y-68749563D01*
X119615000Y-68550436D01*
X119583852Y-68353777D01*
X119522320Y-68164405D01*
X119431924Y-67986994D01*
X119404417Y-67949135D01*
X119404417Y-67949134D01*
X118841128Y-68512424D01*
X118825245Y-68453147D01*
X118758102Y-68336853D01*
X118663147Y-68241898D01*
X118546853Y-68174755D01*
X118487574Y-68158871D01*
X119050864Y-67595581D01*
X119050863Y-67595580D01*
X119013008Y-67568077D01*
X118861277Y-67490765D01*
X118810481Y-67442790D01*
X118793686Y-67374969D01*
X118816224Y-67308834D01*
X118861277Y-67269795D01*
X119013266Y-67192353D01*
X119174418Y-67075269D01*
X119315269Y-66934418D01*
X119432353Y-66773266D01*
X119522785Y-66595783D01*
X119581612Y-66414733D01*
X119584338Y-66406343D01*
X119584338Y-66406342D01*
X119584339Y-66406339D01*
X119615500Y-66209597D01*
X119615500Y-66010403D01*
X119584339Y-65813661D01*
X119584338Y-65813657D01*
X119584338Y-65813656D01*
X119522786Y-65624219D01*
X119463306Y-65507483D01*
X119461157Y-65503266D01*
X119432353Y-65446734D01*
X119315269Y-65285582D01*
X119174418Y-65144731D01*
X119013266Y-65027647D01*
X118934379Y-64987452D01*
X118835780Y-64937213D01*
X118646342Y-64875661D01*
X118498782Y-64852290D01*
X118449597Y-64844500D01*
X118250403Y-64844500D01*
X118184822Y-64854887D01*
X118053659Y-64875661D01*
X118053656Y-64875661D01*
X117864219Y-64937213D01*
X117686733Y-65027647D01*
X117594790Y-65094447D01*
X117525582Y-65144731D01*
X117525580Y-65144733D01*
X117525579Y-65144733D01*
X117384733Y-65285579D01*
X117384733Y-65285580D01*
X117384731Y-65285582D01*
X117355523Y-65325783D01*
X117267647Y-65446733D01*
X117177213Y-65624219D01*
X117115661Y-65813656D01*
X117115661Y-65813659D01*
X117098446Y-65922352D01*
X117084500Y-66010403D01*
X109750500Y-66010403D01*
X109750500Y-65426079D01*
X109721659Y-65281092D01*
X109721658Y-65281091D01*
X109721658Y-65281087D01*
X109721656Y-65281082D01*
X109665087Y-65144511D01*
X109665080Y-65144498D01*
X109582952Y-65021585D01*
X109548819Y-64987452D01*
X109478416Y-64917049D01*
X109105023Y-64543656D01*
X107478421Y-62917052D01*
X107478414Y-62917046D01*
X107404729Y-62867812D01*
X107404729Y-62867813D01*
X107355491Y-62834913D01*
X107218917Y-62778343D01*
X107218907Y-62778340D01*
X107073920Y-62749500D01*
X107073918Y-62749500D01*
X103737230Y-62749500D01*
X103670191Y-62729815D01*
X103649549Y-62713181D01*
X100930882Y-59994514D01*
X100897397Y-59933191D01*
X100896090Y-59887439D01*
X100900500Y-59859597D01*
X100900500Y-59660403D01*
X100869339Y-59463661D01*
X100869338Y-59463657D01*
X100869338Y-59463656D01*
X100807786Y-59274219D01*
X100785645Y-59230765D01*
X100717353Y-59096734D01*
X100600269Y-58935582D01*
X100459418Y-58794731D01*
X100298266Y-58677647D01*
X100146827Y-58600485D01*
X100096031Y-58552510D01*
X100079236Y-58484689D01*
X100101773Y-58418554D01*
X100146827Y-58379515D01*
X100156116Y-58374781D01*
X100298266Y-58302353D01*
X100459418Y-58185269D01*
X100600269Y-58044418D01*
X100717353Y-57883266D01*
X100807785Y-57705783D01*
X100811209Y-57695245D01*
X100869338Y-57516343D01*
X100869338Y-57516342D01*
X100869339Y-57516339D01*
X100900500Y-57319597D01*
X100900500Y-57120403D01*
X100869339Y-56923661D01*
X100869338Y-56923657D01*
X100869338Y-56923656D01*
X100807786Y-56734219D01*
X100761058Y-56642510D01*
X100717353Y-56556734D01*
X100600269Y-56395582D01*
X100459418Y-56254731D01*
X100298266Y-56137647D01*
X100289124Y-56132989D01*
X100146827Y-56060485D01*
X100096031Y-56012510D01*
X100079236Y-55944689D01*
X100101773Y-55878554D01*
X100146827Y-55839515D01*
X100192797Y-55816092D01*
X100298266Y-55762353D01*
X100459418Y-55645269D01*
X100600269Y-55504418D01*
X100717353Y-55343266D01*
X100807785Y-55165783D01*
X100843795Y-55054955D01*
X100869338Y-54976343D01*
X100869338Y-54976342D01*
X100869339Y-54976339D01*
X100900500Y-54779597D01*
X100900500Y-54580403D01*
X100869339Y-54383661D01*
X100869338Y-54383657D01*
X100869338Y-54383656D01*
X100807786Y-54194219D01*
X100761058Y-54102510D01*
X100717353Y-54016734D01*
X100600269Y-53855582D01*
X100459418Y-53714731D01*
X100298266Y-53597647D01*
X100291915Y-53594411D01*
X100146277Y-53520204D01*
X100095481Y-53472229D01*
X100078686Y-53404408D01*
X100101224Y-53338273D01*
X100146277Y-53299234D01*
X100298005Y-53221924D01*
X100335863Y-53194418D01*
X100335863Y-53194417D01*
X99772574Y-52631128D01*
X99831853Y-52615245D01*
X99948147Y-52548102D01*
X100043102Y-52453147D01*
X100110245Y-52336853D01*
X100126128Y-52277574D01*
X100689417Y-52840863D01*
X100689418Y-52840863D01*
X100716924Y-52803005D01*
X100807320Y-52625594D01*
X100868852Y-52436222D01*
X100900000Y-52239563D01*
X100900000Y-52040436D01*
X100868852Y-51843777D01*
X100807320Y-51654405D01*
X100716924Y-51476994D01*
X100689417Y-51439135D01*
X100689417Y-51439134D01*
X100126128Y-52002424D01*
X100110245Y-51943147D01*
X100043102Y-51826853D01*
X99948147Y-51731898D01*
X99831853Y-51664755D01*
X99772574Y-51648871D01*
X100335864Y-51085581D01*
X100335572Y-51081875D01*
X100299030Y-51034487D01*
X100293051Y-50964874D01*
X100325657Y-50903079D01*
X100386496Y-50868721D01*
X100414581Y-50865499D01*
X100447871Y-50865499D01*
X100447872Y-50865499D01*
X100507483Y-50859091D01*
X100642331Y-50808796D01*
X100757546Y-50722546D01*
X100843796Y-50607331D01*
X100894091Y-50472483D01*
X100900500Y-50412873D01*
X100900499Y-48787128D01*
X100894091Y-48727517D01*
X100867144Y-48655269D01*
X100843797Y-48592671D01*
X100843793Y-48592664D01*
X100757547Y-48477455D01*
X100757544Y-48477452D01*
X100642335Y-48391206D01*
X100642328Y-48391202D01*
X100507482Y-48340908D01*
X100507483Y-48340908D01*
X100447883Y-48334501D01*
X100447881Y-48334500D01*
X100447873Y-48334500D01*
X100447864Y-48334500D01*
X98822129Y-48334500D01*
X98822123Y-48334501D01*
X98762516Y-48340908D01*
X98627671Y-48391202D01*
X98627664Y-48391206D01*
X98512455Y-48477452D01*
X98512452Y-48477455D01*
X98426206Y-48592664D01*
X98426202Y-48592671D01*
X98375908Y-48727517D01*
X98369501Y-48787116D01*
X98369501Y-48787123D01*
X98369500Y-48787135D01*
X98369500Y-49575993D01*
X98349815Y-49643032D01*
X98333181Y-49663674D01*
X95634695Y-52362161D01*
X92941901Y-55054955D01*
X92910627Y-55086229D01*
X92819953Y-55176902D01*
X92724145Y-55320288D01*
X92724138Y-55320301D01*
X92658146Y-55479621D01*
X92658143Y-55479633D01*
X92624500Y-55648766D01*
X92624500Y-82085994D01*
X92604815Y-82153033D01*
X92588181Y-82173675D01*
X86673675Y-88088181D01*
X86612352Y-88121666D01*
X86585994Y-88124500D01*
X75914006Y-88124500D01*
X75846967Y-88104815D01*
X75826325Y-88088181D01*
X73856788Y-86118644D01*
X73823303Y-86057321D01*
X73828287Y-85987629D01*
X73870159Y-85931696D01*
X73906145Y-85913034D01*
X74018412Y-85876557D01*
X74207816Y-85780051D01*
X74229789Y-85764086D01*
X74379786Y-85655109D01*
X74379788Y-85655106D01*
X74379792Y-85655104D01*
X74530104Y-85504792D01*
X74649991Y-85339779D01*
X74705320Y-85297115D01*
X74774933Y-85291136D01*
X74836729Y-85323741D01*
X74850627Y-85339781D01*
X74970272Y-85504459D01*
X74970276Y-85504464D01*
X75120535Y-85654723D01*
X75120540Y-85654727D01*
X75292442Y-85779620D01*
X75481782Y-85876095D01*
X75683871Y-85941757D01*
X75750000Y-85952231D01*
X75750000Y-84904145D01*
X75816657Y-84942630D01*
X75937465Y-84975000D01*
X76062535Y-84975000D01*
X76183343Y-84942630D01*
X76250000Y-84904145D01*
X76250000Y-85952230D01*
X76316126Y-85941757D01*
X76316129Y-85941757D01*
X76518217Y-85876095D01*
X76707557Y-85779620D01*
X76879459Y-85654727D01*
X76879464Y-85654723D01*
X77029723Y-85504464D01*
X77029727Y-85504459D01*
X77154620Y-85332557D01*
X77251095Y-85143217D01*
X77316757Y-84941130D01*
X77316757Y-84941127D01*
X77347030Y-84750000D01*
X76404146Y-84750000D01*
X76442630Y-84683343D01*
X76475000Y-84562535D01*
X76475000Y-84437465D01*
X76442630Y-84316657D01*
X76404146Y-84250000D01*
X77347030Y-84250000D01*
X77316757Y-84058872D01*
X77316757Y-84058869D01*
X77251095Y-83856782D01*
X77154620Y-83667442D01*
X77029727Y-83495540D01*
X77029723Y-83495535D01*
X76879464Y-83345276D01*
X76879459Y-83345272D01*
X76707557Y-83220379D01*
X76518217Y-83123904D01*
X76316131Y-83058243D01*
X76286284Y-83053515D01*
X76223150Y-83023584D01*
X76186220Y-82964272D01*
X76187220Y-82894409D01*
X76218001Y-82843364D01*
X77429548Y-81631819D01*
X77490871Y-81598334D01*
X77517229Y-81595500D01*
X83331736Y-81595500D01*
X83398775Y-81615185D01*
X83444530Y-81667989D01*
X83454474Y-81737147D01*
X83432054Y-81792386D01*
X83429734Y-81795578D01*
X83429731Y-81795582D01*
X83363911Y-81886174D01*
X83312647Y-81956733D01*
X83222213Y-82134219D01*
X83160661Y-82323656D01*
X83160661Y-82323659D01*
X83160661Y-82323661D01*
X83129500Y-82520403D01*
X83129500Y-82719597D01*
X83131269Y-82730764D01*
X83160661Y-82916340D01*
X83160661Y-82916343D01*
X83222213Y-83105780D01*
X83283973Y-83226990D01*
X83312647Y-83283266D01*
X83429731Y-83444418D01*
X83570582Y-83585269D01*
X83731734Y-83702353D01*
X83776148Y-83724983D01*
X83883172Y-83779515D01*
X83933968Y-83827490D01*
X83950763Y-83895311D01*
X83928225Y-83961446D01*
X83883172Y-84000485D01*
X83731733Y-84077647D01*
X83673571Y-84119905D01*
X83570582Y-84194731D01*
X83570580Y-84194733D01*
X83570579Y-84194733D01*
X83429733Y-84335579D01*
X83429733Y-84335580D01*
X83429731Y-84335582D01*
X83379447Y-84404790D01*
X83312647Y-84496733D01*
X83222213Y-84674219D01*
X83160661Y-84863656D01*
X83160661Y-84863659D01*
X83141468Y-84984839D01*
X83129500Y-85060403D01*
X83129500Y-85259597D01*
X83141056Y-85332557D01*
X83160661Y-85456340D01*
X83160661Y-85456343D01*
X83222213Y-85645780D01*
X83244302Y-85689132D01*
X83312647Y-85823266D01*
X83429731Y-85984418D01*
X83570582Y-86125269D01*
X83731734Y-86242353D01*
X83909217Y-86332785D01*
X83909219Y-86332786D01*
X84098657Y-86394338D01*
X84098658Y-86394338D01*
X84098661Y-86394339D01*
X84295403Y-86425500D01*
X84295404Y-86425500D01*
X84494596Y-86425500D01*
X84494597Y-86425500D01*
X84691339Y-86394339D01*
X84691342Y-86394338D01*
X84691343Y-86394338D01*
X84880780Y-86332786D01*
X84880780Y-86332785D01*
X84880783Y-86332785D01*
X85058266Y-86242353D01*
X85219418Y-86125269D01*
X85360269Y-85984418D01*
X85477353Y-85823266D01*
X85567785Y-85645783D01*
X85622164Y-85478421D01*
X85629338Y-85456343D01*
X85629338Y-85456342D01*
X85629339Y-85456339D01*
X85660500Y-85259597D01*
X85660500Y-85060403D01*
X85629339Y-84863661D01*
X85629338Y-84863657D01*
X85629338Y-84863656D01*
X85567786Y-84674219D01*
X85540092Y-84619866D01*
X85477353Y-84496734D01*
X85360269Y-84335582D01*
X85219418Y-84194731D01*
X85058266Y-84077647D01*
X84906827Y-84000485D01*
X84856031Y-83952510D01*
X84839236Y-83884689D01*
X84861773Y-83818554D01*
X84906827Y-83779515D01*
X84916116Y-83774781D01*
X85058266Y-83702353D01*
X85219418Y-83585269D01*
X85360269Y-83444418D01*
X85477353Y-83283266D01*
X85567785Y-83105783D01*
X85583232Y-83058243D01*
X85629338Y-82916343D01*
X85629338Y-82916342D01*
X85629339Y-82916339D01*
X85660500Y-82719597D01*
X85660500Y-82520403D01*
X85629339Y-82323661D01*
X85629338Y-82323657D01*
X85629338Y-82323656D01*
X85567786Y-82134219D01*
X85506157Y-82013266D01*
X85477353Y-81956734D01*
X85360269Y-81795582D01*
X85219418Y-81654731D01*
X85058266Y-81537647D01*
X84906827Y-81460485D01*
X84856031Y-81412510D01*
X84839236Y-81344689D01*
X84861773Y-81278554D01*
X84906827Y-81239515D01*
X84940105Y-81222559D01*
X85058266Y-81162353D01*
X85219418Y-81045269D01*
X85360269Y-80904418D01*
X85477353Y-80743266D01*
X85567785Y-80565783D01*
X85626612Y-80384733D01*
X85629338Y-80376343D01*
X85629338Y-80376342D01*
X85629339Y-80376339D01*
X85660500Y-80179597D01*
X85660500Y-79980403D01*
X85629339Y-79783661D01*
X85629338Y-79783657D01*
X85629338Y-79783656D01*
X85567786Y-79594219D01*
X85477352Y-79416733D01*
X85360269Y-79255582D01*
X85219418Y-79114731D01*
X85058266Y-78997647D01*
X84906827Y-78920485D01*
X84856031Y-78872510D01*
X84839236Y-78804689D01*
X84861773Y-78738554D01*
X84906827Y-78699515D01*
X84916116Y-78694781D01*
X85058266Y-78622353D01*
X85219418Y-78505269D01*
X85360269Y-78364418D01*
X85477353Y-78203266D01*
X85492192Y-78174142D01*
X87072175Y-78174142D01*
X89958990Y-78174142D01*
X89958990Y-61789991D01*
X87072175Y-61789991D01*
X87072175Y-78174142D01*
X85492192Y-78174142D01*
X85567785Y-78025783D01*
X85586011Y-77969690D01*
X85629338Y-77836343D01*
X85629338Y-77836342D01*
X85629339Y-77836339D01*
X85660500Y-77639597D01*
X85660500Y-77440403D01*
X85629339Y-77243661D01*
X85629338Y-77243657D01*
X85629338Y-77243656D01*
X85567786Y-77054219D01*
X85516331Y-76953233D01*
X85477353Y-76876734D01*
X85360269Y-76715582D01*
X85219418Y-76574731D01*
X85058266Y-76457647D01*
X84906827Y-76380485D01*
X84856031Y-76332510D01*
X84839236Y-76264689D01*
X84861773Y-76198554D01*
X84906827Y-76159515D01*
X84937840Y-76143713D01*
X85058266Y-76082353D01*
X85219418Y-75965269D01*
X85360269Y-75824418D01*
X85477353Y-75663266D01*
X85567785Y-75485783D01*
X85574854Y-75464028D01*
X85629338Y-75296343D01*
X85629338Y-75296342D01*
X85629339Y-75296339D01*
X85660500Y-75099597D01*
X85660500Y-74900403D01*
X85629339Y-74703661D01*
X85629338Y-74703657D01*
X85629338Y-74703656D01*
X85567786Y-74514219D01*
X85554910Y-74488948D01*
X85477353Y-74336734D01*
X85360269Y-74175582D01*
X85219418Y-74034731D01*
X85058266Y-73917647D01*
X84906827Y-73840485D01*
X84856031Y-73792510D01*
X84839236Y-73724689D01*
X84861773Y-73658554D01*
X84906827Y-73619515D01*
X84916116Y-73614781D01*
X85058266Y-73542353D01*
X85219418Y-73425269D01*
X85360269Y-73284418D01*
X85477353Y-73123266D01*
X85567785Y-72945783D01*
X85626612Y-72764733D01*
X85629338Y-72756343D01*
X85629338Y-72756342D01*
X85629339Y-72756339D01*
X85660500Y-72559597D01*
X85660500Y-72360403D01*
X85629339Y-72163661D01*
X85629338Y-72163657D01*
X85629338Y-72163656D01*
X85567786Y-71974219D01*
X85477352Y-71796733D01*
X85456777Y-71768414D01*
X85360269Y-71635582D01*
X85219418Y-71494731D01*
X85058266Y-71377647D01*
X84906827Y-71300485D01*
X84856031Y-71252510D01*
X84839236Y-71184689D01*
X84861773Y-71118554D01*
X84906827Y-71079515D01*
X84916116Y-71074781D01*
X85058266Y-71002353D01*
X85219418Y-70885269D01*
X85360269Y-70744418D01*
X85477353Y-70583266D01*
X85567785Y-70405783D01*
X85626612Y-70224733D01*
X85629338Y-70216343D01*
X85629338Y-70216342D01*
X85629339Y-70216339D01*
X85660500Y-70019597D01*
X85660500Y-69820403D01*
X85629339Y-69623661D01*
X85629338Y-69623657D01*
X85629338Y-69623656D01*
X85567786Y-69434219D01*
X85567785Y-69434217D01*
X85477353Y-69256734D01*
X85360269Y-69095582D01*
X85219418Y-68954731D01*
X85058266Y-68837647D01*
X84906827Y-68760485D01*
X84856031Y-68712510D01*
X84839236Y-68644689D01*
X84861773Y-68578554D01*
X84906827Y-68539515D01*
X84962386Y-68511206D01*
X85058266Y-68462353D01*
X85219418Y-68345269D01*
X85360269Y-68204418D01*
X85477353Y-68043266D01*
X85567785Y-67865783D01*
X85626612Y-67684733D01*
X85629338Y-67676343D01*
X85629338Y-67676342D01*
X85629339Y-67676339D01*
X85660500Y-67479597D01*
X85660500Y-67280403D01*
X85629339Y-67083661D01*
X85629338Y-67083657D01*
X85629338Y-67083656D01*
X85567786Y-66894219D01*
X85567785Y-66894217D01*
X85477353Y-66716734D01*
X85360269Y-66555582D01*
X85219418Y-66414731D01*
X85058266Y-66297647D01*
X84906827Y-66220485D01*
X84856031Y-66172510D01*
X84839236Y-66104689D01*
X84861773Y-66038554D01*
X84906827Y-65999515D01*
X84916116Y-65994781D01*
X85058266Y-65922353D01*
X85219418Y-65805269D01*
X85360269Y-65664418D01*
X85477353Y-65503266D01*
X85567785Y-65325783D01*
X85577097Y-65297123D01*
X85629338Y-65136343D01*
X85629338Y-65136342D01*
X85629339Y-65136339D01*
X85660500Y-64939597D01*
X85660500Y-64740403D01*
X85629339Y-64543661D01*
X85629338Y-64543657D01*
X85629338Y-64543656D01*
X85567786Y-64354219D01*
X85533444Y-64286819D01*
X85477353Y-64176734D01*
X85360269Y-64015582D01*
X85219418Y-63874731D01*
X85058266Y-63757647D01*
X85036715Y-63746666D01*
X84906827Y-63680485D01*
X84856031Y-63632510D01*
X84839236Y-63564689D01*
X84861773Y-63498554D01*
X84906827Y-63459515D01*
X84916116Y-63454781D01*
X85058266Y-63382353D01*
X85219418Y-63265269D01*
X85360269Y-63124418D01*
X85477353Y-62963266D01*
X85567785Y-62785783D01*
X85599189Y-62689132D01*
X85629338Y-62596343D01*
X85629338Y-62596342D01*
X85629339Y-62596339D01*
X85660500Y-62399597D01*
X85660500Y-62200403D01*
X85656090Y-62172561D01*
X85665044Y-62103270D01*
X85690879Y-62065486D01*
X91582952Y-56173415D01*
X91626048Y-56108917D01*
X91665084Y-56050495D01*
X91702120Y-55961082D01*
X91704511Y-55955311D01*
X91708910Y-55944689D01*
X91721659Y-55913912D01*
X91746575Y-55788651D01*
X91750500Y-55768918D01*
X91750500Y-52862229D01*
X91770185Y-52795190D01*
X91786819Y-52774548D01*
X101164548Y-43396819D01*
X101225871Y-43363334D01*
X101252229Y-43360500D01*
X104266411Y-43360500D01*
X104333450Y-43380185D01*
X104379205Y-43432989D01*
X104389701Y-43471246D01*
X104390909Y-43482483D01*
X104441202Y-43617328D01*
X104441206Y-43617335D01*
X104527452Y-43732544D01*
X104527455Y-43732547D01*
X104642664Y-43818793D01*
X104642671Y-43818797D01*
X104777517Y-43869091D01*
X104777516Y-43869091D01*
X104784444Y-43869835D01*
X104837127Y-43875500D01*
X104869568Y-43875499D01*
X104936605Y-43895182D01*
X104982361Y-43947984D01*
X104992306Y-44017143D01*
X104963283Y-44080699D01*
X104942455Y-44099816D01*
X104825582Y-44184730D01*
X104684733Y-44325579D01*
X104684733Y-44325580D01*
X104684731Y-44325582D01*
X104661500Y-44357557D01*
X104567647Y-44486733D01*
X104477213Y-44664219D01*
X104415661Y-44853656D01*
X104415661Y-44853659D01*
X104384500Y-45050403D01*
X104384500Y-45249596D01*
X104415661Y-45446340D01*
X104415661Y-45446343D01*
X104477213Y-45635780D01*
X104477215Y-45635783D01*
X104567647Y-45813266D01*
X104684731Y-45974418D01*
X104825582Y-46115269D01*
X104986734Y-46232353D01*
X105056453Y-46267877D01*
X105138172Y-46309515D01*
X105188968Y-46357490D01*
X105205763Y-46425311D01*
X105183225Y-46491446D01*
X105138172Y-46530485D01*
X104986733Y-46607647D01*
X104894790Y-46674447D01*
X104825582Y-46724731D01*
X104825580Y-46724733D01*
X104825579Y-46724733D01*
X104684733Y-46865579D01*
X104684733Y-46865580D01*
X104684731Y-46865582D01*
X104645328Y-46919815D01*
X104567647Y-47026733D01*
X104477213Y-47204219D01*
X104415661Y-47393656D01*
X104415661Y-47393659D01*
X104384500Y-47590403D01*
X104384500Y-47789596D01*
X104415661Y-47986340D01*
X104415661Y-47986343D01*
X104477213Y-48175780D01*
X104477215Y-48175783D01*
X104567647Y-48353266D01*
X104684731Y-48514418D01*
X104825582Y-48655269D01*
X104986734Y-48772353D01*
X105047479Y-48803304D01*
X105138172Y-48849515D01*
X105188968Y-48897490D01*
X105205763Y-48965311D01*
X105183225Y-49031446D01*
X105138172Y-49070485D01*
X104986733Y-49147647D01*
X104894790Y-49214447D01*
X104825582Y-49264731D01*
X104825580Y-49264733D01*
X104825579Y-49264733D01*
X104684733Y-49405579D01*
X104684733Y-49405580D01*
X104684731Y-49405582D01*
X104645328Y-49459815D01*
X104567647Y-49566733D01*
X104477213Y-49744219D01*
X104415661Y-49933656D01*
X104415661Y-49933659D01*
X104394829Y-50065186D01*
X104384500Y-50130403D01*
X104384500Y-50329597D01*
X104390929Y-50370185D01*
X104415661Y-50526340D01*
X104415661Y-50526343D01*
X104477213Y-50715780D01*
X104555141Y-50868721D01*
X104567647Y-50893266D01*
X104684731Y-51054418D01*
X104825582Y-51195269D01*
X104986734Y-51312353D01*
X105056453Y-51347877D01*
X105138172Y-51389515D01*
X105188968Y-51437490D01*
X105205763Y-51505311D01*
X105183225Y-51571446D01*
X105138172Y-51610485D01*
X104986733Y-51687647D01*
X104900913Y-51750000D01*
X104825582Y-51804731D01*
X104825580Y-51804733D01*
X104825579Y-51804733D01*
X104684733Y-51945579D01*
X104684733Y-51945580D01*
X104684731Y-51945582D01*
X104669802Y-51966130D01*
X104567647Y-52106733D01*
X104477213Y-52284219D01*
X104415661Y-52473656D01*
X104415661Y-52473659D01*
X104384500Y-52670403D01*
X104384500Y-52869596D01*
X104415661Y-53066340D01*
X104415661Y-53066343D01*
X104477213Y-53255780D01*
X104558085Y-53414500D01*
X104567647Y-53433266D01*
X104684731Y-53594418D01*
X104825582Y-53735269D01*
X104986734Y-53852353D01*
X105056453Y-53887877D01*
X105138172Y-53929515D01*
X105188968Y-53977490D01*
X105205763Y-54045311D01*
X105183225Y-54111446D01*
X105138172Y-54150485D01*
X104986733Y-54227647D01*
X104894790Y-54294447D01*
X104825582Y-54344731D01*
X104825580Y-54344733D01*
X104825579Y-54344733D01*
X104684733Y-54485579D01*
X104684733Y-54485580D01*
X104684731Y-54485582D01*
X104645328Y-54539815D01*
X104567647Y-54646733D01*
X104477213Y-54824219D01*
X104415661Y-55013656D01*
X104415661Y-55013659D01*
X104393982Y-55150535D01*
X104384500Y-55210403D01*
X104384500Y-55409597D01*
X104389617Y-55441902D01*
X104415660Y-55606336D01*
X104415661Y-55606343D01*
X104477213Y-55795780D01*
X104558085Y-55954500D01*
X104567647Y-55973266D01*
X104684731Y-56134418D01*
X104825582Y-56275269D01*
X104986734Y-56392353D01*
X105056453Y-56427877D01*
X105138172Y-56469515D01*
X105188968Y-56517490D01*
X105205763Y-56585311D01*
X105183225Y-56651446D01*
X105138172Y-56690485D01*
X104986733Y-56767647D01*
X104894790Y-56834447D01*
X104825582Y-56884731D01*
X104825580Y-56884733D01*
X104825579Y-56884733D01*
X104684733Y-57025579D01*
X104684733Y-57025580D01*
X104684731Y-57025582D01*
X104634447Y-57094790D01*
X104567647Y-57186733D01*
X104477213Y-57364219D01*
X104415661Y-57553656D01*
X104415661Y-57553659D01*
X104384500Y-57750403D01*
X104384500Y-57949596D01*
X104415661Y-58146340D01*
X104415661Y-58146343D01*
X104477213Y-58335780D01*
X104558085Y-58494500D01*
X104567647Y-58513266D01*
X104684731Y-58674418D01*
X104825582Y-58815269D01*
X104986734Y-58932353D01*
X105056453Y-58967877D01*
X105138172Y-59009515D01*
X105188968Y-59057490D01*
X105205763Y-59125311D01*
X105183225Y-59191446D01*
X105138172Y-59230485D01*
X104986733Y-59307647D01*
X104934942Y-59345276D01*
X104825582Y-59424731D01*
X104825580Y-59424733D01*
X104825579Y-59424733D01*
X104684733Y-59565579D01*
X104684733Y-59565580D01*
X104684731Y-59565582D01*
X104643593Y-59622203D01*
X104567647Y-59726733D01*
X104477213Y-59904219D01*
X104415661Y-60093656D01*
X104415661Y-60093659D01*
X104384500Y-60290403D01*
X104384500Y-60489596D01*
X104415661Y-60686340D01*
X104415661Y-60686343D01*
X104477213Y-60875780D01*
X104558085Y-61034500D01*
X104567647Y-61053266D01*
X104684731Y-61214418D01*
X104825582Y-61355269D01*
X104986734Y-61472353D01*
X105117299Y-61538879D01*
X105164219Y-61562786D01*
X105353657Y-61624338D01*
X105353658Y-61624338D01*
X105353661Y-61624339D01*
X105550403Y-61655500D01*
X105550404Y-61655500D01*
X105749596Y-61655500D01*
X105749597Y-61655500D01*
X105946339Y-61624339D01*
X105946342Y-61624338D01*
X105946343Y-61624338D01*
X106135780Y-61562786D01*
X106135780Y-61562785D01*
X106135783Y-61562785D01*
X106313266Y-61472353D01*
X106474418Y-61355269D01*
X106615269Y-61214418D01*
X106732353Y-61053266D01*
X106822785Y-60875783D01*
X106850119Y-60791657D01*
X106884338Y-60686343D01*
X106884338Y-60686342D01*
X106884339Y-60686339D01*
X106915500Y-60489597D01*
X106915500Y-60290403D01*
X106884339Y-60093661D01*
X106884338Y-60093657D01*
X106884338Y-60093656D01*
X106822786Y-59904219D01*
X106767103Y-59794935D01*
X106732353Y-59726734D01*
X106615269Y-59565582D01*
X106474418Y-59424731D01*
X106313266Y-59307647D01*
X106166306Y-59232767D01*
X106161827Y-59230485D01*
X106111031Y-59182510D01*
X106094236Y-59114689D01*
X106116773Y-59048554D01*
X106161827Y-59009515D01*
X106171116Y-59004781D01*
X106313266Y-58932353D01*
X106474418Y-58815269D01*
X106615269Y-58674418D01*
X106732353Y-58513266D01*
X106822785Y-58335783D01*
X106833647Y-58302352D01*
X106884338Y-58146343D01*
X106884338Y-58146342D01*
X106884339Y-58146339D01*
X106915500Y-57949597D01*
X106915500Y-57750403D01*
X106884339Y-57553661D01*
X106884338Y-57553657D01*
X106884338Y-57553656D01*
X106822786Y-57364219D01*
X106783514Y-57287143D01*
X106732353Y-57186734D01*
X106615269Y-57025582D01*
X106474418Y-56884731D01*
X106313266Y-56767647D01*
X106161827Y-56690485D01*
X106111031Y-56642510D01*
X106094236Y-56574689D01*
X106116773Y-56508554D01*
X106161827Y-56469515D01*
X106171116Y-56464781D01*
X106313266Y-56392353D01*
X106474418Y-56275269D01*
X106615269Y-56134418D01*
X106732353Y-55973266D01*
X106822785Y-55795783D01*
X106884339Y-55606339D01*
X106884340Y-55606336D01*
X106898906Y-55514366D01*
X108657259Y-55514366D01*
X113956328Y-55514366D01*
X113956328Y-47628489D01*
X108657259Y-47628489D01*
X108657259Y-55514366D01*
X106898906Y-55514366D01*
X106910383Y-55441902D01*
X106915500Y-55409597D01*
X106915500Y-55210403D01*
X106884339Y-55013661D01*
X106884338Y-55013657D01*
X106884338Y-55013656D01*
X106822786Y-54824219D01*
X106800049Y-54779596D01*
X106732353Y-54646734D01*
X106615269Y-54485582D01*
X106474418Y-54344731D01*
X106313266Y-54227647D01*
X106161827Y-54150485D01*
X106111031Y-54102510D01*
X106094236Y-54034689D01*
X106116773Y-53968554D01*
X106161827Y-53929515D01*
X106200125Y-53910001D01*
X106313266Y-53852353D01*
X106474418Y-53735269D01*
X106615269Y-53594418D01*
X106732353Y-53433266D01*
X106822785Y-53255783D01*
X106833647Y-53222352D01*
X106884338Y-53066343D01*
X106884338Y-53066342D01*
X106884339Y-53066339D01*
X106915500Y-52869597D01*
X106915500Y-52670403D01*
X106884339Y-52473661D01*
X106884338Y-52473657D01*
X106884338Y-52473656D01*
X106822786Y-52284219D01*
X106763680Y-52168217D01*
X106732353Y-52106734D01*
X106615269Y-51945582D01*
X106474418Y-51804731D01*
X106313266Y-51687647D01*
X106161827Y-51610485D01*
X106111031Y-51562510D01*
X106094236Y-51494689D01*
X106116773Y-51428554D01*
X106161827Y-51389515D01*
X106192277Y-51374000D01*
X106313266Y-51312353D01*
X106474418Y-51195269D01*
X106615269Y-51054418D01*
X106732353Y-50893266D01*
X106822785Y-50715783D01*
X106861314Y-50597203D01*
X106884338Y-50526343D01*
X106884338Y-50526342D01*
X106884339Y-50526339D01*
X106915500Y-50329597D01*
X106915500Y-50130403D01*
X106884339Y-49933661D01*
X106884338Y-49933657D01*
X106884338Y-49933656D01*
X106822786Y-49744219D01*
X106781746Y-49663674D01*
X106732353Y-49566734D01*
X106615269Y-49405582D01*
X106474418Y-49264731D01*
X106313266Y-49147647D01*
X106161827Y-49070485D01*
X106111031Y-49022510D01*
X106094236Y-48954689D01*
X106116773Y-48888554D01*
X106161827Y-48849515D01*
X106174311Y-48843154D01*
X106313266Y-48772353D01*
X106474418Y-48655269D01*
X106615269Y-48514418D01*
X106732353Y-48353266D01*
X106822785Y-48175783D01*
X106884339Y-47986339D01*
X106915500Y-47789597D01*
X106915500Y-47590403D01*
X106884339Y-47393661D01*
X106884338Y-47393657D01*
X106884338Y-47393656D01*
X106822786Y-47204219D01*
X106740225Y-47042184D01*
X106732353Y-47026734D01*
X106615269Y-46865582D01*
X106474418Y-46724731D01*
X106313266Y-46607647D01*
X106161827Y-46530485D01*
X106111031Y-46482510D01*
X106094236Y-46414689D01*
X106116773Y-46348554D01*
X106161827Y-46309515D01*
X106171116Y-46304781D01*
X106313266Y-46232353D01*
X106474418Y-46115269D01*
X106615269Y-45974418D01*
X106732353Y-45813266D01*
X106822785Y-45635783D01*
X106884339Y-45446339D01*
X106915500Y-45249597D01*
X106915500Y-45050403D01*
X106884339Y-44853661D01*
X106884338Y-44853657D01*
X106884338Y-44853656D01*
X106822786Y-44664219D01*
X106774441Y-44569336D01*
X106732353Y-44486734D01*
X106615269Y-44325582D01*
X106474418Y-44184731D01*
X106451688Y-44168217D01*
X106357544Y-44099817D01*
X106314878Y-44044487D01*
X106308899Y-43974874D01*
X106341505Y-43913079D01*
X106402343Y-43878722D01*
X106430428Y-43875499D01*
X106462872Y-43875499D01*
X106522483Y-43869091D01*
X106657331Y-43818796D01*
X106772546Y-43732546D01*
X106858796Y-43617331D01*
X106909091Y-43482483D01*
X106915500Y-43422873D01*
X106915499Y-41797128D01*
X106909091Y-41737517D01*
X106895284Y-41700499D01*
X106858797Y-41602671D01*
X106858793Y-41602664D01*
X106772547Y-41487455D01*
X106772544Y-41487452D01*
X106657335Y-41401206D01*
X106657328Y-41401202D01*
X106522482Y-41350908D01*
X106522483Y-41350908D01*
X106462883Y-41344501D01*
X106462881Y-41344500D01*
X106462873Y-41344500D01*
X106462864Y-41344500D01*
X104837129Y-41344500D01*
X104837123Y-41344501D01*
X104777516Y-41350908D01*
X104642671Y-41401202D01*
X104642664Y-41401206D01*
X104527455Y-41487452D01*
X104527452Y-41487455D01*
X104441206Y-41602664D01*
X104441202Y-41602671D01*
X104390909Y-41737513D01*
X104390909Y-41737516D01*
X104390909Y-41737517D01*
X104389700Y-41748755D01*
X104362965Y-41813304D01*
X104305574Y-41853154D01*
X104266412Y-41859500D01*
X100816080Y-41859500D01*
X100671092Y-41888340D01*
X100671082Y-41888343D01*
X100534507Y-41944914D01*
X100452814Y-41999500D01*
X100452813Y-41999501D01*
X100411581Y-42027050D01*
X100411580Y-42027051D01*
X90417052Y-52021578D01*
X90417049Y-52021581D01*
X90387315Y-52066081D01*
X90387316Y-52066082D01*
X90360154Y-52106734D01*
X90334914Y-52144508D01*
X90278343Y-52281082D01*
X90278340Y-52281092D01*
X90249500Y-52426079D01*
X90249500Y-55332769D01*
X90229815Y-55399808D01*
X90213181Y-55420450D01*
X85872181Y-59761450D01*
X85810858Y-59794935D01*
X85741166Y-59789951D01*
X85685233Y-59748079D01*
X85660816Y-59682615D01*
X85660500Y-59673769D01*
X85660500Y-59660403D01*
X85654450Y-59622203D01*
X85629339Y-59463661D01*
X85629338Y-59463657D01*
X85629338Y-59463656D01*
X85567786Y-59274219D01*
X85545645Y-59230765D01*
X85477353Y-59096734D01*
X85360269Y-58935582D01*
X85219418Y-58794731D01*
X85058266Y-58677647D01*
X85051929Y-58674418D01*
X84906277Y-58600204D01*
X84855481Y-58552229D01*
X84838686Y-58484408D01*
X84861224Y-58418273D01*
X84906277Y-58379234D01*
X85058005Y-58301924D01*
X85095863Y-58274418D01*
X85095863Y-58274417D01*
X84532574Y-57711128D01*
X84591853Y-57695245D01*
X84708147Y-57628102D01*
X84803102Y-57533147D01*
X84870245Y-57416853D01*
X84886128Y-57357574D01*
X85449417Y-57920863D01*
X85449418Y-57920863D01*
X85476924Y-57883005D01*
X85567320Y-57705594D01*
X85628852Y-57516222D01*
X85660000Y-57319563D01*
X85660000Y-57120436D01*
X85628852Y-56923777D01*
X85567320Y-56734405D01*
X85476924Y-56556994D01*
X85449417Y-56519135D01*
X85449417Y-56519134D01*
X84886128Y-57082424D01*
X84870245Y-57023147D01*
X84803102Y-56906853D01*
X84708147Y-56811898D01*
X84591853Y-56744755D01*
X84532574Y-56728871D01*
X85095864Y-56165581D01*
X85095863Y-56165580D01*
X85058008Y-56138077D01*
X84906277Y-56060765D01*
X84855481Y-56012790D01*
X84838686Y-55944969D01*
X84861224Y-55878834D01*
X84906277Y-55839795D01*
X84906827Y-55839515D01*
X85058266Y-55762353D01*
X85219418Y-55645269D01*
X85360269Y-55504418D01*
X85477353Y-55343266D01*
X85567785Y-55165783D01*
X85603795Y-55054955D01*
X85629338Y-54976343D01*
X85629338Y-54976342D01*
X85629339Y-54976339D01*
X85660500Y-54779597D01*
X85660500Y-54580403D01*
X85629339Y-54383661D01*
X85629338Y-54383657D01*
X85629338Y-54383656D01*
X85567786Y-54194219D01*
X85521058Y-54102510D01*
X85477353Y-54016734D01*
X85360269Y-53855582D01*
X85219418Y-53714731D01*
X85058266Y-53597647D01*
X84906827Y-53520485D01*
X84856031Y-53472510D01*
X84839236Y-53404689D01*
X84861773Y-53338554D01*
X84906827Y-53299515D01*
X84916116Y-53294781D01*
X85058266Y-53222353D01*
X85219418Y-53105269D01*
X85360269Y-52964418D01*
X85477353Y-52803266D01*
X85567785Y-52625783D01*
X85593025Y-52548102D01*
X85629338Y-52436343D01*
X85629338Y-52436342D01*
X85629339Y-52436339D01*
X85660500Y-52239597D01*
X85660500Y-52040403D01*
X85629339Y-51843661D01*
X85629338Y-51843657D01*
X85629338Y-51843656D01*
X85567786Y-51654219D01*
X85545502Y-51610485D01*
X85477353Y-51476734D01*
X85360269Y-51315582D01*
X85219418Y-51174731D01*
X85102543Y-51089816D01*
X85059878Y-51034487D01*
X85053899Y-50964874D01*
X85086505Y-50903079D01*
X85147343Y-50868722D01*
X85175428Y-50865499D01*
X85207872Y-50865499D01*
X85267483Y-50859091D01*
X85402331Y-50808796D01*
X85517546Y-50722546D01*
X85603796Y-50607331D01*
X85654091Y-50472483D01*
X85660500Y-50412873D01*
X85660499Y-48787128D01*
X85654091Y-48727517D01*
X85627144Y-48655269D01*
X85603797Y-48592671D01*
X85603793Y-48592664D01*
X85517547Y-48477455D01*
X85517544Y-48477452D01*
X85402335Y-48391206D01*
X85402328Y-48391202D01*
X85267482Y-48340908D01*
X85267483Y-48340908D01*
X85207883Y-48334501D01*
X85207881Y-48334500D01*
X85207873Y-48334500D01*
X85207864Y-48334500D01*
X83582129Y-48334500D01*
X83582123Y-48334501D01*
X83522516Y-48340908D01*
X83387671Y-48391202D01*
X83387664Y-48391206D01*
X83272455Y-48477452D01*
X83272452Y-48477455D01*
X83186206Y-48592664D01*
X83186202Y-48592671D01*
X83135909Y-48727513D01*
X83135909Y-48727516D01*
X83135909Y-48727517D01*
X83134700Y-48738755D01*
X83107965Y-48803304D01*
X83050574Y-48843154D01*
X83011412Y-48849500D01*
X81826080Y-48849500D01*
X81681092Y-48878340D01*
X81681082Y-48878343D01*
X81544511Y-48934912D01*
X81544504Y-48934916D01*
X81524015Y-48948606D01*
X81513699Y-48955500D01*
X81421579Y-49017051D01*
X81421578Y-49017052D01*
X72917047Y-57521584D01*
X72917043Y-57521589D01*
X72894555Y-57555247D01*
X72894555Y-57555248D01*
X72834914Y-57644508D01*
X72778343Y-57781082D01*
X72778340Y-57781092D01*
X72749500Y-57926079D01*
X72749500Y-59187779D01*
X72729815Y-59254818D01*
X72698385Y-59288097D01*
X72620211Y-59344893D01*
X72481398Y-59483706D01*
X72420075Y-59517190D01*
X72350383Y-59512206D01*
X72294450Y-59470334D01*
X72288178Y-59461120D01*
X72192712Y-59306344D01*
X72068657Y-59182289D01*
X72068656Y-59182288D01*
X71934402Y-59099480D01*
X71887679Y-59047533D01*
X71875500Y-58993942D01*
X71875500Y-56414006D01*
X71895185Y-56346967D01*
X71911819Y-56326325D01*
X72293455Y-55944689D01*
X72680045Y-55558099D01*
X72695785Y-55534543D01*
X72775858Y-55414705D01*
X72841855Y-55255374D01*
X72875500Y-55086229D01*
X72875500Y-53031057D01*
X72895185Y-52964018D01*
X72934401Y-52925520D01*
X73068656Y-52842712D01*
X73192712Y-52718656D01*
X73284814Y-52569334D01*
X73284814Y-52569331D01*
X73288448Y-52563441D01*
X73340395Y-52516716D01*
X73409358Y-52505493D01*
X73473440Y-52533336D01*
X73481668Y-52540856D01*
X73620535Y-52679723D01*
X73620540Y-52679727D01*
X73792442Y-52804620D01*
X73981782Y-52901095D01*
X74183871Y-52966757D01*
X74250000Y-52977231D01*
X74250000Y-51933012D01*
X74307007Y-51965925D01*
X74434174Y-52000000D01*
X74565826Y-52000000D01*
X74692993Y-51965925D01*
X74750000Y-51933012D01*
X74750000Y-52977230D01*
X74816126Y-52966757D01*
X74816129Y-52966757D01*
X75018217Y-52901095D01*
X75207557Y-52804620D01*
X75379459Y-52679727D01*
X75379464Y-52679723D01*
X75529723Y-52529464D01*
X75529727Y-52529459D01*
X75654620Y-52357557D01*
X75751095Y-52168217D01*
X75816757Y-51966130D01*
X75816757Y-51966127D01*
X75850000Y-51756246D01*
X75850000Y-51750000D01*
X74933012Y-51750000D01*
X74965925Y-51692993D01*
X75000000Y-51565826D01*
X75000000Y-51434174D01*
X74965925Y-51307007D01*
X74933012Y-51250000D01*
X75850000Y-51250000D01*
X75850000Y-51243753D01*
X75816757Y-51033872D01*
X75816757Y-51033869D01*
X75751095Y-50831782D01*
X75654620Y-50642442D01*
X75529727Y-50470540D01*
X75529723Y-50470535D01*
X75379464Y-50320276D01*
X75379459Y-50320272D01*
X75207557Y-50195379D01*
X75018218Y-50098905D01*
X74924622Y-50068493D01*
X74866947Y-50029055D01*
X74839749Y-49964696D01*
X74851664Y-49895850D01*
X74875254Y-49862888D01*
X83826325Y-40911819D01*
X83887648Y-40878334D01*
X83914006Y-40875500D01*
X111085994Y-40875500D01*
X111153033Y-40895185D01*
X111173675Y-40911819D01*
X114588181Y-44326325D01*
X114621666Y-44387648D01*
X114624500Y-44414006D01*
X114624500Y-55086233D01*
X114658143Y-55255366D01*
X114658146Y-55255378D01*
X114724138Y-55414698D01*
X114724145Y-55414711D01*
X114819954Y-55558098D01*
X114819957Y-55558102D01*
X117048181Y-57786325D01*
X117081666Y-57847648D01*
X117084500Y-57874006D01*
X117084500Y-57949596D01*
X117115661Y-58146340D01*
X117115661Y-58146343D01*
X117177213Y-58335780D01*
X117258085Y-58494500D01*
X117267647Y-58513266D01*
X117384731Y-58674418D01*
X117525582Y-58815269D01*
X117686734Y-58932353D01*
X117776909Y-58978299D01*
X117838722Y-59009795D01*
X117889518Y-59057770D01*
X117906313Y-59125591D01*
X117883776Y-59191726D01*
X117838723Y-59230764D01*
X117686993Y-59308075D01*
X117649135Y-59335580D01*
X117649135Y-59335581D01*
X118212425Y-59898871D01*
X118153147Y-59914755D01*
X118036853Y-59981898D01*
X117941898Y-60076853D01*
X117874755Y-60193147D01*
X117858871Y-60252425D01*
X117295581Y-59689135D01*
X117295580Y-59689135D01*
X117268077Y-59726990D01*
X117177679Y-59904405D01*
X117116147Y-60093777D01*
X117085000Y-60290436D01*
X117085000Y-60489563D01*
X117116147Y-60686222D01*
X117177679Y-60875594D01*
X117268077Y-61053008D01*
X117295580Y-61090863D01*
X117295581Y-61090864D01*
X117858871Y-60527574D01*
X117874755Y-60586853D01*
X117941898Y-60703147D01*
X118036853Y-60798102D01*
X118153147Y-60865245D01*
X118212425Y-60881128D01*
X117649134Y-61444417D01*
X117686994Y-61471924D01*
X117864405Y-61562320D01*
X118053777Y-61623852D01*
X118250437Y-61655000D01*
X118449563Y-61655000D01*
X118646222Y-61623852D01*
X118835594Y-61562320D01*
X119013005Y-61471924D01*
X119050863Y-61444418D01*
X119050863Y-61444417D01*
X118487574Y-60881128D01*
X118546853Y-60865245D01*
X118663147Y-60798102D01*
X118758102Y-60703147D01*
X118825245Y-60586853D01*
X118841128Y-60527574D01*
X119404417Y-61090863D01*
X119404418Y-61090863D01*
X119431924Y-61053005D01*
X119522320Y-60875594D01*
X119583852Y-60686222D01*
X119585765Y-60674142D01*
X129142484Y-60674142D01*
X132456328Y-60674142D01*
X132456328Y-41504275D01*
X129142484Y-41504275D01*
X129142484Y-60674142D01*
X119585765Y-60674142D01*
X119615000Y-60489563D01*
X119615000Y-60290436D01*
X119583852Y-60093777D01*
X119522320Y-59904405D01*
X119431924Y-59726994D01*
X119404417Y-59689135D01*
X119404417Y-59689134D01*
X118841128Y-60252424D01*
X118825245Y-60193147D01*
X118758102Y-60076853D01*
X118663147Y-59981898D01*
X118546853Y-59914755D01*
X118487574Y-59898871D01*
X119050864Y-59335581D01*
X119050863Y-59335580D01*
X119013008Y-59308077D01*
X118861277Y-59230765D01*
X118810481Y-59182790D01*
X118793686Y-59114969D01*
X118816224Y-59048834D01*
X118861277Y-59009795D01*
X118861827Y-59009515D01*
X119013266Y-58932353D01*
X119174418Y-58815269D01*
X119315269Y-58674418D01*
X119432353Y-58513266D01*
X119522785Y-58335783D01*
X119533647Y-58302352D01*
X119584338Y-58146343D01*
X119584338Y-58146342D01*
X119584339Y-58146339D01*
X119615500Y-57949597D01*
X119615500Y-57750403D01*
X119584339Y-57553661D01*
X119584338Y-57553657D01*
X119584338Y-57553656D01*
X119522786Y-57364219D01*
X119483514Y-57287143D01*
X119432353Y-57186734D01*
X119315269Y-57025582D01*
X119174418Y-56884731D01*
X119013266Y-56767647D01*
X118861827Y-56690485D01*
X118811031Y-56642510D01*
X118794236Y-56574689D01*
X118816773Y-56508554D01*
X118861827Y-56469515D01*
X118871116Y-56464781D01*
X119013266Y-56392353D01*
X119174418Y-56275269D01*
X119315269Y-56134418D01*
X119331838Y-56111613D01*
X119387169Y-56068948D01*
X119432155Y-56060500D01*
X123464581Y-56060500D01*
X123531620Y-56080185D01*
X123577375Y-56132989D01*
X123582284Y-56145487D01*
X123590186Y-56169334D01*
X123682288Y-56318656D01*
X123806344Y-56442712D01*
X123955666Y-56534814D01*
X124122203Y-56589999D01*
X124224991Y-56600500D01*
X125775008Y-56600499D01*
X125877797Y-56589999D01*
X126044334Y-56534814D01*
X126193656Y-56442712D01*
X126317712Y-56318656D01*
X126409814Y-56169334D01*
X126464999Y-56002797D01*
X126475500Y-55900009D01*
X126475499Y-54599992D01*
X126464999Y-54497203D01*
X126409814Y-54330666D01*
X126317712Y-54181344D01*
X126193656Y-54057288D01*
X126044334Y-53965186D01*
X126044333Y-53965185D01*
X126038878Y-53961821D01*
X125992154Y-53909873D01*
X125980931Y-53840910D01*
X126008775Y-53776828D01*
X126016272Y-53768623D01*
X126155104Y-53629792D01*
X126280051Y-53457816D01*
X126376557Y-53268412D01*
X126442246Y-53066243D01*
X126475500Y-52856287D01*
X126475500Y-52643713D01*
X126442246Y-52433757D01*
X126376557Y-52231588D01*
X126280051Y-52042184D01*
X126280049Y-52042181D01*
X126280048Y-52042179D01*
X126155109Y-51870213D01*
X126004792Y-51719896D01*
X125967763Y-51692993D01*
X125840204Y-51600316D01*
X125797540Y-51544989D01*
X125791561Y-51475376D01*
X125824166Y-51413580D01*
X125840199Y-51399686D01*
X126004792Y-51280104D01*
X126155104Y-51129792D01*
X126155106Y-51129788D01*
X126155109Y-51129786D01*
X126280048Y-50957820D01*
X126280047Y-50957820D01*
X126280051Y-50957816D01*
X126376557Y-50768412D01*
X126442246Y-50566243D01*
X126475500Y-50356287D01*
X126475500Y-50143713D01*
X126442246Y-49933757D01*
X126376557Y-49731588D01*
X126280051Y-49542184D01*
X126280049Y-49542181D01*
X126280048Y-49542179D01*
X126155109Y-49370213D01*
X126004792Y-49219896D01*
X126004784Y-49219890D01*
X125840204Y-49100316D01*
X125797540Y-49044989D01*
X125791561Y-48975376D01*
X125824166Y-48913580D01*
X125840199Y-48899686D01*
X126004792Y-48780104D01*
X126155104Y-48629792D01*
X126155106Y-48629788D01*
X126155109Y-48629786D01*
X126280048Y-48457820D01*
X126280047Y-48457820D01*
X126280051Y-48457816D01*
X126376557Y-48268412D01*
X126442246Y-48066243D01*
X126475500Y-47856287D01*
X126475500Y-47643713D01*
X126442246Y-47433757D01*
X126376557Y-47231588D01*
X126280051Y-47042184D01*
X126280049Y-47042181D01*
X126280048Y-47042179D01*
X126155109Y-46870213D01*
X126004786Y-46719890D01*
X125832820Y-46594951D01*
X125643414Y-46498444D01*
X125643413Y-46498443D01*
X125643412Y-46498443D01*
X125441243Y-46432754D01*
X125441241Y-46432753D01*
X125441240Y-46432753D01*
X125279957Y-46407208D01*
X125231287Y-46399500D01*
X124768713Y-46399500D01*
X124720042Y-46407208D01*
X124558760Y-46432753D01*
X124558757Y-46432754D01*
X124378123Y-46491446D01*
X124356585Y-46498444D01*
X124167179Y-46594951D01*
X123995213Y-46719890D01*
X123844897Y-46870206D01*
X123844890Y-46870214D01*
X123831688Y-46888386D01*
X123776358Y-46931052D01*
X123731371Y-46939500D01*
X119432155Y-46939500D01*
X119365116Y-46919815D01*
X119331838Y-46888387D01*
X119315269Y-46865582D01*
X119174420Y-46724733D01*
X119174418Y-46724731D01*
X119013266Y-46607647D01*
X118988345Y-46594949D01*
X118861277Y-46530204D01*
X118810481Y-46482229D01*
X118793686Y-46414408D01*
X118816224Y-46348273D01*
X118861277Y-46309234D01*
X119013005Y-46231924D01*
X119050863Y-46204418D01*
X119050863Y-46204417D01*
X118487574Y-45641128D01*
X118546853Y-45625245D01*
X118663147Y-45558102D01*
X118758102Y-45463147D01*
X118825245Y-45346853D01*
X118841128Y-45287574D01*
X119404417Y-45850863D01*
X119404418Y-45850863D01*
X119431924Y-45813005D01*
X119522320Y-45635594D01*
X119583852Y-45446222D01*
X119615000Y-45249563D01*
X119615000Y-45050436D01*
X119583852Y-44853777D01*
X119522320Y-44664405D01*
X119431924Y-44486994D01*
X119404417Y-44449135D01*
X119404417Y-44449134D01*
X118841128Y-45012424D01*
X118825245Y-44953147D01*
X118758102Y-44836853D01*
X118663147Y-44741898D01*
X118546853Y-44674755D01*
X118487574Y-44658871D01*
X119050864Y-44095581D01*
X119050863Y-44095580D01*
X119013008Y-44068077D01*
X118861277Y-43990765D01*
X118810481Y-43942790D01*
X118793686Y-43874969D01*
X118816224Y-43808834D01*
X118861277Y-43769795D01*
X119013266Y-43692353D01*
X119174418Y-43575269D01*
X119315269Y-43434418D01*
X119432353Y-43273266D01*
X119522785Y-43095783D01*
X119584339Y-42906339D01*
X119615500Y-42709597D01*
X119615500Y-42510403D01*
X119584339Y-42313661D01*
X119584338Y-42313657D01*
X119584338Y-42313656D01*
X119522786Y-42124219D01*
X119485306Y-42050660D01*
X119432353Y-41946734D01*
X119315269Y-41785582D01*
X119174418Y-41644731D01*
X119013266Y-41527647D01*
X118934379Y-41487452D01*
X118835780Y-41437213D01*
X118646342Y-41375661D01*
X118498782Y-41352290D01*
X118449597Y-41344500D01*
X118449596Y-41344500D01*
X118374006Y-41344500D01*
X118306967Y-41324815D01*
X118286325Y-41308181D01*
X116227537Y-39249393D01*
X116143330Y-39165186D01*
X131599500Y-39165186D01*
X131599500Y-39434813D01*
X131629686Y-39702719D01*
X131629688Y-39702731D01*
X131689684Y-39965594D01*
X131689687Y-39965602D01*
X131778734Y-40220082D01*
X131895714Y-40462994D01*
X131895716Y-40462997D01*
X132039162Y-40691289D01*
X132207266Y-40902085D01*
X132397915Y-41092734D01*
X132608711Y-41260838D01*
X132837003Y-41404284D01*
X133079921Y-41521267D01*
X133271049Y-41588145D01*
X133334397Y-41610312D01*
X133334405Y-41610315D01*
X133334408Y-41610315D01*
X133334409Y-41610316D01*
X133597268Y-41670312D01*
X133865187Y-41700499D01*
X133865188Y-41700500D01*
X133865191Y-41700500D01*
X134134812Y-41700500D01*
X134134812Y-41700499D01*
X134402732Y-41670312D01*
X134665591Y-41610316D01*
X134920079Y-41521267D01*
X135162997Y-41404284D01*
X135391289Y-41260838D01*
X135602085Y-41092734D01*
X135792734Y-40902085D01*
X135960838Y-40691289D01*
X136104284Y-40462997D01*
X136221267Y-40220079D01*
X136310316Y-39965591D01*
X136370312Y-39702732D01*
X136400500Y-39434809D01*
X136400500Y-39165191D01*
X136370312Y-38897268D01*
X136310316Y-38634409D01*
X136221267Y-38379921D01*
X136104284Y-38137003D01*
X135960838Y-37908711D01*
X135792734Y-37697915D01*
X135602085Y-37507266D01*
X135391289Y-37339162D01*
X135162997Y-37195716D01*
X135162994Y-37195714D01*
X134920082Y-37078734D01*
X134665602Y-36989687D01*
X134665594Y-36989684D01*
X134468446Y-36944687D01*
X134402732Y-36929688D01*
X134402728Y-36929687D01*
X134402719Y-36929686D01*
X134134813Y-36899500D01*
X134134809Y-36899500D01*
X133865191Y-36899500D01*
X133865186Y-36899500D01*
X133597280Y-36929686D01*
X133597268Y-36929688D01*
X133334405Y-36989684D01*
X133334397Y-36989687D01*
X133079917Y-37078734D01*
X132837005Y-37195714D01*
X132608712Y-37339161D01*
X132397915Y-37507265D01*
X132207265Y-37697915D01*
X132039161Y-37908712D01*
X131895714Y-38137005D01*
X131778734Y-38379917D01*
X131689687Y-38634397D01*
X131689684Y-38634405D01*
X131629688Y-38897268D01*
X131629686Y-38897280D01*
X131599500Y-39165186D01*
X116143330Y-39165186D01*
X112798102Y-35819957D01*
X112798098Y-35819954D01*
X112659884Y-35727602D01*
X112615079Y-35673990D01*
X112606372Y-35604665D01*
X112636527Y-35541637D01*
X112695970Y-35504918D01*
X112728775Y-35500500D01*
X137375500Y-35500500D01*
X137442539Y-35520185D01*
X137488294Y-35572989D01*
X137499500Y-35624500D01*
X137499500Y-94375500D01*
X137479815Y-94442539D01*
X137427011Y-94488294D01*
X137375500Y-94499500D01*
X60624500Y-94499500D01*
X60557461Y-94479815D01*
X60511706Y-94427011D01*
X60500500Y-94375500D01*
X60500500Y-90865186D01*
X61599500Y-90865186D01*
X61599500Y-91134813D01*
X61629686Y-91402719D01*
X61629688Y-91402731D01*
X61689684Y-91665594D01*
X61689687Y-91665602D01*
X61778734Y-91920082D01*
X61895714Y-92162994D01*
X61895716Y-92162997D01*
X62039162Y-92391289D01*
X62207266Y-92602085D01*
X62397915Y-92792734D01*
X62608711Y-92960838D01*
X62837003Y-93104284D01*
X63079921Y-93221267D01*
X63271049Y-93288145D01*
X63334397Y-93310312D01*
X63334405Y-93310315D01*
X63334408Y-93310315D01*
X63334409Y-93310316D01*
X63597268Y-93370312D01*
X63865187Y-93400499D01*
X63865188Y-93400500D01*
X63865191Y-93400500D01*
X64134812Y-93400500D01*
X64134812Y-93400499D01*
X64402732Y-93370312D01*
X64665591Y-93310316D01*
X64920079Y-93221267D01*
X65162997Y-93104284D01*
X65391289Y-92960838D01*
X65602085Y-92792734D01*
X65792734Y-92602085D01*
X65960838Y-92391289D01*
X66104284Y-92162997D01*
X66221267Y-91920079D01*
X66310316Y-91665591D01*
X66370312Y-91402732D01*
X66400500Y-91134809D01*
X66400500Y-90865191D01*
X66370312Y-90597268D01*
X66310316Y-90334409D01*
X66221267Y-90079921D01*
X66104284Y-89837003D01*
X65960838Y-89608711D01*
X65792734Y-89397915D01*
X65602085Y-89207266D01*
X65391289Y-89039162D01*
X65162997Y-88895716D01*
X65162994Y-88895714D01*
X64920082Y-88778734D01*
X64665602Y-88689687D01*
X64665594Y-88689684D01*
X64467619Y-88644498D01*
X64402732Y-88629688D01*
X64402728Y-88629687D01*
X64402719Y-88629686D01*
X64134813Y-88599500D01*
X64134809Y-88599500D01*
X63865191Y-88599500D01*
X63865186Y-88599500D01*
X63597280Y-88629686D01*
X63597268Y-88629688D01*
X63334405Y-88689684D01*
X63334397Y-88689687D01*
X63079917Y-88778734D01*
X62837005Y-88895714D01*
X62608712Y-89039161D01*
X62397915Y-89207265D01*
X62207265Y-89397915D01*
X62039161Y-89608712D01*
X61895714Y-89837005D01*
X61778734Y-90079917D01*
X61689687Y-90334397D01*
X61689684Y-90334405D01*
X61629688Y-90597268D01*
X61629686Y-90597280D01*
X61599500Y-90865186D01*
X60500500Y-90865186D01*
X60500500Y-87206328D01*
X60807061Y-87206328D01*
X67692938Y-87206328D01*
X67692938Y-81978687D01*
X60807061Y-81978687D01*
X60807061Y-87206328D01*
X60500500Y-87206328D01*
X60500500Y-79206328D01*
X60807061Y-79206328D01*
X67692938Y-79206328D01*
X67692938Y-73978687D01*
X60807061Y-73978687D01*
X60807061Y-79206328D01*
X60500500Y-79206328D01*
X60500500Y-71458053D01*
X60807061Y-71458053D01*
X67692938Y-71458053D01*
X67692938Y-66228687D01*
X60807061Y-66228687D01*
X60807061Y-71458053D01*
X60500500Y-71458053D01*
X60500500Y-63456328D01*
X60807061Y-63456328D01*
X67692938Y-63456328D01*
X67692938Y-58228687D01*
X60807061Y-58228687D01*
X60807061Y-63456328D01*
X60500500Y-63456328D01*
X60500500Y-53458053D01*
X61899010Y-53458053D01*
X67283164Y-53458053D01*
X67283164Y-50643129D01*
X61899010Y-50643129D01*
X61899010Y-53458053D01*
X60500500Y-53458053D01*
X60500500Y-45958053D01*
X61899010Y-45958053D01*
X68711735Y-45958053D01*
X68711735Y-43072176D01*
X61899010Y-43072176D01*
X61899010Y-45958053D01*
X60500500Y-45958053D01*
X60500500Y-39165186D01*
X61599500Y-39165186D01*
X61599500Y-39434813D01*
X61629686Y-39702719D01*
X61629688Y-39702731D01*
X61689684Y-39965594D01*
X61689687Y-39965602D01*
X61778734Y-40220082D01*
X61895714Y-40462994D01*
X61895716Y-40462997D01*
X62039162Y-40691289D01*
X62207266Y-40902085D01*
X62397915Y-41092734D01*
X62608711Y-41260838D01*
X62837003Y-41404284D01*
X63079921Y-41521267D01*
X63271049Y-41588145D01*
X63334397Y-41610312D01*
X63334405Y-41610315D01*
X63334408Y-41610315D01*
X63334409Y-41610316D01*
X63597268Y-41670312D01*
X63865187Y-41700499D01*
X63865188Y-41700500D01*
X63865191Y-41700500D01*
X64134812Y-41700500D01*
X64134812Y-41700499D01*
X64402732Y-41670312D01*
X64665591Y-41610316D01*
X64920079Y-41521267D01*
X65162997Y-41404284D01*
X65391289Y-41260838D01*
X65602085Y-41092734D01*
X65792734Y-40902085D01*
X65960838Y-40691289D01*
X66104284Y-40462997D01*
X66221267Y-40220079D01*
X66310316Y-39965591D01*
X66370312Y-39702732D01*
X66400500Y-39434809D01*
X66400500Y-39165191D01*
X66370312Y-38897268D01*
X66310316Y-38634409D01*
X66221267Y-38379921D01*
X66104284Y-38137003D01*
X65960838Y-37908711D01*
X65792734Y-37697915D01*
X65602085Y-37507266D01*
X65391289Y-37339162D01*
X65162997Y-37195716D01*
X65162994Y-37195714D01*
X64920082Y-37078734D01*
X64665602Y-36989687D01*
X64665594Y-36989684D01*
X64468446Y-36944687D01*
X64402732Y-36929688D01*
X64402728Y-36929687D01*
X64402719Y-36929686D01*
X64134813Y-36899500D01*
X64134809Y-36899500D01*
X63865191Y-36899500D01*
X63865186Y-36899500D01*
X63597280Y-36929686D01*
X63597268Y-36929688D01*
X63334405Y-36989684D01*
X63334397Y-36989687D01*
X63079917Y-37078734D01*
X62837005Y-37195714D01*
X62608712Y-37339161D01*
X62397915Y-37507265D01*
X62207265Y-37697915D01*
X62039161Y-37908712D01*
X61895714Y-38137005D01*
X61778734Y-38379917D01*
X61689687Y-38634397D01*
X61689684Y-38634405D01*
X61629688Y-38897268D01*
X61629686Y-38897280D01*
X61599500Y-39165186D01*
X60500500Y-39165186D01*
X60500500Y-35624500D01*
X60520185Y-35557461D01*
X60572989Y-35511706D01*
X60624500Y-35500500D01*
X75511225Y-35500500D01*
X75578264Y-35520185D01*
G37*
%TD.AperFunction*%
%TA.AperFunction,Conductor*%
G36*
X83048834Y-54650047D02*
G01*
X83104767Y-54691919D01*
X83129184Y-54757383D01*
X83129500Y-54766229D01*
X83129500Y-54779597D01*
X83145080Y-54877968D01*
X83160661Y-54976340D01*
X83160661Y-54976343D01*
X83222213Y-55165780D01*
X83312647Y-55343266D01*
X83429731Y-55504418D01*
X83570582Y-55645269D01*
X83731734Y-55762353D01*
X83797344Y-55795783D01*
X83883722Y-55839795D01*
X83934518Y-55887770D01*
X83951313Y-55955591D01*
X83928776Y-56021726D01*
X83883723Y-56060764D01*
X83731993Y-56138075D01*
X83694135Y-56165580D01*
X83694135Y-56165581D01*
X84257425Y-56728871D01*
X84198147Y-56744755D01*
X84081853Y-56811898D01*
X83986898Y-56906853D01*
X83919755Y-57023147D01*
X83903871Y-57082425D01*
X83340581Y-56519135D01*
X83340580Y-56519135D01*
X83313077Y-56556990D01*
X83222679Y-56734405D01*
X83161147Y-56923777D01*
X83130000Y-57120436D01*
X83130000Y-57319563D01*
X83161147Y-57516222D01*
X83222679Y-57705594D01*
X83313077Y-57883008D01*
X83340580Y-57920863D01*
X83340581Y-57920864D01*
X83903871Y-57357574D01*
X83919755Y-57416853D01*
X83986898Y-57533147D01*
X84081853Y-57628102D01*
X84198147Y-57695245D01*
X84257425Y-57711128D01*
X83694134Y-58274417D01*
X83731994Y-58301924D01*
X83883722Y-58379234D01*
X83934518Y-58427209D01*
X83951313Y-58495030D01*
X83928776Y-58561165D01*
X83883723Y-58600203D01*
X83731735Y-58677645D01*
X83618997Y-58759555D01*
X83570582Y-58794731D01*
X83570580Y-58794733D01*
X83570579Y-58794733D01*
X83429733Y-58935579D01*
X83429733Y-58935580D01*
X83429731Y-58935582D01*
X83387330Y-58993942D01*
X83312647Y-59096733D01*
X83222213Y-59274219D01*
X83160661Y-59463656D01*
X83160661Y-59463659D01*
X83144518Y-59565582D01*
X83129500Y-59660403D01*
X83129500Y-59859597D01*
X83136597Y-59904405D01*
X83160661Y-60056340D01*
X83160661Y-60056343D01*
X83222213Y-60245780D01*
X83258327Y-60316657D01*
X83312647Y-60423266D01*
X83429731Y-60584418D01*
X83570582Y-60725269D01*
X83731734Y-60842353D01*
X83776662Y-60865245D01*
X83883172Y-60919515D01*
X83933968Y-60967490D01*
X83950763Y-61035311D01*
X83928225Y-61101446D01*
X83883172Y-61140485D01*
X83731733Y-61217647D01*
X83652770Y-61275018D01*
X83570582Y-61334731D01*
X83570580Y-61334733D01*
X83570579Y-61334733D01*
X83429733Y-61475579D01*
X83429733Y-61475580D01*
X83429731Y-61475582D01*
X83425845Y-61480931D01*
X83312647Y-61636733D01*
X83222213Y-61814219D01*
X83160661Y-62003656D01*
X83160661Y-62003659D01*
X83129500Y-62200403D01*
X83129500Y-62399596D01*
X83160661Y-62596340D01*
X83160661Y-62596343D01*
X83222213Y-62785780D01*
X83222215Y-62785783D01*
X83312647Y-62963266D01*
X83429731Y-63124418D01*
X83570582Y-63265269D01*
X83731734Y-63382353D01*
X83801453Y-63417877D01*
X83883172Y-63459515D01*
X83933968Y-63507490D01*
X83950763Y-63575311D01*
X83928225Y-63641446D01*
X83883172Y-63680485D01*
X83731733Y-63757647D01*
X83703248Y-63778343D01*
X83570582Y-63874731D01*
X83570580Y-63874733D01*
X83570579Y-63874733D01*
X83429733Y-64015579D01*
X83429733Y-64015580D01*
X83429731Y-64015582D01*
X83380784Y-64082952D01*
X83312647Y-64176733D01*
X83222213Y-64354219D01*
X83160661Y-64543656D01*
X83160661Y-64543659D01*
X83129500Y-64740403D01*
X83129500Y-64939596D01*
X83160661Y-65136340D01*
X83160661Y-65136343D01*
X83222213Y-65325780D01*
X83312282Y-65502550D01*
X83312647Y-65503266D01*
X83429731Y-65664418D01*
X83570582Y-65805269D01*
X83731734Y-65922353D01*
X83801453Y-65957877D01*
X83883172Y-65999515D01*
X83933968Y-66047490D01*
X83950763Y-66115311D01*
X83928225Y-66181446D01*
X83883172Y-66220485D01*
X83731733Y-66297647D01*
X83639790Y-66364447D01*
X83570582Y-66414731D01*
X83570580Y-66414733D01*
X83570579Y-66414733D01*
X83429733Y-66555579D01*
X83429733Y-66555580D01*
X83429731Y-66555582D01*
X83400523Y-66595783D01*
X83312647Y-66716733D01*
X83222213Y-66894219D01*
X83160661Y-67083656D01*
X83160661Y-67083659D01*
X83129500Y-67280403D01*
X83129500Y-67479596D01*
X83160661Y-67676340D01*
X83160661Y-67676343D01*
X83222213Y-67865780D01*
X83283973Y-67986990D01*
X83312647Y-68043266D01*
X83429731Y-68204418D01*
X83570582Y-68345269D01*
X83731734Y-68462353D01*
X83801453Y-68497877D01*
X83883172Y-68539515D01*
X83933968Y-68587490D01*
X83950763Y-68655311D01*
X83928225Y-68721446D01*
X83883172Y-68760485D01*
X83731733Y-68837647D01*
X83673309Y-68880095D01*
X83570582Y-68954731D01*
X83570580Y-68954733D01*
X83570579Y-68954733D01*
X83429733Y-69095579D01*
X83429733Y-69095580D01*
X83429731Y-69095582D01*
X83379447Y-69164790D01*
X83312647Y-69256733D01*
X83222213Y-69434219D01*
X83160661Y-69623656D01*
X83160661Y-69623659D01*
X83147870Y-69704417D01*
X83129500Y-69820403D01*
X83129500Y-70019597D01*
X83143446Y-70107647D01*
X83160661Y-70216340D01*
X83160661Y-70216343D01*
X83222213Y-70405780D01*
X83291712Y-70542179D01*
X83312647Y-70583266D01*
X83429731Y-70744418D01*
X83570582Y-70885269D01*
X83731734Y-71002353D01*
X83801453Y-71037877D01*
X83883172Y-71079515D01*
X83933968Y-71127490D01*
X83950763Y-71195311D01*
X83928225Y-71261446D01*
X83883172Y-71300485D01*
X83731733Y-71377647D01*
X83639790Y-71444447D01*
X83570582Y-71494731D01*
X83570580Y-71494733D01*
X83570579Y-71494733D01*
X83429733Y-71635579D01*
X83429733Y-71635580D01*
X83429731Y-71635582D01*
X83400523Y-71675783D01*
X83312647Y-71796733D01*
X83222213Y-71974219D01*
X83160661Y-72163656D01*
X83160661Y-72163659D01*
X83160661Y-72163661D01*
X83129500Y-72360403D01*
X83129500Y-72559597D01*
X83135099Y-72594949D01*
X83160661Y-72756340D01*
X83160661Y-72756343D01*
X83222213Y-72945780D01*
X83312647Y-73123266D01*
X83429731Y-73284418D01*
X83570582Y-73425269D01*
X83731734Y-73542353D01*
X83801453Y-73577877D01*
X83883172Y-73619515D01*
X83933968Y-73667490D01*
X83950763Y-73735311D01*
X83928225Y-73801446D01*
X83883172Y-73840485D01*
X83731733Y-73917647D01*
X83647720Y-73978687D01*
X83570582Y-74034731D01*
X83570580Y-74034733D01*
X83570579Y-74034733D01*
X83429733Y-74175579D01*
X83429733Y-74175580D01*
X83429731Y-74175582D01*
X83383288Y-74239505D01*
X83312647Y-74336733D01*
X83222213Y-74514219D01*
X83160661Y-74703656D01*
X83160661Y-74703659D01*
X83148553Y-74780105D01*
X83129500Y-74900403D01*
X83129500Y-75099597D01*
X83133277Y-75123443D01*
X83160661Y-75296340D01*
X83160661Y-75296343D01*
X83222213Y-75485780D01*
X83291724Y-75622203D01*
X83312647Y-75663266D01*
X83429731Y-75824418D01*
X83570582Y-75965269D01*
X83731734Y-76082353D01*
X83801453Y-76117877D01*
X83883172Y-76159515D01*
X83933968Y-76207490D01*
X83950763Y-76275311D01*
X83928225Y-76341446D01*
X83883172Y-76380485D01*
X83731733Y-76457647D01*
X83700534Y-76480315D01*
X83570582Y-76574731D01*
X83570580Y-76574733D01*
X83570579Y-76574733D01*
X83429733Y-76715579D01*
X83429733Y-76715580D01*
X83429731Y-76715582D01*
X83400523Y-76755783D01*
X83312647Y-76876733D01*
X83222213Y-77054219D01*
X83160661Y-77243656D01*
X83160661Y-77243659D01*
X83134335Y-77409873D01*
X83129500Y-77440403D01*
X83129500Y-77639597D01*
X83133909Y-77667438D01*
X83124954Y-77736729D01*
X83099117Y-77774514D01*
X82160451Y-78713181D01*
X82099128Y-78746666D01*
X82072770Y-78749500D01*
X76862229Y-78749500D01*
X76795190Y-78729815D01*
X76774548Y-78713181D01*
X76218005Y-78156638D01*
X76184520Y-78095315D01*
X76189504Y-78025623D01*
X76231376Y-77969690D01*
X76286288Y-77946484D01*
X76316127Y-77941757D01*
X76316130Y-77941757D01*
X76518217Y-77876095D01*
X76707557Y-77779620D01*
X76879459Y-77654727D01*
X76879464Y-77654723D01*
X77029723Y-77504464D01*
X77029727Y-77504459D01*
X77154620Y-77332557D01*
X77251095Y-77143217D01*
X77316757Y-76941130D01*
X77316757Y-76941127D01*
X77347030Y-76750000D01*
X76404146Y-76750000D01*
X76442630Y-76683343D01*
X76475000Y-76562535D01*
X76475000Y-76437465D01*
X76442630Y-76316657D01*
X76404146Y-76250000D01*
X77347030Y-76250000D01*
X77316757Y-76058872D01*
X77316757Y-76058869D01*
X77251095Y-75856782D01*
X77154620Y-75667442D01*
X77029727Y-75495540D01*
X77029723Y-75495535D01*
X76879464Y-75345276D01*
X76879459Y-75345272D01*
X76707557Y-75220379D01*
X76518215Y-75123903D01*
X76316124Y-75058241D01*
X76250000Y-75047768D01*
X76250000Y-76095854D01*
X76183343Y-76057370D01*
X76062535Y-76025000D01*
X75937465Y-76025000D01*
X75816657Y-76057370D01*
X75750000Y-76095854D01*
X75750000Y-75047768D01*
X75749999Y-75047768D01*
X75683875Y-75058241D01*
X75481784Y-75123903D01*
X75292442Y-75220379D01*
X75120540Y-75345272D01*
X75120535Y-75345276D01*
X74970276Y-75495535D01*
X74970272Y-75495540D01*
X74850627Y-75660218D01*
X74795297Y-75702884D01*
X74725684Y-75708863D01*
X74663889Y-75676257D01*
X74649991Y-75660218D01*
X74530109Y-75495214D01*
X74530105Y-75495209D01*
X74379786Y-75344890D01*
X74207820Y-75219951D01*
X74018414Y-75123444D01*
X74018413Y-75123443D01*
X74018412Y-75123443D01*
X73816243Y-75057754D01*
X73816241Y-75057753D01*
X73816240Y-75057753D01*
X73654957Y-75032208D01*
X73606287Y-75024500D01*
X73393713Y-75024500D01*
X73345042Y-75032208D01*
X73183760Y-75057753D01*
X72981585Y-75123444D01*
X72792179Y-75219951D01*
X72620215Y-75344889D01*
X72481398Y-75483706D01*
X72420075Y-75517190D01*
X72350383Y-75512206D01*
X72294450Y-75470334D01*
X72288178Y-75461120D01*
X72192712Y-75306344D01*
X72068657Y-75182289D01*
X72068656Y-75182288D01*
X71934402Y-75099480D01*
X71887679Y-75047533D01*
X71875500Y-74993942D01*
X71875500Y-70006057D01*
X71895185Y-69939018D01*
X71934401Y-69900520D01*
X72068656Y-69817712D01*
X72192712Y-69693656D01*
X72284814Y-69544334D01*
X72284814Y-69544331D01*
X72288178Y-69538879D01*
X72340126Y-69492154D01*
X72409088Y-69480931D01*
X72473170Y-69508774D01*
X72481398Y-69516294D01*
X72620213Y-69655109D01*
X72792179Y-69780048D01*
X72792181Y-69780049D01*
X72792184Y-69780051D01*
X72981588Y-69876557D01*
X73183757Y-69942246D01*
X73393713Y-69975500D01*
X73393714Y-69975500D01*
X73606286Y-69975500D01*
X73606287Y-69975500D01*
X73816243Y-69942246D01*
X74018412Y-69876557D01*
X74207816Y-69780051D01*
X74311918Y-69704417D01*
X74379786Y-69655109D01*
X74379788Y-69655106D01*
X74379792Y-69655104D01*
X74530104Y-69504792D01*
X74649991Y-69339779D01*
X74705320Y-69297115D01*
X74774933Y-69291136D01*
X74836729Y-69323741D01*
X74850627Y-69339781D01*
X74970272Y-69504459D01*
X74970276Y-69504464D01*
X75120535Y-69654723D01*
X75120540Y-69654727D01*
X75292442Y-69779620D01*
X75481782Y-69876095D01*
X75683871Y-69941757D01*
X75750000Y-69952231D01*
X75750000Y-68904145D01*
X75816657Y-68942630D01*
X75937465Y-68975000D01*
X76062535Y-68975000D01*
X76183343Y-68942630D01*
X76250000Y-68904145D01*
X76250000Y-69952230D01*
X76316126Y-69941757D01*
X76316129Y-69941757D01*
X76518217Y-69876095D01*
X76707557Y-69779620D01*
X76879459Y-69654727D01*
X76879464Y-69654723D01*
X77029723Y-69504464D01*
X77029727Y-69504459D01*
X77154620Y-69332557D01*
X77251095Y-69143217D01*
X77316757Y-68941130D01*
X77316757Y-68941127D01*
X77347030Y-68750000D01*
X76404146Y-68750000D01*
X76442630Y-68683343D01*
X76475000Y-68562535D01*
X76475000Y-68437465D01*
X76442630Y-68316657D01*
X76404146Y-68250000D01*
X77347030Y-68250000D01*
X77316757Y-68058872D01*
X77316757Y-68058869D01*
X77251095Y-67856782D01*
X77154620Y-67667442D01*
X77029727Y-67495540D01*
X77029723Y-67495535D01*
X76879464Y-67345276D01*
X76879459Y-67345272D01*
X76707557Y-67220379D01*
X76518217Y-67123904D01*
X76316131Y-67058243D01*
X76286284Y-67053515D01*
X76223150Y-67023584D01*
X76186220Y-66964272D01*
X76187220Y-66894409D01*
X76218001Y-66843364D01*
X77774548Y-65286819D01*
X77835871Y-65253334D01*
X77862229Y-65250500D01*
X79073920Y-65250500D01*
X79171462Y-65231096D01*
X79218913Y-65221658D01*
X79355495Y-65165084D01*
X79404729Y-65132186D01*
X79478416Y-65082952D01*
X81082951Y-63478416D01*
X81165084Y-63355495D01*
X81221658Y-63218913D01*
X81240454Y-63124420D01*
X81250500Y-63073920D01*
X81250500Y-56397229D01*
X81270185Y-56330190D01*
X81286814Y-56309553D01*
X82917819Y-54678547D01*
X82979142Y-54645063D01*
X83048834Y-54650047D01*
G37*
%TD.AperFunction*%
%TA.AperFunction,Conductor*%
G36*
X83013613Y-50351146D02*
G01*
X83015838Y-50350579D01*
X83046971Y-50360941D01*
X83078450Y-50370185D01*
X83079953Y-50371919D01*
X83082132Y-50372645D01*
X83102726Y-50398201D01*
X83124205Y-50422989D01*
X83124981Y-50425818D01*
X83125973Y-50427049D01*
X83134701Y-50461246D01*
X83135909Y-50472483D01*
X83186202Y-50607328D01*
X83186206Y-50607335D01*
X83272452Y-50722544D01*
X83272455Y-50722547D01*
X83387664Y-50808793D01*
X83387671Y-50808797D01*
X83522517Y-50859091D01*
X83522516Y-50859091D01*
X83529444Y-50859835D01*
X83582127Y-50865500D01*
X83614568Y-50865499D01*
X83681605Y-50885182D01*
X83727361Y-50937984D01*
X83737306Y-51007143D01*
X83708283Y-51070699D01*
X83687455Y-51089816D01*
X83570582Y-51174730D01*
X83429733Y-51315579D01*
X83429733Y-51315580D01*
X83429731Y-51315582D01*
X83387288Y-51374000D01*
X83312647Y-51476733D01*
X83222213Y-51654219D01*
X83160661Y-51843656D01*
X83160661Y-51843659D01*
X83129500Y-52040403D01*
X83129500Y-52239597D01*
X83133909Y-52267437D01*
X83124953Y-52336730D01*
X83099116Y-52374514D01*
X79917047Y-55556584D01*
X79917045Y-55556586D01*
X79883806Y-55606336D01*
X79883804Y-55606339D01*
X79834919Y-55679499D01*
X79834912Y-55679511D01*
X79778343Y-55816082D01*
X79778340Y-55816092D01*
X79749500Y-55961079D01*
X79749500Y-62637770D01*
X79729815Y-62704809D01*
X79713181Y-62725451D01*
X78725451Y-63713181D01*
X78664128Y-63746666D01*
X78637770Y-63749500D01*
X77426080Y-63749500D01*
X77281092Y-63778340D01*
X77281082Y-63778343D01*
X77144511Y-63834912D01*
X77144498Y-63834919D01*
X77021584Y-63917048D01*
X77021580Y-63917051D01*
X73916716Y-67021915D01*
X73855393Y-67055400D01*
X73809637Y-67056707D01*
X73643592Y-67030408D01*
X73606287Y-67024500D01*
X73393713Y-67024500D01*
X73345042Y-67032208D01*
X73183760Y-67057753D01*
X72981585Y-67123444D01*
X72792179Y-67219951D01*
X72620215Y-67344889D01*
X72481398Y-67483706D01*
X72420075Y-67517190D01*
X72350383Y-67512206D01*
X72294450Y-67470334D01*
X72288178Y-67461120D01*
X72235367Y-67375500D01*
X72192712Y-67306344D01*
X72068656Y-67182288D01*
X71934402Y-67099480D01*
X71887679Y-67047533D01*
X71875500Y-66993942D01*
X71875500Y-62006057D01*
X71895185Y-61939018D01*
X71934401Y-61900520D01*
X72068656Y-61817712D01*
X72192712Y-61693656D01*
X72284814Y-61544334D01*
X72284814Y-61544331D01*
X72288178Y-61538879D01*
X72340126Y-61492154D01*
X72409088Y-61480931D01*
X72473170Y-61508774D01*
X72481398Y-61516294D01*
X72620213Y-61655109D01*
X72792179Y-61780048D01*
X72792181Y-61780049D01*
X72792184Y-61780051D01*
X72981588Y-61876557D01*
X73183757Y-61942246D01*
X73393713Y-61975500D01*
X73393714Y-61975500D01*
X73606286Y-61975500D01*
X73606287Y-61975500D01*
X73816243Y-61942246D01*
X74018412Y-61876557D01*
X74207816Y-61780051D01*
X74229789Y-61764086D01*
X74379786Y-61655109D01*
X74379788Y-61655106D01*
X74379792Y-61655104D01*
X74530104Y-61504792D01*
X74649991Y-61339779D01*
X74705320Y-61297115D01*
X74774933Y-61291136D01*
X74836729Y-61323741D01*
X74850627Y-61339781D01*
X74970272Y-61504459D01*
X74970276Y-61504464D01*
X75120535Y-61654723D01*
X75120540Y-61654727D01*
X75292442Y-61779620D01*
X75481782Y-61876095D01*
X75683871Y-61941757D01*
X75750000Y-61952231D01*
X75750000Y-60904145D01*
X75816657Y-60942630D01*
X75937465Y-60975000D01*
X76062535Y-60975000D01*
X76183343Y-60942630D01*
X76250000Y-60904145D01*
X76250000Y-61952230D01*
X76316126Y-61941757D01*
X76316129Y-61941757D01*
X76518217Y-61876095D01*
X76707557Y-61779620D01*
X76879459Y-61654727D01*
X76879464Y-61654723D01*
X77029723Y-61504464D01*
X77029727Y-61504459D01*
X77154620Y-61332557D01*
X77251095Y-61143217D01*
X77316757Y-60941130D01*
X77316757Y-60941127D01*
X77347030Y-60750000D01*
X76404146Y-60750000D01*
X76442630Y-60683343D01*
X76475000Y-60562535D01*
X76475000Y-60437465D01*
X76442630Y-60316657D01*
X76404146Y-60250000D01*
X77347030Y-60250000D01*
X77316757Y-60058872D01*
X77316757Y-60058869D01*
X77251095Y-59856782D01*
X77154620Y-59667442D01*
X77029727Y-59495540D01*
X77029723Y-59495535D01*
X76879464Y-59345276D01*
X76879459Y-59345272D01*
X76707557Y-59220379D01*
X76518215Y-59123903D01*
X76316124Y-59058241D01*
X76250000Y-59047768D01*
X76250000Y-60095854D01*
X76183343Y-60057370D01*
X76062535Y-60025000D01*
X75937465Y-60025000D01*
X75816657Y-60057370D01*
X75750000Y-60095854D01*
X75750000Y-59047768D01*
X75749999Y-59047768D01*
X75683875Y-59058241D01*
X75481784Y-59123903D01*
X75292442Y-59220379D01*
X75120540Y-59345272D01*
X75120535Y-59345276D01*
X74970276Y-59495535D01*
X74970272Y-59495540D01*
X74850627Y-59660218D01*
X74795297Y-59702884D01*
X74725684Y-59708863D01*
X74663889Y-59676257D01*
X74649991Y-59660218D01*
X74530109Y-59495214D01*
X74530105Y-59495209D01*
X74379794Y-59344898D01*
X74379788Y-59344893D01*
X74301615Y-59288097D01*
X74258949Y-59232767D01*
X74250500Y-59187779D01*
X74250500Y-58362230D01*
X74270185Y-58295191D01*
X74286819Y-58274549D01*
X82174549Y-50386819D01*
X82235872Y-50353334D01*
X82262230Y-50350500D01*
X83011411Y-50350500D01*
X83013613Y-50351146D01*
G37*
%TD.AperFunction*%
%TD*%
M02*
