%TF.GenerationSoftware,KiCad,Pcbnew,9.0.2*%
%TF.CreationDate,2025-05-14T21:51:20+02:00*%
%TF.ProjectId,carte_actionneur,63617274-655f-4616-9374-696f6e6e6575,rev?*%
%TF.SameCoordinates,Original*%
%TF.FileFunction,Legend,Top*%
%TF.FilePolarity,Positive*%
%FSLAX46Y46*%
G04 Gerber Fmt 4.6, Leading zero omitted, Abs format (unit mm)*
G04 Created by KiCad (PCBNEW 9.0.2) date 2025-05-14 21:51:20*
%MOMM*%
%LPD*%
G01*
G04 APERTURE LIST*
%ADD10C,0.150000*%
%ADD11C,0.120000*%
%ADD12C,0.127000*%
%ADD13C,0.200000*%
G04 APERTURE END LIST*
D10*
X62666666Y-88604819D02*
X62333333Y-88128628D01*
X62095238Y-88604819D02*
X62095238Y-87604819D01*
X62095238Y-87604819D02*
X62476190Y-87604819D01*
X62476190Y-87604819D02*
X62571428Y-87652438D01*
X62571428Y-87652438D02*
X62619047Y-87700057D01*
X62619047Y-87700057D02*
X62666666Y-87795295D01*
X62666666Y-87795295D02*
X62666666Y-87938152D01*
X62666666Y-87938152D02*
X62619047Y-88033390D01*
X62619047Y-88033390D02*
X62571428Y-88081009D01*
X62571428Y-88081009D02*
X62476190Y-88128628D01*
X62476190Y-88128628D02*
X62095238Y-88128628D01*
X63095238Y-88081009D02*
X63428571Y-88081009D01*
X63571428Y-88604819D02*
X63095238Y-88604819D01*
X63095238Y-88604819D02*
X63095238Y-87604819D01*
X63095238Y-87604819D02*
X63571428Y-87604819D01*
X64333333Y-88081009D02*
X64000000Y-88081009D01*
X64000000Y-88604819D02*
X64000000Y-87604819D01*
X64000000Y-87604819D02*
X64476190Y-87604819D01*
X65000000Y-87604819D02*
X65000000Y-87842914D01*
X64761905Y-87747676D02*
X65000000Y-87842914D01*
X65000000Y-87842914D02*
X65238095Y-87747676D01*
X64857143Y-88033390D02*
X65000000Y-87842914D01*
X65000000Y-87842914D02*
X65142857Y-88033390D01*
X65761905Y-87604819D02*
X65761905Y-87842914D01*
X65523810Y-87747676D02*
X65761905Y-87842914D01*
X65761905Y-87842914D02*
X66000000Y-87747676D01*
X65619048Y-88033390D02*
X65761905Y-87842914D01*
X65761905Y-87842914D02*
X65904762Y-88033390D01*
X62666666Y-36904819D02*
X62333333Y-36428628D01*
X62095238Y-36904819D02*
X62095238Y-35904819D01*
X62095238Y-35904819D02*
X62476190Y-35904819D01*
X62476190Y-35904819D02*
X62571428Y-35952438D01*
X62571428Y-35952438D02*
X62619047Y-36000057D01*
X62619047Y-36000057D02*
X62666666Y-36095295D01*
X62666666Y-36095295D02*
X62666666Y-36238152D01*
X62666666Y-36238152D02*
X62619047Y-36333390D01*
X62619047Y-36333390D02*
X62571428Y-36381009D01*
X62571428Y-36381009D02*
X62476190Y-36428628D01*
X62476190Y-36428628D02*
X62095238Y-36428628D01*
X63095238Y-36381009D02*
X63428571Y-36381009D01*
X63571428Y-36904819D02*
X63095238Y-36904819D01*
X63095238Y-36904819D02*
X63095238Y-35904819D01*
X63095238Y-35904819D02*
X63571428Y-35904819D01*
X64333333Y-36381009D02*
X64000000Y-36381009D01*
X64000000Y-36904819D02*
X64000000Y-35904819D01*
X64000000Y-35904819D02*
X64476190Y-35904819D01*
X65000000Y-35904819D02*
X65000000Y-36142914D01*
X64761905Y-36047676D02*
X65000000Y-36142914D01*
X65000000Y-36142914D02*
X65238095Y-36047676D01*
X64857143Y-36333390D02*
X65000000Y-36142914D01*
X65000000Y-36142914D02*
X65142857Y-36333390D01*
X65761905Y-35904819D02*
X65761905Y-36142914D01*
X65523810Y-36047676D02*
X65761905Y-36142914D01*
X65761905Y-36142914D02*
X66000000Y-36047676D01*
X65619048Y-36333390D02*
X65761905Y-36142914D01*
X65761905Y-36142914D02*
X65904762Y-36333390D01*
X131666666Y-88604819D02*
X131333333Y-88128628D01*
X131095238Y-88604819D02*
X131095238Y-87604819D01*
X131095238Y-87604819D02*
X131476190Y-87604819D01*
X131476190Y-87604819D02*
X131571428Y-87652438D01*
X131571428Y-87652438D02*
X131619047Y-87700057D01*
X131619047Y-87700057D02*
X131666666Y-87795295D01*
X131666666Y-87795295D02*
X131666666Y-87938152D01*
X131666666Y-87938152D02*
X131619047Y-88033390D01*
X131619047Y-88033390D02*
X131571428Y-88081009D01*
X131571428Y-88081009D02*
X131476190Y-88128628D01*
X131476190Y-88128628D02*
X131095238Y-88128628D01*
X132095238Y-88081009D02*
X132428571Y-88081009D01*
X132571428Y-88604819D02*
X132095238Y-88604819D01*
X132095238Y-88604819D02*
X132095238Y-87604819D01*
X132095238Y-87604819D02*
X132571428Y-87604819D01*
X133333333Y-88081009D02*
X133000000Y-88081009D01*
X133000000Y-88604819D02*
X133000000Y-87604819D01*
X133000000Y-87604819D02*
X133476190Y-87604819D01*
X134000000Y-87604819D02*
X134000000Y-87842914D01*
X133761905Y-87747676D02*
X134000000Y-87842914D01*
X134000000Y-87842914D02*
X134238095Y-87747676D01*
X133857143Y-88033390D02*
X134000000Y-87842914D01*
X134000000Y-87842914D02*
X134142857Y-88033390D01*
X134761905Y-87604819D02*
X134761905Y-87842914D01*
X134523810Y-87747676D02*
X134761905Y-87842914D01*
X134761905Y-87842914D02*
X135000000Y-87747676D01*
X134619048Y-88033390D02*
X134761905Y-87842914D01*
X134761905Y-87842914D02*
X134904762Y-88033390D01*
X132666666Y-36904819D02*
X132333333Y-36428628D01*
X132095238Y-36904819D02*
X132095238Y-35904819D01*
X132095238Y-35904819D02*
X132476190Y-35904819D01*
X132476190Y-35904819D02*
X132571428Y-35952438D01*
X132571428Y-35952438D02*
X132619047Y-36000057D01*
X132619047Y-36000057D02*
X132666666Y-36095295D01*
X132666666Y-36095295D02*
X132666666Y-36238152D01*
X132666666Y-36238152D02*
X132619047Y-36333390D01*
X132619047Y-36333390D02*
X132571428Y-36381009D01*
X132571428Y-36381009D02*
X132476190Y-36428628D01*
X132476190Y-36428628D02*
X132095238Y-36428628D01*
X133095238Y-36381009D02*
X133428571Y-36381009D01*
X133571428Y-36904819D02*
X133095238Y-36904819D01*
X133095238Y-36904819D02*
X133095238Y-35904819D01*
X133095238Y-35904819D02*
X133571428Y-35904819D01*
X134333333Y-36381009D02*
X134000000Y-36381009D01*
X134000000Y-36904819D02*
X134000000Y-35904819D01*
X134000000Y-35904819D02*
X134476190Y-35904819D01*
X135000000Y-35904819D02*
X135000000Y-36142914D01*
X134761905Y-36047676D02*
X135000000Y-36142914D01*
X135000000Y-36142914D02*
X135238095Y-36047676D01*
X134857143Y-36333390D02*
X135000000Y-36142914D01*
X135000000Y-36142914D02*
X135142857Y-36333390D01*
X135761905Y-35904819D02*
X135761905Y-36142914D01*
X135523810Y-36047676D02*
X135761905Y-36142914D01*
X135761905Y-36142914D02*
X136000000Y-36047676D01*
X135619048Y-36333390D02*
X135761905Y-36142914D01*
X135761905Y-36142914D02*
X135904762Y-36333390D01*
X72916666Y-48154819D02*
X72916666Y-48869104D01*
X72916666Y-48869104D02*
X72869047Y-49011961D01*
X72869047Y-49011961D02*
X72773809Y-49107200D01*
X72773809Y-49107200D02*
X72630952Y-49154819D01*
X72630952Y-49154819D02*
X72535714Y-49154819D01*
X73916666Y-49154819D02*
X73345238Y-49154819D01*
X73630952Y-49154819D02*
X73630952Y-48154819D01*
X73630952Y-48154819D02*
X73535714Y-48297676D01*
X73535714Y-48297676D02*
X73440476Y-48392914D01*
X73440476Y-48392914D02*
X73345238Y-48440533D01*
X72916666Y-40154819D02*
X72916666Y-40869104D01*
X72916666Y-40869104D02*
X72869047Y-41011961D01*
X72869047Y-41011961D02*
X72773809Y-41107200D01*
X72773809Y-41107200D02*
X72630952Y-41154819D01*
X72630952Y-41154819D02*
X72535714Y-41154819D01*
X73345238Y-40250057D02*
X73392857Y-40202438D01*
X73392857Y-40202438D02*
X73488095Y-40154819D01*
X73488095Y-40154819D02*
X73726190Y-40154819D01*
X73726190Y-40154819D02*
X73821428Y-40202438D01*
X73821428Y-40202438D02*
X73869047Y-40250057D01*
X73869047Y-40250057D02*
X73916666Y-40345295D01*
X73916666Y-40345295D02*
X73916666Y-40440533D01*
X73916666Y-40440533D02*
X73869047Y-40583390D01*
X73869047Y-40583390D02*
X73297619Y-41154819D01*
X73297619Y-41154819D02*
X73916666Y-41154819D01*
X73166666Y-81154819D02*
X73166666Y-81869104D01*
X73166666Y-81869104D02*
X73119047Y-82011961D01*
X73119047Y-82011961D02*
X73023809Y-82107200D01*
X73023809Y-82107200D02*
X72880952Y-82154819D01*
X72880952Y-82154819D02*
X72785714Y-82154819D01*
X73690476Y-82154819D02*
X73880952Y-82154819D01*
X73880952Y-82154819D02*
X73976190Y-82107200D01*
X73976190Y-82107200D02*
X74023809Y-82059580D01*
X74023809Y-82059580D02*
X74119047Y-81916723D01*
X74119047Y-81916723D02*
X74166666Y-81726247D01*
X74166666Y-81726247D02*
X74166666Y-81345295D01*
X74166666Y-81345295D02*
X74119047Y-81250057D01*
X74119047Y-81250057D02*
X74071428Y-81202438D01*
X74071428Y-81202438D02*
X73976190Y-81154819D01*
X73976190Y-81154819D02*
X73785714Y-81154819D01*
X73785714Y-81154819D02*
X73690476Y-81202438D01*
X73690476Y-81202438D02*
X73642857Y-81250057D01*
X73642857Y-81250057D02*
X73595238Y-81345295D01*
X73595238Y-81345295D02*
X73595238Y-81583390D01*
X73595238Y-81583390D02*
X73642857Y-81678628D01*
X73642857Y-81678628D02*
X73690476Y-81726247D01*
X73690476Y-81726247D02*
X73785714Y-81773866D01*
X73785714Y-81773866D02*
X73976190Y-81773866D01*
X73976190Y-81773866D02*
X74071428Y-81726247D01*
X74071428Y-81726247D02*
X74119047Y-81678628D01*
X74119047Y-81678628D02*
X74166666Y-81583390D01*
X85538095Y-39234819D02*
X85538095Y-40044342D01*
X85538095Y-40044342D02*
X85585714Y-40139580D01*
X85585714Y-40139580D02*
X85633333Y-40187200D01*
X85633333Y-40187200D02*
X85728571Y-40234819D01*
X85728571Y-40234819D02*
X85919047Y-40234819D01*
X85919047Y-40234819D02*
X86014285Y-40187200D01*
X86014285Y-40187200D02*
X86061904Y-40139580D01*
X86061904Y-40139580D02*
X86109523Y-40044342D01*
X86109523Y-40044342D02*
X86109523Y-39234819D01*
X87109523Y-40234819D02*
X86538095Y-40234819D01*
X86823809Y-40234819D02*
X86823809Y-39234819D01*
X86823809Y-39234819D02*
X86728571Y-39377676D01*
X86728571Y-39377676D02*
X86633333Y-39472914D01*
X86633333Y-39472914D02*
X86538095Y-39520533D01*
X106663095Y-63319819D02*
X106663095Y-64129342D01*
X106663095Y-64129342D02*
X106710714Y-64224580D01*
X106710714Y-64224580D02*
X106758333Y-64272200D01*
X106758333Y-64272200D02*
X106853571Y-64319819D01*
X106853571Y-64319819D02*
X107044047Y-64319819D01*
X107044047Y-64319819D02*
X107139285Y-64272200D01*
X107139285Y-64272200D02*
X107186904Y-64224580D01*
X107186904Y-64224580D02*
X107234523Y-64129342D01*
X107234523Y-64129342D02*
X107234523Y-63319819D01*
X107615476Y-63319819D02*
X108234523Y-63319819D01*
X108234523Y-63319819D02*
X107901190Y-63700771D01*
X107901190Y-63700771D02*
X108044047Y-63700771D01*
X108044047Y-63700771D02*
X108139285Y-63748390D01*
X108139285Y-63748390D02*
X108186904Y-63796009D01*
X108186904Y-63796009D02*
X108234523Y-63891247D01*
X108234523Y-63891247D02*
X108234523Y-64129342D01*
X108234523Y-64129342D02*
X108186904Y-64224580D01*
X108186904Y-64224580D02*
X108139285Y-64272200D01*
X108139285Y-64272200D02*
X108044047Y-64319819D01*
X108044047Y-64319819D02*
X107758333Y-64319819D01*
X107758333Y-64319819D02*
X107663095Y-64272200D01*
X107663095Y-64272200D02*
X107615476Y-64224580D01*
X111416666Y-93254819D02*
X111416666Y-93969104D01*
X111416666Y-93969104D02*
X111369047Y-94111961D01*
X111369047Y-94111961D02*
X111273809Y-94207200D01*
X111273809Y-94207200D02*
X111130952Y-94254819D01*
X111130952Y-94254819D02*
X111035714Y-94254819D01*
X112369047Y-93254819D02*
X111892857Y-93254819D01*
X111892857Y-93254819D02*
X111845238Y-93731009D01*
X111845238Y-93731009D02*
X111892857Y-93683390D01*
X111892857Y-93683390D02*
X111988095Y-93635771D01*
X111988095Y-93635771D02*
X112226190Y-93635771D01*
X112226190Y-93635771D02*
X112321428Y-93683390D01*
X112321428Y-93683390D02*
X112369047Y-93731009D01*
X112369047Y-93731009D02*
X112416666Y-93826247D01*
X112416666Y-93826247D02*
X112416666Y-94064342D01*
X112416666Y-94064342D02*
X112369047Y-94159580D01*
X112369047Y-94159580D02*
X112321428Y-94207200D01*
X112321428Y-94207200D02*
X112226190Y-94254819D01*
X112226190Y-94254819D02*
X111988095Y-94254819D01*
X111988095Y-94254819D02*
X111892857Y-94207200D01*
X111892857Y-94207200D02*
X111845238Y-94159580D01*
X73166666Y-57154819D02*
X73166666Y-57869104D01*
X73166666Y-57869104D02*
X73119047Y-58011961D01*
X73119047Y-58011961D02*
X73023809Y-58107200D01*
X73023809Y-58107200D02*
X72880952Y-58154819D01*
X72880952Y-58154819D02*
X72785714Y-58154819D01*
X73547619Y-57154819D02*
X74214285Y-57154819D01*
X74214285Y-57154819D02*
X73785714Y-58154819D01*
X73166666Y-73154819D02*
X73166666Y-73869104D01*
X73166666Y-73869104D02*
X73119047Y-74011961D01*
X73119047Y-74011961D02*
X73023809Y-74107200D01*
X73023809Y-74107200D02*
X72880952Y-74154819D01*
X72880952Y-74154819D02*
X72785714Y-74154819D01*
X74071428Y-73154819D02*
X73880952Y-73154819D01*
X73880952Y-73154819D02*
X73785714Y-73202438D01*
X73785714Y-73202438D02*
X73738095Y-73250057D01*
X73738095Y-73250057D02*
X73642857Y-73392914D01*
X73642857Y-73392914D02*
X73595238Y-73583390D01*
X73595238Y-73583390D02*
X73595238Y-73964342D01*
X73595238Y-73964342D02*
X73642857Y-74059580D01*
X73642857Y-74059580D02*
X73690476Y-74107200D01*
X73690476Y-74107200D02*
X73785714Y-74154819D01*
X73785714Y-74154819D02*
X73976190Y-74154819D01*
X73976190Y-74154819D02*
X74071428Y-74107200D01*
X74071428Y-74107200D02*
X74119047Y-74059580D01*
X74119047Y-74059580D02*
X74166666Y-73964342D01*
X74166666Y-73964342D02*
X74166666Y-73726247D01*
X74166666Y-73726247D02*
X74119047Y-73631009D01*
X74119047Y-73631009D02*
X74071428Y-73583390D01*
X74071428Y-73583390D02*
X73976190Y-73535771D01*
X73976190Y-73535771D02*
X73785714Y-73535771D01*
X73785714Y-73535771D02*
X73690476Y-73583390D01*
X73690476Y-73583390D02*
X73642857Y-73631009D01*
X73642857Y-73631009D02*
X73595238Y-73726247D01*
X121654819Y-51833333D02*
X122369104Y-51833333D01*
X122369104Y-51833333D02*
X122511961Y-51880952D01*
X122511961Y-51880952D02*
X122607200Y-51976190D01*
X122607200Y-51976190D02*
X122654819Y-52119047D01*
X122654819Y-52119047D02*
X122654819Y-52214285D01*
X121654819Y-51452380D02*
X121654819Y-50833333D01*
X121654819Y-50833333D02*
X122035771Y-51166666D01*
X122035771Y-51166666D02*
X122035771Y-51023809D01*
X122035771Y-51023809D02*
X122083390Y-50928571D01*
X122083390Y-50928571D02*
X122131009Y-50880952D01*
X122131009Y-50880952D02*
X122226247Y-50833333D01*
X122226247Y-50833333D02*
X122464342Y-50833333D01*
X122464342Y-50833333D02*
X122559580Y-50880952D01*
X122559580Y-50880952D02*
X122607200Y-50928571D01*
X122607200Y-50928571D02*
X122654819Y-51023809D01*
X122654819Y-51023809D02*
X122654819Y-51309523D01*
X122654819Y-51309523D02*
X122607200Y-51404761D01*
X122607200Y-51404761D02*
X122559580Y-51452380D01*
X121654819Y-75333333D02*
X122369104Y-75333333D01*
X122369104Y-75333333D02*
X122511961Y-75380952D01*
X122511961Y-75380952D02*
X122607200Y-75476190D01*
X122607200Y-75476190D02*
X122654819Y-75619047D01*
X122654819Y-75619047D02*
X122654819Y-75714285D01*
X121988152Y-74428571D02*
X122654819Y-74428571D01*
X121607200Y-74666666D02*
X122321485Y-74904761D01*
X122321485Y-74904761D02*
X122321485Y-74285714D01*
X73166666Y-65154819D02*
X73166666Y-65869104D01*
X73166666Y-65869104D02*
X73119047Y-66011961D01*
X73119047Y-66011961D02*
X73023809Y-66107200D01*
X73023809Y-66107200D02*
X72880952Y-66154819D01*
X72880952Y-66154819D02*
X72785714Y-66154819D01*
X73785714Y-65583390D02*
X73690476Y-65535771D01*
X73690476Y-65535771D02*
X73642857Y-65488152D01*
X73642857Y-65488152D02*
X73595238Y-65392914D01*
X73595238Y-65392914D02*
X73595238Y-65345295D01*
X73595238Y-65345295D02*
X73642857Y-65250057D01*
X73642857Y-65250057D02*
X73690476Y-65202438D01*
X73690476Y-65202438D02*
X73785714Y-65154819D01*
X73785714Y-65154819D02*
X73976190Y-65154819D01*
X73976190Y-65154819D02*
X74071428Y-65202438D01*
X74071428Y-65202438D02*
X74119047Y-65250057D01*
X74119047Y-65250057D02*
X74166666Y-65345295D01*
X74166666Y-65345295D02*
X74166666Y-65392914D01*
X74166666Y-65392914D02*
X74119047Y-65488152D01*
X74119047Y-65488152D02*
X74071428Y-65535771D01*
X74071428Y-65535771D02*
X73976190Y-65583390D01*
X73976190Y-65583390D02*
X73785714Y-65583390D01*
X73785714Y-65583390D02*
X73690476Y-65631009D01*
X73690476Y-65631009D02*
X73642857Y-65678628D01*
X73642857Y-65678628D02*
X73595238Y-65773866D01*
X73595238Y-65773866D02*
X73595238Y-65964342D01*
X73595238Y-65964342D02*
X73642857Y-66059580D01*
X73642857Y-66059580D02*
X73690476Y-66107200D01*
X73690476Y-66107200D02*
X73785714Y-66154819D01*
X73785714Y-66154819D02*
X73976190Y-66154819D01*
X73976190Y-66154819D02*
X74071428Y-66107200D01*
X74071428Y-66107200D02*
X74119047Y-66059580D01*
X74119047Y-66059580D02*
X74166666Y-65964342D01*
X74166666Y-65964342D02*
X74166666Y-65773866D01*
X74166666Y-65773866D02*
X74119047Y-65678628D01*
X74119047Y-65678628D02*
X74071428Y-65631009D01*
X74071428Y-65631009D02*
X73976190Y-65583390D01*
X106663095Y-39819819D02*
X106663095Y-40629342D01*
X106663095Y-40629342D02*
X106710714Y-40724580D01*
X106710714Y-40724580D02*
X106758333Y-40772200D01*
X106758333Y-40772200D02*
X106853571Y-40819819D01*
X106853571Y-40819819D02*
X107044047Y-40819819D01*
X107044047Y-40819819D02*
X107139285Y-40772200D01*
X107139285Y-40772200D02*
X107186904Y-40724580D01*
X107186904Y-40724580D02*
X107234523Y-40629342D01*
X107234523Y-40629342D02*
X107234523Y-39819819D01*
X107663095Y-39915057D02*
X107710714Y-39867438D01*
X107710714Y-39867438D02*
X107805952Y-39819819D01*
X107805952Y-39819819D02*
X108044047Y-39819819D01*
X108044047Y-39819819D02*
X108139285Y-39867438D01*
X108139285Y-39867438D02*
X108186904Y-39915057D01*
X108186904Y-39915057D02*
X108234523Y-40010295D01*
X108234523Y-40010295D02*
X108234523Y-40105533D01*
X108234523Y-40105533D02*
X108186904Y-40248390D01*
X108186904Y-40248390D02*
X107615476Y-40819819D01*
X107615476Y-40819819D02*
X108234523Y-40819819D01*
D11*
%TO.C,J1*%
X77110000Y-53810000D02*
X77110000Y-49790000D01*
X77110000Y-52310000D02*
X76110000Y-52310000D01*
X77110000Y-49790000D02*
X69390000Y-49790000D01*
X76610000Y-51500000D02*
X77110000Y-51500000D01*
X76610000Y-50290000D02*
X76610000Y-51500000D01*
X76110000Y-52310000D02*
X76110000Y-53810000D01*
X70390000Y-52310000D02*
X70390000Y-53810000D01*
X69890000Y-51500000D02*
X69890000Y-50290000D01*
X69890000Y-50290000D02*
X76610000Y-50290000D01*
X69390000Y-53810000D02*
X77110000Y-53810000D01*
X69390000Y-52310000D02*
X70390000Y-52310000D01*
X69390000Y-51500000D02*
X69890000Y-51500000D01*
X69390000Y-49790000D02*
X69390000Y-53810000D01*
X69090000Y-54110000D02*
X71590000Y-54110000D01*
X69090000Y-51610000D02*
X69090000Y-54110000D01*
%TO.C,J2*%
X77110000Y-45810000D02*
X77110000Y-41790000D01*
X77110000Y-44310000D02*
X76110000Y-44310000D01*
X77110000Y-41790000D02*
X69390000Y-41790000D01*
X76610000Y-43500000D02*
X77110000Y-43500000D01*
X76610000Y-42290000D02*
X76610000Y-43500000D01*
X76110000Y-44310000D02*
X76110000Y-45810000D01*
X70390000Y-44310000D02*
X70390000Y-45810000D01*
X69890000Y-43500000D02*
X69890000Y-42290000D01*
X69890000Y-42290000D02*
X76610000Y-42290000D01*
X69390000Y-45810000D02*
X77110000Y-45810000D01*
X69390000Y-44310000D02*
X70390000Y-44310000D01*
X69390000Y-43500000D02*
X69890000Y-43500000D01*
X69390000Y-41790000D02*
X69390000Y-45810000D01*
X69090000Y-46110000D02*
X71590000Y-46110000D01*
X69090000Y-43610000D02*
X69090000Y-46110000D01*
%TO.C,J9*%
X68090000Y-84610000D02*
X68090000Y-87110000D01*
X68090000Y-87110000D02*
X70590000Y-87110000D01*
X68390000Y-82790000D02*
X68390000Y-86810000D01*
X68390000Y-84500000D02*
X68890000Y-84500000D01*
X68390000Y-85310000D02*
X69390000Y-85310000D01*
X68390000Y-86810000D02*
X78610000Y-86810000D01*
X68890000Y-83290000D02*
X78110000Y-83290000D01*
X68890000Y-84500000D02*
X68890000Y-83290000D01*
X69390000Y-85310000D02*
X69390000Y-86810000D01*
X77610000Y-85310000D02*
X77610000Y-86810000D01*
X78110000Y-83290000D02*
X78110000Y-84500000D01*
X78110000Y-84500000D02*
X78610000Y-84500000D01*
X78610000Y-82790000D02*
X68390000Y-82790000D01*
X78610000Y-85310000D02*
X77610000Y-85310000D01*
X78610000Y-86810000D02*
X78610000Y-82790000D01*
D12*
%TO.C,U1*%
X82745000Y-40670000D02*
X101285000Y-40670000D01*
X82745000Y-90960000D02*
X82745000Y-40670000D01*
X101285000Y-40670000D02*
X101285000Y-90960000D01*
X101285000Y-90960000D02*
X82745000Y-90960000D01*
D13*
X82115000Y-49315000D02*
G75*
G02*
X81915000Y-49315000I-100000J0D01*
G01*
X81915000Y-49315000D02*
G75*
G02*
X82115000Y-49315000I100000J0D01*
G01*
D12*
%TO.C,U3*%
X104380000Y-64840000D02*
X119620000Y-64840000D01*
X104380000Y-85160000D02*
X104380000Y-64840000D01*
X119620000Y-64840000D02*
X119620000Y-85160000D01*
X119620000Y-85160000D02*
X104380000Y-85160000D01*
D13*
X103700000Y-65550000D02*
G75*
G02*
X103500000Y-65550000I-100000J0D01*
G01*
X103500000Y-65550000D02*
G75*
G02*
X103700000Y-65550000I100000J0D01*
G01*
D11*
%TO.C,J5*%
X107890000Y-88690000D02*
X107890000Y-92710000D01*
X107890000Y-90190000D02*
X108890000Y-90190000D01*
X107890000Y-92710000D02*
X115610000Y-92710000D01*
X108390000Y-91000000D02*
X107890000Y-91000000D01*
X108390000Y-92210000D02*
X108390000Y-91000000D01*
X108890000Y-90190000D02*
X108890000Y-88690000D01*
X114610000Y-90190000D02*
X114610000Y-88690000D01*
X115110000Y-91000000D02*
X115110000Y-92210000D01*
X115110000Y-92210000D02*
X108390000Y-92210000D01*
X115610000Y-88690000D02*
X107890000Y-88690000D01*
X115610000Y-90190000D02*
X114610000Y-90190000D01*
X115610000Y-91000000D02*
X115110000Y-91000000D01*
X115610000Y-92710000D02*
X115610000Y-88690000D01*
X115910000Y-88390000D02*
X113410000Y-88390000D01*
X115910000Y-90890000D02*
X115910000Y-88390000D01*
%TO.C,J7*%
X68090000Y-60610000D02*
X68090000Y-63110000D01*
X68090000Y-63110000D02*
X70590000Y-63110000D01*
X68390000Y-58790000D02*
X68390000Y-62810000D01*
X68390000Y-60500000D02*
X68890000Y-60500000D01*
X68390000Y-61310000D02*
X69390000Y-61310000D01*
X68390000Y-62810000D02*
X78610000Y-62810000D01*
X68890000Y-59290000D02*
X78110000Y-59290000D01*
X68890000Y-60500000D02*
X68890000Y-59290000D01*
X69390000Y-61310000D02*
X69390000Y-62810000D01*
X77610000Y-61310000D02*
X77610000Y-62810000D01*
X78110000Y-59290000D02*
X78110000Y-60500000D01*
X78110000Y-60500000D02*
X78610000Y-60500000D01*
X78610000Y-58790000D02*
X68390000Y-58790000D01*
X78610000Y-61310000D02*
X77610000Y-61310000D01*
X78610000Y-62810000D02*
X78610000Y-58790000D01*
%TO.C,J6*%
X78610000Y-78810000D02*
X78610000Y-74790000D01*
X78610000Y-77310000D02*
X77610000Y-77310000D01*
X78610000Y-74790000D02*
X68390000Y-74790000D01*
X78110000Y-76500000D02*
X78610000Y-76500000D01*
X78110000Y-75290000D02*
X78110000Y-76500000D01*
X77610000Y-77310000D02*
X77610000Y-78810000D01*
X69390000Y-77310000D02*
X69390000Y-78810000D01*
X68890000Y-76500000D02*
X68890000Y-75290000D01*
X68890000Y-75290000D02*
X78110000Y-75290000D01*
X68390000Y-78810000D02*
X78610000Y-78810000D01*
X68390000Y-77310000D02*
X69390000Y-77310000D01*
X68390000Y-76500000D02*
X68890000Y-76500000D01*
X68390000Y-74790000D02*
X68390000Y-78810000D01*
X68090000Y-79110000D02*
X70590000Y-79110000D01*
X68090000Y-76610000D02*
X68090000Y-79110000D01*
%TO.C,J3*%
X123290000Y-45140000D02*
X123290000Y-57860000D01*
X123290000Y-57860000D02*
X127310000Y-57860000D01*
X123790000Y-45640000D02*
X125000000Y-45640000D01*
X123790000Y-57360000D02*
X123790000Y-45640000D01*
X125000000Y-45640000D02*
X125000000Y-45140000D01*
X125000000Y-57360000D02*
X123790000Y-57360000D01*
X125000000Y-57860000D02*
X125000000Y-57360000D01*
X125110000Y-58160000D02*
X127610000Y-58160000D01*
X125810000Y-45140000D02*
X125810000Y-46140000D01*
X125810000Y-46140000D02*
X127310000Y-46140000D01*
X125810000Y-56860000D02*
X127310000Y-56860000D01*
X125810000Y-57860000D02*
X125810000Y-56860000D01*
X127310000Y-45140000D02*
X123290000Y-45140000D01*
X127310000Y-57860000D02*
X127310000Y-45140000D01*
X127610000Y-58160000D02*
X127610000Y-55660000D01*
%TO.C,J4*%
X123290000Y-68640000D02*
X123290000Y-81360000D01*
X123290000Y-81360000D02*
X127310000Y-81360000D01*
X123790000Y-69140000D02*
X125000000Y-69140000D01*
X123790000Y-80860000D02*
X123790000Y-69140000D01*
X125000000Y-69140000D02*
X125000000Y-68640000D01*
X125000000Y-80860000D02*
X123790000Y-80860000D01*
X125000000Y-81360000D02*
X125000000Y-80860000D01*
X125110000Y-81660000D02*
X127610000Y-81660000D01*
X125810000Y-68640000D02*
X125810000Y-69640000D01*
X125810000Y-69640000D02*
X127310000Y-69640000D01*
X125810000Y-80360000D02*
X127310000Y-80360000D01*
X125810000Y-81360000D02*
X125810000Y-80360000D01*
X127310000Y-68640000D02*
X123290000Y-68640000D01*
X127310000Y-81360000D02*
X127310000Y-68640000D01*
X127610000Y-81660000D02*
X127610000Y-79160000D01*
%TO.C,J8*%
X68090000Y-68610000D02*
X68090000Y-71110000D01*
X68090000Y-71110000D02*
X70590000Y-71110000D01*
X68390000Y-66790000D02*
X68390000Y-70810000D01*
X68390000Y-68500000D02*
X68890000Y-68500000D01*
X68390000Y-69310000D02*
X69390000Y-69310000D01*
X68390000Y-70810000D02*
X78610000Y-70810000D01*
X68890000Y-67290000D02*
X78110000Y-67290000D01*
X68890000Y-68500000D02*
X68890000Y-67290000D01*
X69390000Y-69310000D02*
X69390000Y-70810000D01*
X77610000Y-69310000D02*
X77610000Y-70810000D01*
X78110000Y-67290000D02*
X78110000Y-68500000D01*
X78110000Y-68500000D02*
X78610000Y-68500000D01*
X78610000Y-66790000D02*
X68390000Y-66790000D01*
X78610000Y-69310000D02*
X77610000Y-69310000D01*
X78610000Y-70810000D02*
X78610000Y-66790000D01*
D12*
%TO.C,U2*%
X104380000Y-41340000D02*
X119620000Y-41340000D01*
X104380000Y-61660000D02*
X104380000Y-41340000D01*
X119620000Y-41340000D02*
X119620000Y-61660000D01*
X119620000Y-61660000D02*
X104380000Y-61660000D01*
D13*
X103700000Y-42050000D02*
G75*
G02*
X103500000Y-42050000I-100000J0D01*
G01*
X103500000Y-42050000D02*
G75*
G02*
X103700000Y-42050000I100000J0D01*
G01*
%TD*%
M02*
